<?xml version="1.0" encoding="UTF-8" standalone="no"?>
<!-- Created with Inkscape (http://www.inkscape.org/) -->

<svg
   width="210mm"
   height="150mm"
   viewBox="0 0 210 150"
   version="1.1"
   id="svg1"
   xml:space="preserve"
   inkscape:version="1.4.3 (0d15f75, 2025-12-25)"
   sodipodi:docname="1.svg"
   xmlns:inkscape="http://www.inkscape.org/namespaces/inkscape"
   xmlns:sodipodi="http://sodipodi.sourceforge.net/DTD/sodipodi-0.dtd"
   xmlns="http://www.w3.org/2000/svg"
   xmlns:svg="http://www.w3.org/2000/svg"><sodipodi:namedview
     id="namedview1"
     pagecolor="#505050"
     bordercolor="#eeeeee"
     borderopacity="1"
     inkscape:showpageshadow="0"
     inkscape:pageopacity="0"
     inkscape:pagecheckerboard="0"
     inkscape:deskcolor="#505050"
     inkscape:document-units="mm"
     inkscape:zoom="5.6568543"
     inkscape:cx="424.26407"
     inkscape:cy="233.25685"
     inkscape:window-width="1920"
     inkscape:window-height="1057"
     inkscape:window-x="-8"
     inkscape:window-y="-8"
     inkscape:window-maximized="1"
     inkscape:current-layer="layer2" /><defs
     id="defs1" /><path
     style="display:inline;fill:#ffffff;fill-opacity:1;stroke-width:0.127102"
     d="m 113.72783,51.483307 -1.96075,17.354743 6.67491,-0.08344 -0.0418,24.86401 5.25649,-0.0417 -0.12515,-2.461373 11.93139,0.04169 0.0417,-6.257718 8.3019,0.08344 0.12516,7.133799 20.40017,-0.08343 -0.0417,-20.692197 12.55717,0.04171 -0.0417,3.546042 32.45671,-0.04171 -0.0418,-20.525321 -44.97612,0.01766 -0.059,-1.946945 -4.24788,0.117997 v 1.710952 l -16.04752,-0.117995 0.059,-2.595928 z"
     id="path11"
     inkscape:label="background" /><path
     style="display:inline;fill:#ffffff;fill-opacity:1;stroke-width:0.282565"
     d="m 113.80328,51.430761 -17.482257,-1.854883 -0.04635,-0.788323 -5.518272,-0.463719 -0.139116,0.741951 -82.6601589,-8.477573 -3.0822575,28.199378 -0.5574291,0.163951 -0.5246406,4.590598 0.5246406,0.426268 -3.63968775,34.757371 20.98558425,2.42646 3.508526,-35.183641 1.27881,0.03279 0.491849,-4.459437 -1.344388,-0.163949 1.953194,-16.422968 20.196434,1.978984 -2.320016,22.806864 42.454945,4.408815 -0.26232,0.967304 22.28079,2.262509 z"
     id="path98"
     inkscape:label="bg1" /><g
     inkscape:groupmode="layer"
     id="layer2"
     inkscape:label="walls"
     style="display:inline"><g
       id="g48"
       inkscape:label="inner walls"
       style="display:inline;fill:#606060;fill-opacity:1"
       transform="matrix(0.54362852,0,0,0.53779614,106.28906,9.9375576)"><g
         id="g60"
         style="fill:#606060;fill-opacity:1"><path
           style="display:inline;fill:#606060;fill-opacity:1;stroke-width:0.264583"
           d="m 31.871052,27.442104 0.08684,15.371053 H 14.198684 v 0.738159 c 0,0 18.497368,0.130262 18.497368,-0.04342 0,-0.173686 -0.130263,-13.200002 -0.130263,-13.200002 h 2.822369 l -0.04342,-0.781579 -2.778948,0.08684 0.04342,-2.301316 z"
           id="path12"
           transform="matrix(0.88367451,0,0,0.89325792,6.5467189,53.126839)" /><path
           style="display:inline;fill:#606060;fill-opacity:1;stroke-width:0.264583"
           d="m 5.9776402,42.622655 6.0499908,0.06024 -0.04342,0.825 -6.0934118,-0.01682 z"
           id="path13"
           transform="matrix(0.88367451,0,0,0.89325792,6.5467189,53.126839)"
           sodipodi:nodetypes="ccccc" /><path
           style="display:inline;fill:#606060;fill-opacity:1;stroke-width:0.264583"
           d="m 45.201316,27.485525 v 2.171054 l -7.728948,0.08684 -0.04342,0.564472 4.428945,0.04342 -0.08684,10.073685 3.386844,-0.130262 -0.04342,4.906579 16.369739,0.04342 v -0.564472 h -15.84869 v -5.167103 l -3.169737,0.04342 -0.173684,-9.161843 3.69079,-0.130262 -0.04342,-2.822369 z"
           id="path14"
           transform="matrix(0.88367451,0,0,0.89325792,6.5467189,53.126839)" /><path
           style="display:inline;fill:#606060;fill-opacity:1;stroke-width:0.264583"
           d="m 64.845411,27.510173 0.184221,13.263835 h 1.535166 v -0.552659 l -0.9211,-0.06141 V 27.510173 Z"
           id="path15"
           transform="matrix(0.88367451,0,0,0.89325792,6.5467189,53.126839)" /><path
           style="display:inline;fill:#606060;fill-opacity:1;stroke-width:0.264583"
           d="m 70.679042,32.484113 -0.06141,7.553017 -1.780792,0.06141 0.184219,0.73688 1.535168,-0.122814 v 1.228135 h 0.675474 V 32.42271 Z"
           id="path16"
           transform="matrix(0.88367451,0,0,0.89325792,6.5467189,53.126839)" /><path
           style="fill:#606060;fill-opacity:1;stroke-width:0.23507"
           d="m 62.763688,93.00422 6.728673,0.05485 -0.108528,0.658224 23.984461,0.164555 -0.108528,0.767929 -24.472831,-0.493669 0.05426,-0.658222 -6.023248,0.05485 z"
           id="path17" /><path
           style="fill:#606060;fill-opacity:1;stroke-width:0.23507"
           d="m 98.596534,82.449205 v 11.597074 h -3.261456 l -0.03837,0.465433 6.407802,0.07757 -0.0384,-0.659366 -2.494053,0.03879 0.03837,-4.033765 h 3.952113 v -0.62058 l -3.952113,-0.03879 v -6.865157 z"
           id="path18" /><path
           style="fill:#606060;fill-opacity:1;stroke-width:0.23507"
           d="m 106.0787,82.837066 0.0767,11.209213 -2.37895,0.03879 v 0.543008 h 2.30221 v 2.986536 l 0.61392,-0.07757 v -2.908965 h 19.91407 V 94.20143 h -0.3837 v -3.180469 l -0.53718,-0.03879 v 3.180466 l -18.87808,-0.07757 -0.15348,-11.20921 z"
           id="path19" /><path
           style="fill:#606060;fill-opacity:1;stroke-width:0.23507"
           d="m 125.76359,82.55492 -0.0271,6.280551 0.56977,0.05485 -0.0543,-6.582239 z"
           id="path20" /><path
           style="fill:#606060;fill-opacity:1;stroke-width:0.23507"
           d="m 129.64343,82.993737 0.0543,5.869159 h 0.51551 l 0.0271,-6.006289 z"
           id="path21" /><path
           style="fill:#606060;fill-opacity:1;stroke-width:0.23507"
           d="m 10.998831,100.42426 13.389974,-0.0171 v 0.69815 l -13.620195,-0.1381 z"
           id="path22"
           sodipodi:nodetypes="ccccc" /><path
           style="fill:#606060;fill-opacity:1;stroke-width:0.23507"
           d="m 25.348057,104.51855 -12.431905,0.0776 0.03837,0.50422 h 12.508645 z"
           id="path23"
           sodipodi:nodetypes="ccccc" /><path
           style="fill:#606060;fill-opacity:1;stroke-width:0.23507"
           d="m 27.535151,104.51855 v 0.58179 l 0.498811,0.0776 0.03837,8.26146 -5.41018,-0.0388 0.07674,0.62058 2.609165,-0.0388 0.07674,3.49075 h 0.460441 l 0.03837,-3.60711 1.381323,-0.0388 0.15348,3.68469 0.306961,-0.0388 0.07674,-3.68469 0.729031,0.0388 -0.03837,3.6459 0.575551,-0.0776 v -3.52954 h 4.220708 v 5.27492 l 7.904237,-0.0776 -0.07674,-0.65937 -7.405426,0.0388 v -1.66781 l 0.460443,0.0388 v -0.46544 l -0.460443,0.0388 v -2.13324 l 0.383701,-0.0776 -0.03837,-0.27151 -0.345331,-0.0388 v -0.81451 h -0.46044 l 0.03837,0.42664 -4.796259,-0.0776 v -8.80447 z"
           id="path24" /><path
           style="fill:#606060;fill-opacity:1;stroke-width:0.23507"
           d="m 50.096758,103.12225 -0.07674,7.44695 -16.690984,0.0388 0.03837,0.50422 h 4.297449 l 0.07674,2.32717 -1.688282,0.0388 v 0.42665 l 11.088951,0.11636 -0.07674,5.23614 0.882513,0.0776 0.03837,-5.27492 2.494055,-0.0388 -0.03837,5.27492 0.767402,-0.0388 -0.03837,-5.23614 h 1.995243 l -0.07674,9.77412 -6.791504,0.0388 0.03837,2.87018 0.42207,-0.0388 v -2.28838 h 6.446173 v 5.15856 l -6.407801,-0.15514 -0.07674,-0.50422 -0.42207,-0.0776 v 1.62902 l 0.498812,0.0388 0.03837,-0.54301 6.369431,0.0776 -0.03837,5.43006 -6.331062,-0.11636 v -2.63746 h -0.498812 l -0.03837,5.50764 H 45.64583 l 0.03837,0.5818 h 0.652292 l -0.03837,0.58179 3.606787,0.0776 -0.07674,-0.69815 -2.954495,0.0776 -0.115112,-2.90896 6.407804,0.19393 0.07674,3.10289 0.460443,-0.0776 v -11.98493 l 15.73173,0.19393 0.07674,-0.65937 h -15.80847 v -14.15696 l 15.23292,0.0776 0.03837,11.59708 0.49881,0.0776 0.115112,-1.62902 4.515998,0.10228 -0.05426,1.53585 0.596896,0.0274 -0.05426,-1.56328 2.03488,0.0823 -0.02713,-0.60338 -7.027121,-0.0823 -0.108528,-13.02735 10.310063,0.13713 0.02713,12.99992 H 78.82568 l 0.05426,0.65822 1.57364,-0.0549 -0.217054,-17.16867 -0.651162,-0.1097 v 3.18141 l -9.984481,-0.2194 V 102.2742 H 79.74816 v 1.04219 h 0.48837 l 0.108526,-1.04219 5.806194,0.10971 -0.05426,-0.60337 H 69.492361 l -0.05426,-0.54852 -10.58138,-0.10971 -0.05426,0.32911 9.930218,0.0549 0.108528,10.47672 H 58.314083 v -3.18141 l 3.527125,0.0549 -0.05426,-1.59071 H 61.19005 l 0.108525,1.04219 -7.542623,-0.10971 0.05426,-4.443 7.759676,-0.0549 0.108528,-0.60337 z"
           id="path25" /><path
           style="fill:#606060;fill-opacity:1;stroke-width:0.23507"
           d="m 35.903264,116.31631 h 5.860456 v 0.60337 l -5.806192,0.0549 z"
           id="path26" /><path
           style="fill:#606060;fill-opacity:1;stroke-width:0.23507"
           d="m 22.7715,120.26565 2.00775,-0.0274 -0.02713,0.54852 -1.899222,0.0274 z"
           id="path27" /><path
           style="fill:#606060;fill-opacity:1;stroke-width:0.23507"
           d="m 22.690105,122.51458 2.089145,-0.0274 -0.02713,0.5211 -1.899222,0.1097 z"
           id="path28" /><path
           style="fill:#606060;fill-opacity:1;stroke-width:0.23507"
           d="m 26.108705,119.82683 h 2.930228 l 0.02713,1.56328 -0.569767,-0.0549 0.05426,-0.93248 -2.007749,-0.0549 v 4.8544 h 1.926353 v -1.70042 l 0.542635,0.0549 0.02713,1.67298 h 1.031007 l 0.05426,0.46624 h -1.112403 l 0.02713,1.61814 -0.488371,-0.0274 -0.02713,-1.61813 -1.953485,0.0274 -0.02713,4.90926 1.87209,-0.0274 v -1.09704 l 0.569767,-0.0274 0.08139,6.39026 h -0.515503 l -0.162791,-4.68985 -5.724797,-0.0549 v -0.49366 l 3.445731,-0.0274 -0.05426,-4.90925 -3.201545,0.0274 -0.02713,-0.49366 3.228677,-0.0549 z"
           id="path29" /><path
           style="fill:#606060;fill-opacity:1;stroke-width:0.23507"
           d="m 31.833502,125.1749 v 0.65822 h 0.379845 l -0.08139,6.66452 0.434106,-0.0274 v -1.3713 h 5.643402 l 0.02713,4.08647 -5.616272,0.0274 0.02713,-0.49367 h -0.488371 l -0.05426,0.93249 11.503859,0.1097 -0.05426,-10.06534 0.949611,-0.0274 -0.0814,-0.46624 h -1.817826 l -0.02713,0.60337 h 0.434109 l 0.05426,9.37968 -4.259685,-0.0823 -0.0814,-9.35227 1.926355,-0.0274 -0.02713,-0.6308 -5.236426,0.13713 -0.05426,0.46624 2.8217,0.0274 0.02713,4.8544 -5.453482,-0.0274 -0.05426,-4.71727 h 0.786819 l -0.08139,-0.71307 z"
           id="path30" /><path
           style="fill:#606060;fill-opacity:1;stroke-width:0.23507"
           d="m 34.193963,138.01026 -0.05426,0.52109 -5.100766,0.0549 0.0814,11.73832 2.387593,0.0548 0.135659,0.24683 -0.271318,0.16456 h -8.546498 v -0.43882 l 5.779061,-0.0548 -0.05426,-12.23199 z"
           id="path31" /><path
           style="fill:#606060;fill-opacity:1;stroke-width:0.23507"
           d="m 36.093187,138.17482 -0.02713,0.43881 1.329455,0.0548 -0.02713,11.8206 0.624029,0.10971 -0.0814,-11.95773 1.953485,0.0548 v -0.65822 z"
           id="path32" /><path
           style="fill:#606060;fill-opacity:1;stroke-width:0.23507"
           d="m 41.845114,138.11997 -0.05426,0.52109 1.031005,0.0274 0.0814,7.37759 1.546509,0.0549 v 2.19409 h -1.763563 l 0.05426,2.71517 0.569766,-0.0548 -0.05426,-2.08438 1.600773,-0.0548 -0.02713,-5.4852 3.364336,-0.1097 -0.0814,-1.12447 h -0.596899 v 0.6308 l -2.740306,-0.0548 0.05426,-1.42615 -1.465114,-0.0823 v -2.41349 l 0.542634,0.0274 0.05426,-0.71308 z"
           id="path33" /><path
           style="fill:#606060;fill-opacity:1;stroke-width:0.23507"
           d="m 68.821356,129.84594 0.191849,9.03718 h 0.34533 l 0.15348,-9.03718 z"
           id="path34" /><path
           style="fill:#606060;fill-opacity:1;stroke-width:0.23507"
           d="m 80.063788,127.13091 -5.525293,0.11635 -0.07674,-0.69815 h -0.49881 l 0.15348,11.40315 h -4.911369 l -0.07674,0.38786 10.513403,0.11636 0.03837,8.18388 0.53718,-0.0776 -0.153479,-11.40314 h -0.345331 l -0.03837,2.71503 -5.141592,0.0388 -0.07674,-10.1232 5.678773,0.0776 z"
           id="path35" /><path
           style="fill:#606060;fill-opacity:1;stroke-width:0.23507"
           d="m 79.488236,148.81239 0.115109,3.29683 h 0.498813 l -0.07674,-3.33561 z"
           id="path36" /><path
           style="fill:#606060;fill-opacity:1;stroke-width:0.23507"
           d="m 91.037629,149.00632 0.03837,3.49076 h 0.537182 l -0.07674,-3.52954 z"
           id="path37" /><path
           style="fill:#606060;fill-opacity:1;stroke-width:0.23507"
           d="m 100.59178,152.30315 -0.11511,-5.31371 h 0.53718 v 5.70157 z"
           id="path38" /><path
           style="fill:#606060;fill-opacity:1;stroke-width:0.23507"
           d="m 106.34729,143.18839 -5.94736,0.0388 0.0384,1.31873 0.46044,-0.0776 0.0384,-0.73694 h 5.48692 z"
           id="path39" /><path
           style="fill:#606060;fill-opacity:1;stroke-width:0.23507"
           d="m 91.075999,146.52401 0.345331,0.0388 0.191851,-27.18912 14.772479,0.0388 -0.0767,-0.58179 -10.244811,0.0776 -0.07674,-16.25141 0.42207,-0.0388 v -0.62058 h -1.956873 l 0.07674,0.54301 0.92088,0.0776 0.03837,16.21263 -3.875376,-0.0776 -0.07674,-16.17385 h 0.844143 v -0.69815 l -4.220709,0.0388 0.03837,0.69815 2.877756,-0.0776 z"
           id="path40" /><path
           style="fill:#606060;fill-opacity:1;stroke-width:0.23507"
           d="m 98.366313,101.95866 5.525297,0.15515 -0.0384,0.54301 -4.412565,-0.0388 -0.03837,2.5211 3.261455,0.0388 v 3.10289 l 3.53005,-0.0776 0.0384,-8.222674 0.49881,0.03878 v 2.21082 h 1.95687 v 0.50422 l -1.99524,-0.0388 0.11511,11.40314 h -0.53718 l -0.0767,-5.27492 -3.53005,-0.0388 v 2.55988 h -0.57555 v -5.35249 l -3.414937,-0.0388 0.03837,-3.33561 -0.383701,-0.0388 z"
           id="path41" /><path
           style="fill:#606060;fill-opacity:1;stroke-width:0.23507"
           d="m 110.72148,102.23017 19.03156,-0.0388 -0.0767,-2.17203 0.57555,0.0388 v 2.09445 l 0.65229,0.0388 v 0.62058 l -0.69066,-0.0388 -0.0384,11.28679 -0.61392,-0.15515 v -7.2918 h -7.17521 l 0.0767,7.21423 -0.57555,0.0776 -0.0767,-11.09285 -11.08895,-0.0388 z"
           id="path42" /><path
           style="fill:#606060;fill-opacity:1;stroke-width:0.23507"
           d="m 128.72095,94.238389 0.92248,-0.02743 0.0543,-3.153986 h 0.54264 l -0.0814,3.126561 58.68403,0.09546 -0.0384,0.659365 -50.66769,-0.252112 -0.0767,13.323063 -4.75789,-0.0194 0.0192,-5.81793 h 0.42207 l 0.0576,5.25553 3.5876,-0.097 0.15348,-12.663696 -7.38624,0.09697 0.0384,2.928357 -0.55636,-0.0194 -0.0192,-2.947751 -0.89779,0.007 z"
           id="path43" /><path
           style="fill:#606060;fill-opacity:1;stroke-width:0.23507"
           d="m 188.72785,105.06156 -6.82988,-0.11636 0.19185,15.63084 0.49881,0.0776 -0.0384,-15.08783 h 6.36944 z"
           id="path44" /><path
           style="fill:#606060;fill-opacity:1;stroke-width:0.23507"
           d="m 181.97471,83.186142 -0.0384,4.305269 0.53718,0.07757 0.0384,-4.460413 z"
           id="path45" /><path
           style="fill:#606060;fill-opacity:1;stroke-width:0.23507"
           d="m 185.04432,83.030999 0.11514,4.460411 0.57555,-0.03878 3e-5,-4.421627 z"
           id="path46"
           sodipodi:nodetypes="ccccc" /><path
           style="fill:#606060;fill-opacity:1;stroke-width:0.23507"
           d="m 188.99644,87.142335 -0.99762,-0.116358 -0.0384,0.465434 h 1.03599 z"
           id="path47" /><path
           style="fill:#606060;fill-opacity:1;stroke-width:0.23507"
           d="m 133.35982,112.00429 0.0767,8.88204 0.49881,0.0388 0.0384,-8.88205 z"
           id="path48" /></g><g
         id="g61"
         style="fill:#606060;fill-opacity:1"><path
           style="display:inline;fill:#606060;fill-opacity:1;stroke-width:0.264583"
           d="m 117.04106,59.172974 -4.68993,-0.544983 -0.0614,0.422169 0.2533,0.03071 0.0614,-0.153517 4.4136,0.491252 z"
           id="path59"
           transform="matrix(1.9645067,0,0,1.9858117,-217.85503,-31.231975)" /><path
           style="display:inline;fill:#606060;fill-opacity:1;stroke-width:0.264583"
           d="m 116.68029,62.181898 -4.32149,-0.445196 0.10746,-1.105321 -0.32238,-0.02302 -0.10747,1.112993 -3.69974,-0.445196 0.42984,-4.022137 -0.33773,-0.0307 -0.0998,0.97483 -0.62174,-0.05373 -0.0384,0.268655 0.62942,0.06908 -0.30704,2.801678 -0.57568,-0.06141 -0.0307,0.291682 9.24938,0.928775 z"
           id="path60"
           transform="matrix(1.9645067,0,0,1.9858117,-217.85503,-31.231975)" /></g><path
         style="fill:#606060;fill-opacity:1;stroke-width:0.522587"
         d="M 10.687536,99.486691 5.441528,98.904665 5.3349012,99.508249 10.644883,100.06872 Z"
         id="path61" /><path
         style="fill:#606060;fill-opacity:1;stroke-width:0.522587"
         d="m 10.090428,106.40633 -1.748671,-0.194 -0.127948,0.51735 1.855293,0.23712 z"
         id="path62" /><path
         style="fill:#606060;fill-opacity:1;stroke-width:0.522587"
         d="m 5.3135748,105.9752 -3.9025177,-0.47424 0.6397555,-6.359171 0.7037348,0.06467 0.042674,-0.538911 -32.2224314,-3.341262 0.117288,-1.099379 -0.511803,-0.05389 -0.117292,1.120936 -14.650212,-1.642046 -0.09048,0.510633 14.666054,1.530212 -0.0853,0.754477 0.522468,0.05389 0.09596,-0.722143 8.791855,0.868129 -0.93491,9.099925 -8.64598,-0.94666 0.426507,-5.195112 -0.522468,-0.03237 -0.469155,5.205902 -30.495092,-3.30892 0.916989,-9.032186 12.777543,1.38948 0.06032,-0.556359 -14.468514,-1.524275 -0.09047,0.472525 1.085702,0.121943 -0.919831,9.084682 -0.949994,-0.1067 -0.09047,0.62496 14.452546,1.35823 -0.725055,6.03582 -8.892625,-0.81915 -0.06397,0.58203 9.681654,1.01315 0.661082,-6.66096 17.020187,1.9205 -3.10632,32.25366 0.603168,-0.12194 0.392062,-2.98758 4.855511,0.51825 v -0.60971 l -1.538084,-0.12194 0.06032,-0.91457 -0.663489,-0.0305 -0.03015,0.91456 -2.593623,-0.21339 0.271426,-3.74972 2.593624,0.27437 -0.03015,0.76214 0.573011,0.061 0.06031,-0.79263 7.841196,0.77738 0.12063,-0.62495 -1.93014,-0.15243 0.331746,-3.7802 -0.573011,0.0305 -0.301584,3.68874 -8.685629,-0.91456 1.266652,-12.77343 8.685629,1.00602 -0.663483,5.88371 0.633325,0.061 1.025388,-11.43207 h -0.633326 l -0.361904,5.03011 -8.655472,-1.067 1.085708,-10.94429 8.534837,0.94505 -0.271427,3.47535 0.482534,0.0915 0.120634,-0.4268 2.35236,0.24388 0.06031,-0.57922 -2.352359,-0.30486 1.206337,-12.011289 7.901516,0.823106 -1.115864,12.011293 -2.714259,-0.24389 -0.03015,0.73166 3.438062,0.24388 1.206337,-12.529541 12.8324159,1.265146 -0.63332596,6.920215 4.47102246,0.46539 z"
         id="path63" /><path
         style="fill:#606060;fill-opacity:1;stroke-width:0.522587"
         d="m -26.119826,134.68847 -0.106627,0.73292 3.817218,0.32335 -0.511803,4.67776 0.554455,0.0862 0.575782,-5.19512 z"
         id="path64" /><path
         style="fill:#606060;fill-opacity:1;stroke-width:0.522587"
         d="m -62.689859,134.57869 1.538079,-13.53556 -2.231725,-0.2134 0.120635,-0.60971 2.714259,0.24389 -1.507922,14.41964 z"
         id="path65" /><path
         style="fill:#606060;fill-opacity:1;stroke-width:0.522587"
         d="m -70.772319,119.4274 4.523764,0.39631 -0.03015,0.57922 -1.839668,-0.15242 -1.326967,13.62702 -0.784123,-0.061 1.568241,-13.62702 -2.141252,-0.2134 z"
         id="path66" /><path
         style="fill:#606060;fill-opacity:1;stroke-width:0.522587"
         d="m -78.523038,116.98856 -1.688876,15.761 0.663488,0.0305 1.507922,-13.44411 4.192022,0.4268 0.06032,-0.57923 -4.161865,-0.45728 0.09048,-1.70719 z"
         id="path68" /><path
         style="fill:#606060;fill-opacity:1;stroke-width:0.522587"
         d="m -78.251617,113.87904 0.603174,0.061 0.723798,-5.63982 4.041231,0.39631 0.81428,-7.7738 6.182478,0.67068 -0.03015,-0.6402 -1.11586,-0.12194 0.874596,-8.932254 1.025382,0.06097 v -0.670684 l -13.72209,-1.341363 -0.06031,0.579225 12.063376,1.280389 -0.93491,8.932257 -17.220472,-1.76816 0.784118,-8.993227 2.41268,0.274371 -0.03015,-0.670679 -3.528534,-0.304855 -0.06032,0.60971 0.482539,0.03047 -0.874596,8.993226 -4.342814,-0.457282 0.904752,-9.145654 1.17618,0.213397 0.12063,-0.548736 -1.206337,-0.152428 0.03015,-1.006023 -0.603169,-0.06097 -0.06031,1.097477 -13.600185,-1.392276 -0.0427,0.474243 13.498872,1.422728 -0.831683,9.010623 -13.541519,-1.293393 -0.064,0.474243 3.00686,0.32335 -0.25591,3.168805 1.08759,0.1509 -0.81035,9.1184 -8.23155,-0.94849 -0.1706,0.60359 8.31684,0.92692 v 0.6467 l 0.57578,0.0431 0.10663,-0.64669 9.169848,0.92693 0.853009,-7.65256 -0.597103,-0.0647 -0.725061,7.00586 -8.636713,-0.81914 0.874325,-9.6142 -1.215535,-0.19401 0.27723,-2.543671 9.873583,1.013153 -0.14928,2.090988 0.575782,0.0862 0.213253,-2.15565 13.392251,1.42273 z"
         id="path69" /><path
         style="fill:#606060;fill-opacity:1;stroke-width:0.522587"
         d="m -101.74504,114.64117 -1.5984,15.88295 h 0.54286 l 1.5984,-15.85246 z"
         id="path70" /><path
         style="fill:#606060;fill-opacity:1;stroke-width:0.522587"
         d="m -108.28942,96.593753 0.99523,0.09146 -0.0302,0.579226 -1.11586,-0.182917 z"
         id="path71" /><path
         style="fill:#606060;fill-opacity:1;stroke-width:0.522587"
         d="m -107.41482,87.509073 0.99523,0.121943 0.0301,-0.579225 -1.0857,0.06097 z"
         id="path72" /><path
         style="fill:#606060;fill-opacity:1;stroke-width:0.522587"
         d="m -9.8593285,90.023383 -0.053313,0.582026 -18.8338925,-2.036962 -0.26389,2.499809 -0.588089,-0.03047 0.286505,-2.522675 -11.633615,-1.173693 0.120635,-0.624952 4.599157,0.548736 0.180955,-1.554759 0.557927,0.106701 -0.150792,1.509032 5.262651,0.457282 0.859512,-8.886525 -5.353124,-0.563983 -0.376977,4.450886 -0.648405,-0.04571 0.58809,-5.883702 0.58809,0.04571 -0.135714,0.823106 5.428517,0.533499 0.467455,-5.121565 0.452377,0.07621 -0.01507,0.106701 -1.34205,14.556826 9.33512,1.022159 1.471438,-14.642259 0.421174,0.05928 -0.767708,8.530989 10.1188276,1.013153 -0.07464,0.57125 -2.4310796,-0.247901 -0.586442,5.626251 z"
         id="path73" /><path
         style="fill:#606060;fill-opacity:1;stroke-width:0.522587"
         d="m -34.800845,72.533068 -0.120629,1.265151 0.459913,0.04571 0.120635,-1.219419 z"
         id="path74" /><path
         style="fill:#606060;fill-opacity:1;stroke-width:0.522587"
         d="m -43.901151,86.442081 -17.426641,-1.850934 -0.04262,0.4958 17.444042,1.832303 z"
         id="path75" /><path
         style="fill:#606060;fill-opacity:1;stroke-width:0.522587"
         d="m -64.408892,84.247122 -0.06032,0.426798 -24.036275,-2.408355 -0.271427,2.530298 -0.663488,-0.182912 0.09048,-0.396313 -3.799961,-0.365824 0.09047,-0.518256 3.619012,0.335339 1.809511,-16.706053 0.784118,-0.03047 -1.568242,14.724501 z"
         id="path76" /><path
         style="fill:#606060;fill-opacity:1;stroke-width:0.522587"
         d="m -96.599731,65.987876 -1.57807,16.857193 2.089872,0.129336 -0.04267,0.388017 -5.331311,-0.431127 0.0426,-0.431133 2.516384,0.215566 1.833971,-16.857188 z"
         id="path77" /><path
         style="fill:#606060;fill-opacity:1;stroke-width:0.522587"
         d="m -104.33867,82.204596 -0.0905,0.548736 -5.69994,-0.640194 0.0603,-0.487767 1.89999,0.182912 1.86982,-16.949939 0.42221,0.213396 -1.68887,16.736543 z"
         id="path78" /><path
         style="fill:#606060;fill-opacity:1;stroke-width:0.522587"
         d="m -115.1957,64.279118 -1.26666,12.224688 2.14125,0.243886 -0.15079,0.884075 -0.57301,-0.09145 0.0603,-0.274371 -1.53808,-0.182912 -0.42222,3.810687 1.53808,0.182912 0.12063,-0.853591 0.57301,0.06097 -0.12063,0.853596 1.74919,0.182912 -0.12064,0.335339 -4.67455,-0.396313 0.0302,-0.396308 0.24126,0.03047 1.86983,-16.767027 z"
         id="path79" /><path
         style="fill:#606060;fill-opacity:1;stroke-width:0.522587"
         d="m -124.81625,63.24261 -1.77934,16.767028 5.85073,0.518256 -0.12063,0.548736 -47.26975,-4.687737 0.0427,-0.474243 40.90891,4.018776 1.80197,-16.805135 z"
         id="path80" /><path
         style="fill:#606060;fill-opacity:1;stroke-width:0.522587"
         d="m -181.55948,66.505234 10.76925,1.077826 -0.12795,1.142494 -0.55446,-0.06467 0.0427,-0.668252 -10.53467,-1.034716 z"
         id="path81" /><path
         style="fill:#606060;fill-opacity:1;stroke-width:0.522587"
         d="m -171.89914,71.614126 -0.29856,3.858615 -10.40671,-1.034711 0.10662,0.388017 11.3237,1.207162 0.064,-0.452685 -0.59711,-0.150893 0.38386,-3.772389 z"
         id="path82" /><path
         style="fill:#606060;fill-opacity:1;stroke-width:0.522587"
         d="m -183.15887,79.417582 16.76164,1.595184 v 0.625136 l -1.98325,-0.194009 -0.27723,3.104138 -0.5971,-0.08622 0.31987,-3.03947 -14.35188,-1.444286 z"
         id="path83" /><path
         style="fill:#606060;fill-opacity:1;stroke-width:0.522587"
         d="m -169.61734,87.587502 -0.81036,8.148357 -14.22394,-1.444286 v 0.474243 l 14.20261,1.444286 -0.53313,4.871778 0.46916,0.0647 1.40746,-13.472813 z"
         id="path84" /><path
         style="fill:#606060;fill-opacity:1;stroke-width:0.522587"
         d="m -171.32336,104.12134 -0.81036,6.55318 -14.07466,-1.44429 -0.10662,0.60359 14.18128,1.31494 -0.1706,1.65985 0.49048,0.0647 0.10662,-0.36647 1.72735,0.12934 0.0426,-0.47424 -1.68469,-0.1509 0.85301,-7.80345 z"
         id="path85" /><path
         style="fill:#606060;fill-opacity:1;stroke-width:0.522587"
         d="m -172.56023,115.86964 -0.4265,3.8155 -14.37321,-1.46584 0.0426,0.58202 7.42118,0.71137 -1.38614,13.02013 -2.1965,-0.19401 -0.10662,0.40958 9.23383,1.03471 -4.393,44.62197 0.4265,0.0647 4.92613,-49.5153 -0.5118,-0.0647 -0.44783,4.37597 -6.26962,-0.62514 1.27951,-13.04168 6.3336,0.64669 -0.57579,5.51847 0.53313,0.0647 1.02362,-9.91599 z"
         id="path86" /><path
         style="fill:#606060;fill-opacity:1;stroke-width:0.522587"
         d="m -179.09641,181.53076 -0.38386,3.91251 0.51181,0.0647 0.38385,-3.94484 z"
         id="path87" /><path
         style="fill:#606060;fill-opacity:1;stroke-width:0.522587"
         d="m -188.6315,131.835 2.06585,0.19815 -0.0452,0.39632 -2.18648,-0.18291 z"
         id="path88" /><path
         style="fill:#606060;fill-opacity:1;stroke-width:0.522587"
         d="m -170.64096,182.51158 -0.45849,3.98796 0.56512,0.0323 0.45849,-3.97717 z"
         id="path89" /><path
         style="fill:#606060;fill-opacity:1;stroke-width:0.522587"
         d="m -169.8306,179.32122 -0.45849,-0.0431 2.66566,-28.86417 0.54379,0.0647 -0.21325,2.18798 14.56501,1.51428 -0.0603,0.60971 -14.56652,-1.52427 z"
         id="path90" /><path
         style="fill:#606060;fill-opacity:1;stroke-width:0.522587"
         d="m -151.1144,136.77365 -14.41574,-1.52427 0.15079,-1.73768 -0.54285,-0.061 -1.35713,13.93188 0.48254,0.061 1.29681,-11.52352 14.38558,1.43282 z"
         id="path91" /><path
         style="fill:#606060;fill-opacity:1;stroke-width:0.522587"
         d="m -150.33028,130.03635 -14.47605,-1.49379 0.75396,-7.46894 0.51269,0.0914 0.0905,-0.51825 -0.63332,-0.0915 0.21111,-1.92058 -0.42222,-0.061 -1.29681,11.82838 0.54285,0.0305 0.18095,-1.31088 14.53637,1.4633 z"
         id="path92" /><path
         style="fill:#606060;fill-opacity:1;stroke-width:0.522587"
         d="m -149.42553,122.11013 -11.12847,-1.067 -0.0301,0.4268 11.27925,1.09748 z"
         id="path93" /><path
         style="fill:#606060;fill-opacity:1;stroke-width:0.522587"
         d="m -148.80391,114.23134 -14.37321,-1.3365 0.91699,-9.18307 -0.59711,-0.0431 -0.91699,9.1184 -3.15613,-0.28023 -0.0853,0.4958 3.19879,0.30179 -0.14928,2.15565 0.53314,0.0215 0.23457,-2.02631 14.43719,1.27183 z"
         id="path94" /><path
         style="fill:#606060;fill-opacity:1;stroke-width:0.522587"
         d="m -145.3843,83.088677 -17.97443,-1.707192 -0.0301,0.487772 2.86505,0.304855 -1.93014,18.382758 0.48253,0.0915 2.05078,-18.443734 14.59668,1.463301 z"
         id="path95" /><path
         style="fill:#606060;fill-opacity:1;stroke-width:0.522587"
         d="m -19.402374,83.491763 7.016,0.646694 -0.682403,5.561582 -6.845405,-0.754477 z"
         id="path96" /><path
         style="fill:#606060;fill-opacity:1;stroke-width:0.522587"
         d="m -76.170684,100.64833 3.317432,0.30485 -0.603168,7.10312 -3.377747,-0.36582 z"
         id="path97" /><path
         style="display:inline;fill:#606060;fill-opacity:1;stroke-width:0.264583"
         d="m 108.82792,53.776866 -0.24563,1.934308 0.30704,-0.01535 0.19957,-1.811496 z"
         id="path124"
         transform="matrix(1.9645067,0,0,1.9858117,-217.85503,-31.231975)" /><path
         style="fill:#606060;fill-opacity:1;stroke-width:0.522587"
         d="m -116.30425,86.509675 -0.85301,7.631005 -15.78068,-1.552069 0.21326,-2.069427 -0.46916,-0.04308 -0.4265,2.759231 16.97489,1.595184 0.85301,-8.320813 z"
         id="path125" /><path
         style="fill:#606060;fill-opacity:1;stroke-width:0.522587"
         d="m -132.70336,85.259398 -0.31988,2.155648 0.59711,0.08622 0.27723,-2.155647 z"
         id="path126" /><path
         style="fill:#606060;fill-opacity:1;stroke-width:0.264583"
         d="m 113.32435,51.411848 -0.99219,8.863542 0.29766,0.04961 0.97565,-8.913151 z"
         id="path127"
         transform="matrix(1.8394914,0,0,1.8594407,-195.51781,-18.478298)" /><path
         style="fill:#606060;fill-opacity:1;stroke-width:0.264583"
         d="m 111.45573,68.626301 0.67799,-5.903515 0.26459,0.01654 -0.64493,6.06888 z"
         id="path128"
         transform="matrix(1.8394914,0,0,1.8594407,-195.51781,-18.478298)" /></g><g
       id="g45"
       style="display:inline;fill:#ffffff;fill-opacity:1"
       inkscape:label="hollow walls"
       transform="matrix(0.5382175,0,0,0.5382175,106.3256,9.8651285)"><path
         style="display:inline;fill:#ffffff;fill-opacity:1;stroke-width:0.264583"
         d="m 35.865789,64.78421 v 2.735524 L 52.88684,67.69342 52.756577,56.490787 h -2.996051 v 8.467106 z"
         id="path49"
         transform="matrix(0.89255862,0,0,0.89255862,6.5446277,53.21982)" /><path
         style="fill:#ffffff;fill-opacity:1;stroke-width:0.236156"
         d="m 54.272437,108.7957 0.05813,3.25548 4.10812,-0.0387 -0.03875,-3.19736 z"
         id="path50"
         sodipodi:nodetypes="ccccc" /><path
         style="fill:#ffffff;fill-opacity:1;stroke-width:0.236156"
         d="m 123.56787,102.86604 -0.0388,3.21674 7.32486,-0.0194 0.0194,-3.17798 z"
         id="path51" /><path
         style="fill:#ffffff;fill-opacity:1;stroke-width:0.236156"
         d="m 23.015857,125.88701 3.25549,-0.11627 0.07751,4.80572 -3.333002,0.0388 z"
         id="path52" /><path
         style="display:inline;fill:#ffffff;fill-opacity:1;stroke-width:0.119014"
         d="m 132.9589,87.042252 0.57619,0.0098 -0.01,2.070356 -0.55665,-0.0098 z"
         id="path67"
         sodipodi:nodetypes="ccccc"
         transform="matrix(1.9842571,0,0,1.9842571,-220.11316,-31.072952)" /></g><g
       id="g4"
       inkscape:label="outer walls"
       style="display:inline;fill:#03004c;fill-opacity:1"
       transform="matrix(0.5382175,0,0,0.5382175,106.3256,9.8651285)"><path
         id="path1"
         style="display:inline;fill:#03004c;fill-opacity:1;stroke-width:0.264583"
         transform="matrix(0.89255862,0,0,0.89255862,6.5446276,53.21982)"
         d="m 11.724052,25.879213 -4.3425571,0.08616 1.3900777,1.563561 3.1259514,-0.08731 z m -8.465299,37.656513 14.023312,0.206447 v 51.409897 h 11.897227 l -0.08731,-5.03645 h 8.771276 l -0.08731,-1.30276 h -9.725949 l -0.173472,4.86297 H 18.670994 V 62.265933 l -13.8950331,0.08616 z"
         sodipodi:nodetypes="cccccccccccccccccc" /><path
         style="display:inline;fill:#03004c;fill-opacity:1;stroke-width:0.264583"
         d="m 14.155263,26.226315 v 1.476316 l 21.189474,-0.08684 v -1.302633 z"
         id="path2"
         transform="matrix(0.89255862,0,0,0.89255862,6.5446276,53.21982)" /><path
         style="display:inline;fill:#03004c;fill-opacity:1;stroke-width:0.264583"
         d="m 43.598713,26.404855 0.06141,1.28954 26.89611,0.06141 v 5.219562 l 34.522707,0.111477 -0.17368,-3.213158 7.72895,0.08684 v 3.473685 l 23.36052,0.08684 -0.17368,-1.302631 -21.97105,0.08684 v -3.821051 l -9.9,0.08684 V 31.95789 L 71.644737,31.52368 v -5.036841 c 0,0 -28.046021,0.102232 -28.046021,-0.08199 z"
         id="path3"
         transform="matrix(0.89255862,0,0,0.89255862,6.5446276,53.21982)" /><path
         style="display:inline;fill:#03004c;fill-opacity:1;stroke-width:0.264583"
         d="m 138.86052,32.218421 68.51842,0.260527 0.0868,7.728945 -1.38947,-0.08684 0.17369,-6.339472 -67.56316,-0.173686 z"
         id="path4"
         transform="matrix(0.89255862,0,0,0.89255862,6.5446276,53.21982)" /><path
         style="display:inline;fill:#03004c;fill-opacity:1;stroke-width:0.264583"
         d="m 206.25,42.639472 h 0.95526 V 52.88684 L 205.98947,52.8 Z"
         id="path5"
         transform="matrix(0.89255862,0,0,0.89255862,6.5446276,53.21982)" /><path
         style="display:inline;fill:#03004c;fill-opacity:1;stroke-width:0.264583"
         d="m 206.07631,55.318419 h 1.38947 l 0.0868,6.339474 h -1.56316 z"
         id="path6"
         transform="matrix(0.89255862,0,0,0.89255862,6.5446276,53.21982)" /><path
         style="display:inline;fill:#03004c;fill-opacity:1;stroke-width:0.264583"
         d="m 206.33684,64.523683 h 1.21579 l -0.17369,12.071053 -3.73421,-0.260527 v -1.128948 h 2.51842 z"
         id="path7"
         transform="matrix(0.89255862,0,0,0.89255862,6.5446276,53.21982)" /><path
         style="display:inline;fill:#03004c;fill-opacity:1;stroke-width:0.264583"
         d="m 201.3,75.031578 v 1.389472 l -62.61316,-0.173683 0.11937,-7.305592 -1.82368,-0.02171 0.0108,-1.313487 3.07203,0.03257 -0.16282,7.479275 z"
         id="path8"
         sodipodi:nodetypes="ccccccccc"
         transform="matrix(0.89255862,0,0,0.89255862,6.5446276,53.21982)" /><path
         style="display:inline;fill:#03004c;fill-opacity:1;stroke-width:0.264583"
         d="m 39.914316,108.93538 v 1.22813 L 53.792217,110.0407 V 97.145304 l 16.334166,0.122815 0.122814,14.614781 h 17.316672 l -0.122814,-1.22813 H 71.477329 l -0.245625,-14.860412 -18.913248,0.122814 0.245629,13.141018 z"
         id="path9"
         transform="matrix(0.89255862,0,0,0.89255862,6.5446276,53.21982)" /><path
         style="display:inline;fill:#03004c;fill-opacity:1;stroke-width:0.264583"
         d="m 89.881577,110.72368 0.173683,1.38947 23.96842,-0.0868 -0.17368,-43.07372 23.30624,-0.03257 -0.0109,-1.313486 -24.42434,0.04342 v 43.160516 z"
         id="path10"
         sodipodi:nodetypes="ccccccccc"
         transform="matrix(0.89255862,0,0,0.89255862,6.5446276,53.21982)" /><path
         style="fill:#03004c;fill-opacity:1;stroke-width:0.525001"
         d="m 9.5025574,108.85607 -3.4228075,34.37249 -40.0265969,-4.12756 0.167544,-1.56877 -79.108887,-8.13326 4.67587,-42.463526 -11.3646,-1.10204 -0.0969,0.958516 10.25068,1.042143 -4.715,42.575607 79.018554,8.03641 -0.152308,1.69062 42.37214,4.29509 3.705184,-35.55275 z"
         id="path56"
         sodipodi:nodetypes="ccccccccccccccc" /><path
         style="fill:#03004c;fill-opacity:1;stroke-width:0.525001"
         d="m -122.72729,85.564671 -0.15231,1.370773 -23.21177,-2.589238 -3.22894,29.395484 2.34555,0.27415 -0.27416,3.32032 -1.12708,-0.12185 0.0914,-1.98 -2.31508,-0.33508 3.50308,-31.801955 z"
         id="path57" /><path
         style="fill:#03004c;fill-opacity:1;stroke-width:0.525001"
         d="m -148.70928,120.31835 -0.17101,1.98143 -2.36935,-0.2154 -6.66783,65.62072 -37.5903,-4.11487 6.62708,-65.43661 -1.12006,-0.12923 0.79696,-7.94813 1.22776,0.0862 3.23095,-31.017072 -1.07699,-0.08616 -3.08016,29.940092 -1.29238,-0.12924 -0.94774,10.08055 1.09852,0.1077 -6.73571,65.41532 39.95044,4.26464 6.50356,-65.43161 2.39124,0.22847 0.31984,-3.0614 z"
         id="path58"
         sodipodi:nodetypes="ccccccccccccccccccccc" /><path
         style="display:inline;fill:#03004c;fill-opacity:1;stroke-width:0.264583"
         d="m 118.18236,54.189473 -16.31657,-1.563158 0.0434,-0.781579 -5.948686,-0.564473 -0.130262,0.825 -77.289473,-8.076316 -1.042105,9.335526 0.607895,0.08684 0.911842,-8.68421 77.388602,7.887702 0.07661,-0.74305 4.760727,0.474468 -0.0893,0.801363 16.99423,1.679511 z"
         id="path54"
         sodipodi:nodetypes="ccccccccccccccc"
         transform="matrix(1.9842571,0,0,1.9842571,-220.11316,-31.072952)" /></g><path
       style="fill:#ffffff;fill-opacity:1;stroke-width:0.264583"
       d="m 95.725085,54.781899 3.89963,0.40341 -0.339098,3.022653 -3.841165,-0.432644 z"
       id="path129" /><path
       style="fill:#ffffff;fill-opacity:1;stroke-width:0.264583"
       d="m 64.516991,67.79121 1.843815,0.148828 0.355534,-3.745508 -1.794205,-0.190169 z"
       id="path130" /></g><g
     inkscape:groupmode="layer"
     id="layer3"
     inkscape:label="Rooms"
     style="display:inline"
     transform="matrix(1.0114812,0,0,1,-0.03178661,0)"><path
   style="fill:#e6e6e6;fill-opacity:1;stroke-width:0.12638"
   d="m 134.18055,70.722067 7.67023,0.08849 0.11666,7.079802 -7.8452,-0.059 z"
   id="135э"
   inkscape:label="135э" />
    <path
   style="fill:#e6e6e6;fill-opacity:1;stroke-width:0.12638"
   d="m 134.12224,78.568847 7.7577,0.059 v 5.75234 l -7.58274,-0.05899 z"
   id="135н"
   inkscape:label="135н" />
    <path
   style="fill:#e6e6e6;fill-opacity:1;stroke-width:0.12638"
   d="m 154.56643,74.350465 7.37857,0.02949 v 12.448654 l -3.03309,-0.02949 0.0291,4.719866 h -4.43298 z"
   id="ЛГ"
   inkscape:label="ЛГ" />
    <path
   style="fill:#e6e6e6;fill-opacity:1;stroke-width:0.12638"
   d="m 153.83732,65.235219 -5.39541,-0.08849 0.0463,11.02763 -3.13766,-0.02445 0.0583,2.064942 2.9456,-0.02949 v 0.737479 l -3.00394,-0.02949 0.0583,5.04436 2.30397,-0.05901 v -1.386456 h 0.67078 l -0.11665,9.085751 h 5.59956 z"
   id="ТП-6"
   sodipodi:nodetypes="ccccccccccccccc"
   inkscape:label="ТП-6" />
    <path
   style="fill:#e6e6e6;fill-opacity:1;stroke-width:0.12638"
   d="m 154.47893,65.264718 1.77904,0.02949 0.0291,8.318768 -1.77903,-0.02949 z"
   id="Серверная"
   inkscape:label="Серверная" />
    <path
   style="fill:#e6e6e6;fill-opacity:1;stroke-width:0.12638"
   d="m 158.70354,65.25029 3.38206,0.04171 -0.0206,2.774255 -1.64977,-0.02086 0.0206,-1.668726 h -1.77352 z"
   id="1Туалет"
   inkscape:label="1Туалет" />
    <path
   style="fill:#e6e6e6;fill-opacity:1;stroke-width:0.12638"
   d="m 156.84753,65.292009 1.17548,-0.02086 v 1.793881 l 1.856,-0.02086 -0.0413,2.982847 0.57742,-0.06259 v -1.376699 h 1.67042 l -0.0824,5.110471 -5.07308,-0.02086 z"
   id="path53"
   inkscape:label="1Туалет" />
    <path
   style="fill:#e6e6e6;fill-opacity:1;stroke-width:0.12638"
   d="m 162.61579,65.323717 0.0291,5.590094 h 7.87436 l -0.0583,-5.545844 z"
   id="Эко"
   inkscape:label="Эко" />
    <path
   style="fill:#e6e6e6;fill-opacity:1;stroke-width:0.12638"
   d="m 123.56314,51.963065 0.0413,6.966928 -11.36643,-0.151075 0.80073,-6.794994 z"
   id="ТП-8"
   sodipodi:nodetypes="ccccc"
   inkscape:label="ТП-8" />
    <path
   style="fill:#e6e6e6;fill-opacity:1;stroke-width:0.12638"
   d="m 130.57472,52.004784 0.0413,1.230682 -1.71166,0.06259 0.0413,4.046659 h 1.52606 l 0.0206,2.419653 11.5627,0.07251 -0.0874,-1.533957 h -2.68312 l -0.0583,-6.312824 z"
   id="ТП-7"
   inkscape:label="ТП-7" />
    <path
   style="fill:#e6e6e6;fill-opacity:1;stroke-width:0.12638"
   d="m 142.66738,54.468021 -0.0292,5.634342 15.25296,0.265493 v -5.811339 z"
   id="ТП-5б"
   inkscape:label="ТП-5б" />
    <path
   style="fill:#e6e6e6;fill-opacity:1;stroke-width:0.12638"
   d="m 162.61579,54.718762 0.0291,5.722841 9.82838,0.01475 0.0291,-5.663842 z"
   id="ТП-5а"
   inkscape:label="ТП-5а" />
    <path
   style="fill:#e6e6e6;fill-opacity:1;stroke-width:0.12638"
   d="m 175.40761,54.904194 -0.12375,5.506793 31.18093,0.08344 -0.0413,-3.254015 -3.75327,-0.04171 V 54.9042 Z"
   id="ТП-4"
   inkscape:label="ТП-4" />
    <path
   style="fill:#e6e6e6;fill-opacity:1;stroke-width:0.12638"
   d="m 206.25856,61.161913 0.0414,5.131331 -3.58828,-0.04171 v 8.176755 l -25.44791,-0.04171 -0.0412,-4.380403 -2.02098,0.04171 v -1.91904 l 4.33068,-0.04171 0.0412,-7.008647 z"
   id="ТП-5"
   inkscape:label="ТП-5" /><g
   id="pano_hall_1"
   class="panorama-point"
   transform="matrix(0.08372118,0,0,0.08468241,84.664288,40.599745)"
   style="display:inline"
   inkscape:label="pano_hall_1-1">
    <circle
   cx="500"
   cy="300"
   r="12"
   fill="#1d4ed8"
   id="circle1"
   style="fill:#03004c;fill-opacity:1" />
    <text
   x="500.03314"
   y="303.45728"
   text-anchor="middle"
   fill="#ffffff"
   font-size="9.75619px"
   id="text1"
   style="stroke-width:0.696871">360</text>
    </g><g
   id="pano_hall_2"
   class="panorama-point"
   transform="matrix(0.07684709,0,0,0.07772937,115.59966,39.450663)"
   style="display:inline"
   inkscape:label="pano_hall_1-2">
    <circle
   cx="500"
   cy="300"
   r="12"
   fill="#1d4ed8"
   id="circle1-2"
   style="fill:#03004c;fill-opacity:1" />
    <text
   x="500.03314"
   y="303.45728"
   text-anchor="middle"
   fill="#ffffff"
   font-size="9.75619px"
   id="text1-4"
   style="stroke-width:0.696871">360</text>
    </g><g
   id="g126"
   transform="matrix(0.98864913,0,0,1,0.0314258,0)"
   inkscape:label="left"><path
     style="fill:#e6e6e6;fill-opacity:1;stroke-width:0.282565"
     d="m 111.11437,67.672736 -4.88571,-0.426272 0.42627,-3.770846 -6.26288,-0.68859 -0.688599,6.951475 -4.820118,-0.590219 -0.983703,10.820691 1.11486,0.163949 -0.49185,4.951286 14.78828,1.541132 z"
     id="path99" /><path
     style="fill:#e6e6e6;fill-opacity:1;stroke-width:0.282565"
     d="m 90.50587,61.688565 -0.426272,4.475832 4.197117,0.39348 0.409879,-4.410253 z"
     id="path100" /><path
     style="fill:#e6e6e6;fill-opacity:1;stroke-width:0.282565"
     d="m 95.555529,62.262389 -0.606623,5.967776 3.852822,0.475453 0.623017,-6.033355 z"
     id="path101" /><path
     style="fill:#e6e6e6;fill-opacity:1;stroke-width:0.282565"
     d="m 94.161952,67.344836 -0.409875,5.508716 -4.213512,-0.541034 0.55743,-5.377556 z"
     id="path102" /><path
     style="fill:#e6e6e6;fill-opacity:1;stroke-width:0.282565"
     d="m 93.604521,73.558535 -4.180723,-0.491849 -0.524637,6.27928 4.065956,0.409876 z"
     id="path103" /><path
     style="fill:#e6e6e6;fill-opacity:1;stroke-width:0.282565"
     d="m 88.981135,66.885775 -1.541128,16.558938 -14.362009,-1.508337 0.819749,-7.541695 -9.541884,-0.85254 0.459061,-4.918498 2.065767,0.163949 0.459061,-4.229905 7.279374,0.688591 -0.426271,3.705265 5.967776,0.62301 0.459061,-3.606895 z"
     id="path104" /><path
     style="fill:#e6e6e6;fill-opacity:1;stroke-width:0.282565"
     d="m 62.322885,80.887095 -11.509281,-1.049278 1.016488,-9.869784 4.918497,0.49185 0.85254,-6.951475 6.623574,0.655798 z"
     id="path105" /><path
     style="fill:#e6e6e6;fill-opacity:1;stroke-width:0.282565"
     d="m 48.255984,57.343892 8.754924,0.983699 -0.459057,4.262698 -8.754924,-0.918118 z"
     id="path106" /><path
     style="fill:#e6e6e6;fill-opacity:1;stroke-width:0.282565"
     d="m 54.059812,45.965772 4.197117,0.39348 -0.88533,8.328653 -4.098748,-0.491851 z"
     id="path107" /><path
     style="fill:#e6e6e6;fill-opacity:1;stroke-width:0.282565"
     d="m 48.944576,45.375553 4.229906,0.36069 -0.819749,8.394234 -4.197117,-0.524641 z"
     id="path108" /><path
     style="fill:#e6e6e6;fill-opacity:1;stroke-width:0.282565"
     d="m 43.92771,44.850912 4.164324,0.39348 -0.819748,8.361444 -3.082258,-0.295112 0.3279,-2.360877 -1.27881,-0.196738 z"
     id="path109" /><path
     style="fill:#e6e6e6;fill-opacity:1;stroke-width:0.282565"
     d="m 38.726967,44.335839 4.35897,0.370976 -0.950627,8.532455 -4.358971,-0.510093 z"
     id="path110" /><path
     style="fill:#e6e6e6;fill-opacity:1;stroke-width:0.282565"
     d="M 8.4817456,41.276806 37.697614,44.129532 36.943445,52.687717 13.203502,50.359629 13.728141,45.965772 7.8587359,45.441131 Z"
     id="path111" /><path
     style="fill:#e6e6e6;fill-opacity:1;stroke-width:0.282565"
     d="m 7.1244288,53.308829 6.9789902,0.649206 -0.626023,7.164479 -7.0717333,-0.741953 z"
     id="path112" /><path
     style="fill:#e6e6e6;fill-opacity:1;stroke-width:0.282565"
     d="m 19.644875,54.444943 7.094923,0.672395 -1.669394,15.975162 -7.28041,-0.64921 z"
     id="path113" /><path
     style="fill:#e6e6e6;fill-opacity:1;stroke-width:0.282565"
     d="M 13.291909,61.910839 6.2665457,61.308001 5.5245942,68.518852 12.526771,69.23762 Z"
     id="path114" /><path
     style="fill:#e6e6e6;fill-opacity:1;stroke-width:0.282565"
     d="m 17.256716,75.358727 7.349968,0.672395 -0.394163,3.547459 -7.303594,-0.765139 z"
     id="path115" /><path
     style="fill:#e6e6e6;fill-opacity:1;stroke-width:0.282565"
     d="m 16.885741,79.740883 7.303594,0.626022 -0.324605,2.875067 -7.234034,-0.64921 z"
     id="path116" /><path
     style="fill:#e6e6e6;fill-opacity:1;stroke-width:0.282565"
     d="m 16.537949,83.334716 7.210851,0.695578 -0.857881,8.532455 -7.373153,-0.788326 z"
     id="path117" /><path
     style="fill:#e6e6e6;fill-opacity:1;stroke-width:0.282565"
     d="M 11.947119,74.732704 8.9097525,74.454472 8.2837296,81.062487 11.321097,81.317532 Z"
     id="path118" /><path
     style="fill:#e6e6e6;fill-opacity:1;stroke-width:0.282565"
     d="M 4.2261768,81.526206 11.228353,82.221785 8.3532877,109.21031 1.4438552,108.3756 Z"
     id="path119" /><path
     style="fill:#e6e6e6;fill-opacity:1;stroke-width:0.282565"
     d="m 15.540952,92.748235 7.187664,0.695582 -1.715765,17.157643 -7.002177,-0.88107 z"
     id="path120" /><path
     style="fill:#e6e6e6;fill-opacity:1;stroke-width:0.282565"
     d="m 73.701005,60.032669 15.968718,1.70508 -0.524638,4.295486 -15.870348,-1.770656 z"
     id="path121" /><path
     style="fill:#e6e6e6;fill-opacity:1;stroke-width:0.282565"
     d="m 59.338997,46.523202 -0.786961,7.049845 27.641949,2.951097 0.754171,-7.213796 z"
     id="path122" /><path
     style="fill:#e6e6e6;fill-opacity:1;stroke-width:0.282565"
     d="m 96.39058,50.225088 -0.370978,4.057552 7.280418,0.718767 0.46371,-4.080737 z"
     id="path123" /></g></g></svg>
