<?xml version="1.0" encoding="UTF-8" standalone="no"?>
<!-- Created with Inkscape (http://www.inkscape.org/) -->

<svg
   width="210mm"
   height="150mm"
   viewBox="0 0 210 150"
   version="1.1"
   id="svg1"
   xml:space="preserve"
   inkscape:version="1.4.3 (0d15f75, 2025-12-25)"
   sodipodi:docname="1.svg"
   xmlns:inkscape="http://www.inkscape.org/namespaces/inkscape"
   xmlns:sodipodi="http://sodipodi.sourceforge.net/DTD/sodipodi-0.dtd"
   xmlns="http://www.w3.org/2000/svg"
   xmlns:svg="http://www.w3.org/2000/svg"><sodipodi:namedview
     id="namedview1"
     pagecolor="#505050"
     bordercolor="#eeeeee"
     borderopacity="1"
     inkscape:showpageshadow="0"
     inkscape:pageopacity="0"
     inkscape:pagecheckerboard="0"
     inkscape:deskcolor="#505050"
     inkscape:document-units="mm"
     inkscape:zoom="1.0771772"
     inkscape:cx="300.78617"
     inkscape:cy="290.11011"
     inkscape:window-width="1920"
     inkscape:window-height="1057"
     inkscape:window-x="-8"
     inkscape:window-y="-8"
     inkscape:window-maximized="1"
     inkscape:current-layer="layer2" /><defs
     id="defs1" /><path
     style="display:inline;fill:#ffffff;fill-opacity:1;stroke-width:0.264583"
     d="M 8.0763157,27.007894 3.9947368,63.13421 17.889473,62.960524 l -0.08684,51.757896 10.942104,-0.0868 -0.260524,-5.12369 24.836842,0.0868 0.08684,-13.026312 17.281578,0.173685 0.260527,14.849997 42.46579,-0.17368 -0.0868,-43.073686 26.13948,0.08684 -0.0868,7.381579 67.56316,-0.08684 L 206.85789,33 l -93.62405,0.03677 -0.12281,-4.052838 -8.84255,0.245626 v 3.561586 L 70.863263,32.54552 70.986075,27.141736 Z"
     id="path11"
     inkscape:label="background" /><g
     inkscape:groupmode="layer"
     id="layer2"
     inkscape:label="walls"
     style="display:inline"><g
       id="g48"
       inkscape:label="inner walls"
       style="display:inline;fill:#606060;fill-opacity:1"
       transform="matrix(1.1316384,0,0,1.1194975,-7.4085185,-59.475364)"><path
         style="display:inline;fill:#606060;fill-opacity:1;stroke-width:0.264583"
         d="m 31.871052,27.442104 0.08684,15.371053 H 14.198684 v 0.738159 c 0,0 18.497368,0.130262 18.497368,-0.04342 0,-0.173686 -0.130263,-13.200002 -0.130263,-13.200002 h 2.822369 l -0.04342,-0.781579 -2.778948,0.08684 0.04342,-2.301316 z"
         id="path12"
         transform="matrix(0.88367451,0,0,0.89325792,6.5467189,53.126839)" /><path
         style="display:inline;fill:#606060;fill-opacity:1;stroke-width:0.264583"
         d="m 6.2960524,42.682895 h 5.7315786 l -0.04342,0.825 -5.7749996,0.04342 z"
         id="path13"
         transform="matrix(0.88367451,0,0,0.89325792,6.5467189,53.126839)" /><path
         style="display:inline;fill:#606060;fill-opacity:1;stroke-width:0.264583"
         d="m 45.201316,27.485525 v 2.171054 l -7.728948,0.08684 -0.04342,0.564472 4.428945,0.04342 -0.08684,10.073685 3.386844,-0.130262 -0.04342,4.906579 16.369739,0.04342 v -0.564472 h -15.84869 v -5.167103 l -3.169737,0.04342 -0.173684,-9.161843 3.69079,-0.130262 -0.04342,-2.822369 z"
         id="path14"
         transform="matrix(0.88367451,0,0,0.89325792,6.5467189,53.126839)" /><path
         style="display:inline;fill:#606060;fill-opacity:1;stroke-width:0.264583"
         d="m 64.845411,27.510173 0.184221,13.263835 h 1.535166 v -0.552659 l -0.9211,-0.06141 V 27.510173 Z"
         id="path15"
         transform="matrix(0.88367451,0,0,0.89325792,6.5467189,53.126839)" /><path
         style="display:inline;fill:#606060;fill-opacity:1;stroke-width:0.264583"
         d="m 70.679042,32.484113 -0.06141,7.553017 -1.780792,0.06141 0.184219,0.73688 1.535168,-0.122814 v 1.228135 h 0.675474 V 32.42271 Z"
         id="path16"
         transform="matrix(0.88367451,0,0,0.89325792,6.5467189,53.126839)" /><path
         style="fill:#606060;fill-opacity:1;stroke-width:0.23507"
         d="m 62.763688,93.00422 6.728673,0.05485 -0.108528,0.658224 23.984461,0.164555 -0.108528,0.767929 -24.472831,-0.493669 0.05426,-0.658222 -6.023248,0.05485 z"
         id="path17" /><path
         style="fill:#606060;fill-opacity:1;stroke-width:0.23507"
         d="m 98.596534,82.449205 v 11.597074 h -3.261456 l -0.03837,0.465433 6.407802,0.07757 -0.0384,-0.659366 -2.494053,0.03879 0.03837,-4.033765 h 3.952113 v -0.62058 l -3.952113,-0.03879 v -6.865157 z"
         id="path18" /><path
         style="fill:#606060;fill-opacity:1;stroke-width:0.23507"
         d="m 106.0787,82.837066 0.0767,11.209213 -2.37895,0.03879 v 0.543008 h 2.30221 v 2.986536 l 0.61392,-0.07757 v -2.908965 h 19.91407 V 94.20143 h -0.3837 v -3.180469 l -0.53718,-0.03879 v 3.180466 l -18.87808,-0.07757 -0.15348,-11.20921 z"
         id="path19" /><path
         style="fill:#606060;fill-opacity:1;stroke-width:0.23507"
         d="m 125.76359,82.55492 -0.0271,6.280551 0.56977,0.05485 -0.0543,-6.582239 z"
         id="path20" /><path
         style="fill:#606060;fill-opacity:1;stroke-width:0.23507"
         d="m 129.64343,82.993737 0.0543,5.869159 h 0.51551 l 0.0271,-6.006289 z"
         id="path21" /><path
         style="fill:#606060;fill-opacity:1;stroke-width:0.23507"
         d="m 11.342979,100.446 13.045826,-0.0388 v 0.69815 l -13.276047,-0.11636 z"
         id="path22" /><path
         style="fill:#606060;fill-opacity:1;stroke-width:0.23507"
         d="m 25.348057,104.51855 -12.431905,0.0776 0.03837,0.50422 h 12.508645 z"
         id="path23" /><path
         style="fill:#606060;fill-opacity:1;stroke-width:0.23507"
         d="m 27.535151,104.51855 v 0.58179 l 0.498811,0.0776 0.03837,8.26146 -5.41018,-0.0388 0.07674,0.62058 2.609165,-0.0388 0.07674,3.49075 h 0.460441 l 0.03837,-3.60711 1.381323,-0.0388 0.15348,3.68469 0.306961,-0.0388 0.07674,-3.68469 0.729031,0.0388 -0.03837,3.6459 0.575551,-0.0776 v -3.52954 h 4.220708 v 5.27492 l 7.904237,-0.0776 -0.07674,-0.65937 -7.405426,0.0388 v -1.66781 l 0.460443,0.0388 v -0.46544 l -0.460443,0.0388 v -2.13324 l 0.383701,-0.0776 -0.03837,-0.27151 -0.345331,-0.0388 v -0.81451 h -0.46044 l 0.03837,0.42664 -4.796259,-0.0776 v -8.80447 z"
         id="path24" /><path
         style="fill:#606060;fill-opacity:1;stroke-width:0.23507"
         d="m 50.096758,103.12225 -0.07674,7.44695 -16.690984,0.0388 0.03837,0.50422 h 4.297449 l 0.07674,2.32717 -1.688282,0.0388 v 0.42665 l 11.088951,0.11636 -0.07674,5.23614 0.882513,0.0776 0.03837,-5.27492 2.494055,-0.0388 -0.03837,5.27492 0.767402,-0.0388 -0.03837,-5.23614 h 1.995243 l -0.07674,9.77412 -6.791504,0.0388 0.03837,2.87018 0.42207,-0.0388 v -2.28838 h 6.446173 v 5.15856 l -6.407801,-0.15514 -0.07674,-0.50422 -0.42207,-0.0776 v 1.62902 l 0.498812,0.0388 0.03837,-0.54301 6.369431,0.0776 -0.03837,5.43006 -6.331062,-0.11636 v -2.63746 h -0.498812 l -0.03837,5.50764 H 45.64583 l 0.03837,0.5818 h 0.652292 l -0.03837,0.58179 3.606787,0.0776 -0.07674,-0.69815 -2.954495,0.0776 -0.115112,-2.90896 6.407804,0.19393 0.07674,3.10289 0.460443,-0.0776 v -11.98493 l 15.73173,0.19393 0.07674,-0.65937 h -15.80847 v -14.15696 l 15.23292,0.0776 0.03837,11.59708 0.49881,0.0776 0.115112,-1.62902 4.515998,0.10228 -0.05426,1.53585 0.596896,0.0274 -0.05426,-1.56328 2.03488,0.0823 -0.02713,-0.60338 -7.027121,-0.0823 -0.108528,-13.02735 10.310063,0.13713 0.02713,12.99992 H 78.82568 l 0.05426,0.65822 1.57364,-0.0549 -0.217054,-17.16867 -0.651162,-0.1097 v 3.18141 l -9.984481,-0.2194 V 102.2742 H 79.74816 v 1.04219 h 0.48837 l 0.108526,-1.04219 5.806194,0.10971 -0.05426,-0.60337 H 69.492361 l -0.05426,-0.54852 -10.58138,-0.10971 -0.05426,0.32911 9.930218,0.0549 0.108528,10.47672 H 58.314083 v -3.18141 l 3.527125,0.0549 -0.05426,-1.59071 H 61.19005 l 0.108525,1.04219 -7.542623,-0.10971 0.05426,-4.443 7.759676,-0.0549 0.108528,-0.60337 z"
         id="path25" /><path
         style="fill:#606060;fill-opacity:1;stroke-width:0.23507"
         d="m 35.903264,116.31631 h 5.860456 v 0.60337 l -5.806192,0.0549 z"
         id="path26" /><path
         style="fill:#606060;fill-opacity:1;stroke-width:0.23507"
         d="m 22.7715,120.26565 2.00775,-0.0274 -0.02713,0.54852 -1.899222,0.0274 z"
         id="path27" /><path
         style="fill:#606060;fill-opacity:1;stroke-width:0.23507"
         d="m 22.690105,122.51458 2.089145,-0.0274 -0.02713,0.5211 -1.899222,0.1097 z"
         id="path28" /><path
         style="fill:#606060;fill-opacity:1;stroke-width:0.23507"
         d="m 26.108705,119.82683 h 2.930228 l 0.02713,1.56328 -0.569767,-0.0549 0.05426,-0.93248 -2.007749,-0.0549 v 4.8544 h 1.926353 v -1.70042 l 0.542635,0.0549 0.02713,1.67298 h 1.031007 l 0.05426,0.46624 h -1.112403 l 0.02713,1.61814 -0.488371,-0.0274 -0.02713,-1.61813 -1.953485,0.0274 -0.02713,4.90926 1.87209,-0.0274 v -1.09704 l 0.569767,-0.0274 0.08139,6.39026 h -0.515503 l -0.162791,-4.68985 -5.724797,-0.0549 v -0.49366 l 3.445731,-0.0274 -0.05426,-4.90925 -3.201545,0.0274 -0.02713,-0.49366 3.228677,-0.0549 z"
         id="path29" /><path
         style="fill:#606060;fill-opacity:1;stroke-width:0.23507"
         d="m 31.833502,125.1749 v 0.65822 h 0.379845 l -0.08139,6.66452 0.434106,-0.0274 v -1.3713 h 5.643402 l 0.02713,4.08647 -5.616272,0.0274 0.02713,-0.49367 h -0.488371 l -0.05426,0.93249 11.503859,0.1097 -0.05426,-10.06534 0.949611,-0.0274 -0.0814,-0.46624 h -1.817826 l -0.02713,0.60337 h 0.434109 l 0.05426,9.37968 -4.259685,-0.0823 -0.0814,-9.35227 1.926355,-0.0274 -0.02713,-0.6308 -5.236426,0.13713 -0.05426,0.46624 2.8217,0.0274 0.02713,4.8544 -5.453482,-0.0274 -0.05426,-4.71727 h 0.786819 l -0.08139,-0.71307 z"
         id="path30" /><path
         style="fill:#606060;fill-opacity:1;stroke-width:0.23507"
         d="m 34.193963,138.01026 -0.05426,0.52109 -5.100766,0.0549 0.0814,11.73832 2.387593,0.0548 0.135659,0.24683 -0.271318,0.16456 h -8.546498 v -0.43882 l 5.779061,-0.0548 -0.05426,-12.23199 z"
         id="path31" /><path
         style="fill:#606060;fill-opacity:1;stroke-width:0.23507"
         d="m 36.093187,138.17482 -0.02713,0.43881 1.329455,0.0548 -0.02713,11.8206 0.624029,0.10971 -0.0814,-11.95773 1.953485,0.0548 v -0.65822 z"
         id="path32" /><path
         style="fill:#606060;fill-opacity:1;stroke-width:0.23507"
         d="m 41.845114,138.11997 -0.05426,0.52109 1.031005,0.0274 0.0814,7.37759 1.546509,0.0549 v 2.19409 h -1.763563 l 0.05426,2.71517 0.569766,-0.0548 -0.05426,-2.08438 1.600773,-0.0548 -0.02713,-5.4852 3.364336,-0.1097 -0.0814,-1.12447 h -0.596899 v 0.6308 l -2.740306,-0.0548 0.05426,-1.42615 -1.465114,-0.0823 v -2.41349 l 0.542634,0.0274 0.05426,-0.71308 z"
         id="path33" /><path
         style="fill:#606060;fill-opacity:1;stroke-width:0.23507"
         d="m 68.821356,129.84594 0.191849,9.03718 h 0.34533 l 0.15348,-9.03718 z"
         id="path34" /><path
         style="fill:#606060;fill-opacity:1;stroke-width:0.23507"
         d="m 80.063788,127.13091 -5.525293,0.11635 -0.07674,-0.69815 h -0.49881 l 0.15348,11.40315 h -4.911369 l -0.07674,0.38786 10.513403,0.11636 0.03837,8.18388 0.53718,-0.0776 -0.153479,-11.40314 h -0.345331 l -0.03837,2.71503 -5.141592,0.0388 -0.07674,-10.1232 5.678773,0.0776 z"
         id="path35" /><path
         style="fill:#606060;fill-opacity:1;stroke-width:0.23507"
         d="m 79.488236,148.81239 0.115109,3.29683 h 0.498813 l -0.07674,-3.33561 z"
         id="path36" /><path
         style="fill:#606060;fill-opacity:1;stroke-width:0.23507"
         d="m 91.037629,149.00632 0.03837,3.49076 h 0.537182 l -0.07674,-3.52954 z"
         id="path37" /><path
         style="fill:#606060;fill-opacity:1;stroke-width:0.23507"
         d="m 100.59178,152.30315 -0.11511,-5.31371 h 0.53718 v 5.70157 z"
         id="path38" /><path
         style="fill:#606060;fill-opacity:1;stroke-width:0.23507"
         d="m 106.34729,143.18839 -5.94736,0.0388 0.0384,1.31873 0.46044,-0.0776 0.0384,-0.73694 h 5.48692 z"
         id="path39" /><path
         style="fill:#606060;fill-opacity:1;stroke-width:0.23507"
         d="m 91.075999,146.52401 0.345331,0.0388 0.191851,-27.18912 14.772479,0.0388 -0.0767,-0.58179 -10.244811,0.0776 -0.07674,-16.25141 0.42207,-0.0388 v -0.62058 h -1.956873 l 0.07674,0.54301 0.92088,0.0776 0.03837,16.21263 -3.875376,-0.0776 -0.07674,-16.17385 h 0.844143 v -0.69815 l -4.220709,0.0388 0.03837,0.69815 2.877756,-0.0776 z"
         id="path40" /><path
         style="fill:#606060;fill-opacity:1;stroke-width:0.23507"
         d="m 98.366313,101.95866 5.525297,0.15515 -0.0384,0.54301 -4.412565,-0.0388 -0.03837,2.5211 3.261455,0.0388 v 3.10289 l 3.53005,-0.0776 0.0384,-8.222674 0.49881,0.03878 v 2.21082 h 1.95687 v 0.50422 l -1.99524,-0.0388 0.11511,11.40314 h -0.53718 l -0.0767,-5.27492 -3.53005,-0.0388 v 2.55988 h -0.57555 v -5.35249 l -3.414937,-0.0388 0.03837,-3.33561 -0.383701,-0.0388 z"
         id="path41" /><path
         style="fill:#606060;fill-opacity:1;stroke-width:0.23507"
         d="m 110.72148,102.23017 19.03156,-0.0388 -0.0767,-2.17203 0.57555,0.0388 v 2.09445 l 0.65229,0.0388 v 0.62058 l -0.69066,-0.0388 -0.0384,11.28679 -0.61392,-0.15515 v -7.2918 h -7.17521 l 0.0767,7.21423 -0.57555,0.0776 -0.0767,-11.09285 -11.08895,-0.0388 z"
         id="path42" /><path
         style="fill:#606060;fill-opacity:1;stroke-width:0.23507"
         d="m 128.72095,94.238389 0.92248,-0.02743 0.0543,-3.153986 h 0.54264 l -0.0814,3.126561 58.68403,0.09546 -0.0384,0.659365 -50.66769,-0.252112 -0.0767,13.323063 -4.75789,-0.0194 0.0192,-5.81793 h 0.42207 l 0.0576,5.25553 3.5876,-0.097 0.15348,-12.663696 -7.38624,0.09697 0.0384,2.928357 -0.55636,-0.0194 -0.0192,-2.947751 -0.89779,0.007 z"
         id="path43" /><path
         style="fill:#606060;fill-opacity:1;stroke-width:0.23507"
         d="m 188.72785,105.06156 -6.82988,-0.11636 0.19185,15.63084 0.49881,0.0776 -0.0384,-15.08783 h 6.36944 z"
         id="path44" /><path
         style="fill:#606060;fill-opacity:1;stroke-width:0.23507"
         d="m 181.97471,83.186142 -0.0384,4.305269 0.53718,0.07757 0.0384,-4.460413 z"
         id="path45" /><path
         style="fill:#606060;fill-opacity:1;stroke-width:0.23507"
         d="m 185.04432,83.030999 0.11514,4.460411 0.57555,-0.03878 3e-5,-4.421627 z"
         id="path46"
         sodipodi:nodetypes="ccccc" /><path
         style="fill:#606060;fill-opacity:1;stroke-width:0.23507"
         d="m 188.99644,87.142335 -0.99762,-0.116358 -0.0384,0.465434 h 1.03599 z"
         id="path47" /><path
         style="fill:#606060;fill-opacity:1;stroke-width:0.23507"
         d="m 133.35982,112.00429 0.0767,8.88204 0.49881,0.0388 0.0384,-8.88205 z"
         id="path48" /></g><g
       id="g45"
       style="display:inline;fill:#ffffff;fill-opacity:1"
       inkscape:label="hollow walls"
       transform="matrix(1.1203746,0,0,1.1203746,-7.3324346,-59.626135)"><path
         style="display:inline;fill:#ffffff;fill-opacity:1;stroke-width:0.264583"
         d="m 35.865789,64.78421 v 2.735524 L 52.88684,67.69342 52.756577,56.490787 h -2.996051 v 8.467106 z"
         id="path49"
         transform="matrix(0.89255862,0,0,0.89255862,6.5446277,53.21982)" /><path
         style="fill:#ffffff;fill-opacity:1;stroke-width:0.236156"
         d="m 54.272437,108.7957 0.05813,3.25548 4.10812,-0.0387 -0.03875,-3.19736 z"
         id="path50"
         sodipodi:nodetypes="ccccc" /><path
         style="fill:#ffffff;fill-opacity:1;stroke-width:0.236156"
         d="m 123.56787,102.86604 -0.0388,3.21674 7.32486,-0.0194 0.0194,-3.17798 z"
         id="path51" /><path
         style="fill:#ffffff;fill-opacity:1;stroke-width:0.236156"
         d="m 23.015857,125.88701 3.25549,-0.11627 0.07751,4.80572 -3.333002,0.0388 z"
         id="path52" /></g><g
       id="g4"
       inkscape:label="outer walls"
       style="display:inline;fill:#03004c;fill-opacity:1"
       transform="matrix(1.1203746,0,0,1.1203746,-7.3324344,-59.626135)"><path
         style="display:inline;fill:#03004c;fill-opacity:1;stroke-width:0.264583"
         d="m 11.723684,25.878947 -4.3421052,0.08684 -4.1684209,37.863156 14.0684201,-0.08684 v 51.410527 h 11.897367 l -0.08684,-5.03684 h 8.771054 l -0.08684,-1.30264 H 28.05 l -0.173686,4.86316 H 18.671052 V 62.265787 l -13.8947363,0.08684 3.9947368,-34.823685 3.1263155,-0.08684 z"
         id="path1"
         transform="matrix(0.89255862,0,0,0.89255862,6.5446276,53.21982)" /><path
         style="display:inline;fill:#03004c;fill-opacity:1;stroke-width:0.264583"
         d="m 14.155263,26.226315 v 1.476316 l 21.189474,-0.08684 v -1.302633 z"
         id="path2"
         transform="matrix(0.89255862,0,0,0.89255862,6.5446276,53.21982)" /><path
         style="display:inline;fill:#03004c;fill-opacity:1;stroke-width:0.264583"
         d="m 43.598713,26.404855 0.06141,1.28954 26.89611,0.06141 v 5.219562 l 34.522707,0.111477 -0.17368,-3.213158 7.72895,0.08684 v 3.473685 l 23.36052,0.08684 -0.17368,-1.302631 -21.97105,0.08684 v -3.821051 l -9.9,0.08684 V 31.95789 L 71.644737,31.52368 v -5.036841 c 0,0 -28.046021,0.102232 -28.046021,-0.08199 z"
         id="path3"
         transform="matrix(0.89255862,0,0,0.89255862,6.5446276,53.21982)" /><path
         style="display:inline;fill:#03004c;fill-opacity:1;stroke-width:0.264583"
         d="m 138.86052,32.218421 68.51842,0.260527 0.0868,7.728945 -1.38947,-0.08684 0.17369,-6.339472 -67.56316,-0.173686 z"
         id="path4"
         transform="matrix(0.89255862,0,0,0.89255862,6.5446276,53.21982)" /><path
         style="display:inline;fill:#03004c;fill-opacity:1;stroke-width:0.264583"
         d="m 206.25,42.639472 h 0.95526 V 52.88684 L 205.98947,52.8 Z"
         id="path5"
         transform="matrix(0.89255862,0,0,0.89255862,6.5446276,53.21982)" /><path
         style="display:inline;fill:#03004c;fill-opacity:1;stroke-width:0.264583"
         d="m 206.07631,55.318419 h 1.38947 l 0.0868,6.339474 h -1.56316 z"
         id="path6"
         transform="matrix(0.89255862,0,0,0.89255862,6.5446276,53.21982)" /><path
         style="display:inline;fill:#03004c;fill-opacity:1;stroke-width:0.264583"
         d="m 206.33684,64.523683 h 1.21579 l -0.17369,12.071053 -3.73421,-0.260527 v -1.128948 h 2.51842 z"
         id="path7"
         transform="matrix(0.89255862,0,0,0.89255862,6.5446276,53.21982)" /><path
         style="display:inline;fill:#03004c;fill-opacity:1;stroke-width:0.264583"
         d="m 201.3,75.031578 v 1.389472 l -62.61316,-0.173683 0.11937,-7.305592 -1.82368,-0.02171 0.0108,-1.313487 3.07203,0.03257 -0.16282,7.479275 z"
         id="path8"
         sodipodi:nodetypes="ccccccccc"
         transform="matrix(0.89255862,0,0,0.89255862,6.5446276,53.21982)" /><path
         style="display:inline;fill:#03004c;fill-opacity:1;stroke-width:0.264583"
         d="m 39.914316,108.93538 v 1.22813 L 53.792217,110.0407 V 97.145304 l 16.334166,0.122815 0.122814,14.614781 h 17.316672 l -0.122814,-1.22813 H 71.477329 l -0.245625,-14.860412 -18.913248,0.122814 0.245629,13.141018 z"
         id="path9"
         transform="matrix(0.89255862,0,0,0.89255862,6.5446276,53.21982)" /><path
         style="display:inline;fill:#03004c;fill-opacity:1;stroke-width:0.264583"
         d="m 89.881577,110.72368 0.173683,1.38947 23.96842,-0.0868 -0.17368,-43.07372 23.30624,-0.03257 -0.0109,-1.313486 -24.42434,0.04342 v 43.160521 z"
         id="path10"
         sodipodi:nodetypes="ccccccccc"
         transform="matrix(0.89255862,0,0,0.89255862,6.5446276,53.21982)" /></g><path
       style="fill:#ffffff;fill-opacity:1;stroke-width:0.264583"
       d="m 41.640789,99.065129 1.280922,0.02172 -0.02172,4.602631 -1.2375,-0.0217 z"
       id="path67"
       sodipodi:nodetypes="ccccc" /></g><g
     inkscape:groupmode="layer"
     id="layer3"
     inkscape:label="Rooms"
     style="display:inline"
     transform="matrix(1.0114812,0,0,1,-0.03178661,0)"><path
       style="fill:#e6e6e6;fill-opacity:1;stroke-width:0.263077"
       d="m 53.213055,67.056052 15.966631,0.184219 0.242838,14.737593 -16.330889,-0.122812 z"
       id="135э"
       inkscape:label="135э" />
    <path
            style="fill:#e6e6e6;fill-opacity:1;stroke-width:0.263077"
            d="m 53.091635,83.390218 16.148758,0.122811 v 11.974296 l -15.7845,-0.122812 z"
            id="135н"
            inkscape:label="135н" />
    <path
            style="fill:#e6e6e6;fill-opacity:1;stroke-width:0.263077"
            d="m 95.649079,74.609067 15.359531,0.06141 v 25.913603 l -6.3138,-0.0614 0.0607,9.82506 h -9.227859 z"
            id="61"
            inkscape:label="61" />
    <path
            style="fill:#e6e6e6;fill-opacity:1;stroke-width:0.263077"
            d="m 94.131339,55.634416 -11.231281,-0.184219 0.09627,22.955547 -6.531492,-0.05087 0.121418,4.298465 6.131672,-0.06141 v 1.535166 l -6.25309,-0.0614 0.121418,10.500535 4.79606,-0.122815 v -2.886112 h 1.396322 l -0.242838,18.913247 h 11.656247 z"
            id="6"
            sodipodi:nodetypes="ccccccccccccccc"
            inkscape:label="6" />
    <path
            style="fill:#e6e6e6;fill-opacity:1;stroke-width:0.263077"
            d="m 95.466951,55.695823 3.703286,0.06141 0.06071,17.316672 -3.703286,-0.06141 z"
            id="62"
            inkscape:label="62" />
    <path
            style="fill:#e6e6e6;fill-opacity:1;stroke-width:0.263077"
            d="m 104.26106,55.665787 7.04022,0.08684 -0.0429,5.774999 -3.43425,-0.04342 0.0429,-3.473685 h -3.69183 z"
            id="1toiletw"
            inkscape:label="1toiletw" />
    <path
            style="fill:#e6e6e6;fill-opacity:1;stroke-width:0.263077"
            d="m 100.39752,55.752632 2.44691,-0.04342 v 3.734213 l 3.86354,-0.04342 -0.0859,6.209213 1.20199,-0.130265 v -2.865789 h 3.47718 l -0.17171,10.638157 -10.56033,-0.04342 z"
            id="1toiletm"
            inkscape:label="1toiletm" />
    <path
            style="fill:#e6e6e6;fill-opacity:1;stroke-width:0.263077"
            d="m 112.40494,55.818637 0.0607,11.636558 h 16.39159 l -0.12142,-11.544448 z"
            id="53"
            inkscape:label="53" />
    <path
            style="fill:#e6e6e6;fill-opacity:1;stroke-width:0.263077"
            d="m 31.111432,28.006579 0.08586,14.50263 L 7.5364929,42.194727 9.2033268,28.05 Z"
            id="8"
            sodipodi:nodetypes="ccccc"
            inkscape:label="8" />
    <path
            style="fill:#e6e6e6;fill-opacity:1;stroke-width:0.263077"
            d="m 45.707014,28.093421 0.08586,2.561841 -3.563037,0.130263 0.08586,8.423685 h 3.176686 l 0.04293,5.036841 24.069348,0.15095 -0.182127,-3.193145 H 63.837237 L 63.715819,28.062835 Z"
            id="7"
            inkscape:label="7" />
    <path
            style="fill:#e6e6e6;fill-opacity:1;stroke-width:0.263077"
            d="m 70.879553,33.220993 -0.06071,11.728667 31.751137,0.552661 V 33.405212 Z"
            id="52"
            inkscape:label="52" />
    <path
            style="fill:#e6e6e6;fill-opacity:1;stroke-width:0.263077"
            d="m 112.40494,33.74295 0.0607,11.912888 20.45914,0.0307 0.0607,-11.790074 z"
            id="51"
            inkscape:label="51" />
    <path
            style="fill:#e6e6e6;fill-opacity:1;stroke-width:0.263077"
            d="m 139.03289,34.128948 -0.25757,11.463157 64.90741,0.173683 -0.0858,-6.773685 -7.81293,-0.08684 v -4.776314 z"
            id="4"
            inkscape:label="4" />
    <path
            style="fill:#e6e6e6;fill-opacity:1;stroke-width:0.263077"
            d="m 203.25345,47.155261 0.0859,10.681581 -7.4695,-0.08684 v 17.021053 l -52.97338,-0.08684 -0.0859,-9.11842 -4.20696,0.08684 v -3.994738 l 9.01491,-0.08684 0.0859,-14.589474 z"
            id="5"
            inkscape:label="5" /></g></svg>
