<?xml version="1.0" encoding="UTF-8" standalone="no"?>
<!-- Created with Inkscape (http://www.inkscape.org/) -->

<svg
   width="210mm"
   height="150mm"
   viewBox="0 0 210 150"
   version="1.1"
   id="svg1"
   xml:space="preserve"
   inkscape:version="1.4.3 (0d15f75, 2025-12-25)"
   sodipodi:docname="2.svg"
   xmlns:inkscape="http://www.inkscape.org/namespaces/inkscape"
   xmlns:sodipodi="http://sodipodi.sourceforge.net/DTD/sodipodi-0.dtd"
   xmlns="http://www.w3.org/2000/svg"
   xmlns:svg="http://www.w3.org/2000/svg"><sodipodi:namedview
     id="namedview1"
     pagecolor="#505050"
     bordercolor="#eeeeee"
     borderopacity="1"
     inkscape:showpageshadow="0"
     inkscape:pageopacity="0"
     inkscape:pagecheckerboard="0"
     inkscape:deskcolor="#505050"
     inkscape:document-units="mm"
     inkscape:zoom="4"
     inkscape:cx="323.125"
     inkscape:cy="241.625"
     inkscape:window-width="1920"
     inkscape:window-height="1057"
     inkscape:window-x="-8"
     inkscape:window-y="-8"
     inkscape:window-maximized="1"
     inkscape:current-layer="layer3" /><defs
     id="defs1" /><path
     style="display:inline;fill:#ffffff;fill-opacity:1;stroke-width:0.264583"
     d="M 119.26902,91.11218 89.521928,87.931674 89.709015,86.528509 46.117356,81.944836 48.830142,58.839385 29.934188,56.828184 23.760261,113.32896 2.9104166,111.29036 10.417969,41.671874 l 104.212761,10.88099 -0.0661,1.885156 -1.38906,17.660937 5.88698,0.06615 z"
     id="path68"
     inkscape:label="bg" /><path
     style="display:inline;fill:#ffffff;fill-opacity:1;stroke-width:0.12258"
     d="m 114.53706,53.572335 -1.9312,18.829264 6.35688,-0.241401 0.16093,23.094009 h 6.11549 l 0.0805,-2.977273 h 11.58725 l 0.0805,-6.678758 7.96623,0.241402 v 6.195951 h 19.47295 l -0.0805,-20.277666 11.74817,0.241401 0.0805,2.65541 31.22117,0.2414 0.16094,-18.990198 -43.29121,0.08047 v -1.448405 h -4.66709 v 1.689805 l -14.96685,-0.2414 -0.16093,-2.172608 z"
     id="path2"
     inkscape:label="background" /><g
     inkscape:groupmode="layer"
     id="layer2"
     inkscape:label="walls"
     style="display:inline"><g
       id="g48"
       inkscape:label="inner walls"
       style="display:inline;fill:#606060;fill-opacity:1"
       transform="matrix(0.52428186,0,0,0.51865705,108.12746,13.867218)"><g
         id="g72"
         inkscape:label="right"
         style="fill:#606060;fill-opacity:1"><path
           style="display:inline;fill:#606060;fill-opacity:1;stroke-width:0.264583"
           d="M 3.0668737,54.959925 19.713158,55.057894 19.8,55.752632 2.8063474,55.828349 Z"
           id="path3"
           sodipodi:nodetypes="ccccc"
           transform="matrix(0.88367451,0,0,0.89325792,6.5467189,53.126839)" /><path
           style="display:inline;fill:#606060;fill-opacity:1;stroke-width:0.264583"
           d="m 15.805263,68.171051 8.597368,0.173683 v 0.521055 l -8.423684,0.260524 z"
           id="path4"
           transform="matrix(0.88367451,0,0,0.89325792,6.5467189,53.126839)" /><path
           style="display:inline;fill:#606060;fill-opacity:1;stroke-width:0.264583"
           d="m 16.152631,71.992103 6.773684,-0.173683 0.08684,0.607893 -7.46842,0.173686 z"
           id="path5"
           transform="matrix(0.88367451,0,0,0.89325792,6.5467189,53.126839)" /><path
           style="fill:#606060;fill-opacity:1;stroke-width:0.23507"
           d="m 30.566388,114.25389 h 1.841764 v -11.71343 l 3.837006,0.0776 0.07674,0.62058 -3.299827,-0.15515 v 11.248 l 5.525293,-0.0776 -0.07674,-11.63586 h 1.227844 l 0.07674,0.62058 -0.997623,-0.15515 0.153482,11.32557 4.374188,-0.0776 0.306961,-11.09285 -1.688284,-0.0776 -0.07674,-0.54301 7.980975,0.0776 v 0.69815 l -5.602032,-0.15514 -0.07674,11.01528 10.436662,0.0776 0.07674,-11.09285 -2.685904,0.0776 v -0.69815 l 13.966709,0.0776 -0.07674,0.62058 H 64.71576 v 3.6459 h -0.46044 v -3.80104 l -3.837009,0.15514 v 5.97308 h -1.688282 l -0.07674,3.33561 5.602033,-0.15515 -0.07674,-3.33561 0.3837,0.0776 0.230219,3.18047 1.074363,0.0776 v 0.46544 h -0.460441 v 6.36093 l -0.53718,-0.0776 0.15348,-6.20579 h -9.746 l 0.07674,11.17043 9.66926,0.15514 -0.07674,-2.94775 0.53718,0.0776 v 6.28337 h -0.53718 l -0.07674,-3.02533 h -9.439041 l -0.153479,13.4976 h -0.53718 l 0.07674,-6.7488 -5.218332,-0.0776 v -3.80105 h 0.613922 v 3.02532 l 4.60441,-0.15514 -0.07674,-5.74036 h -4.52767 l 0.07674,0.54301 h -0.690662 l 0.07674,-1.16359 h 5.064852 l 0.07674,-9.38626 -3.299826,0.15515 0.07674,4.65434 0.383701,0.0776 v 0.69816 h -0.997623 l 0.153482,-5.27493 -3.146347,-0.15514 -0.07674,5.35249 -0.767403,-0.15514 0.07674,-5.3525 H 44.07266 l -0.07674,5.27493 -0.844143,-0.0776 0.07674,-4.88706 -10.283182,-0.15514 -0.306961,8.9984 15.19455,0.0776 v 1.78416 l -0.3837,0.0776 -0.383701,-1.24116 -5.52529,-0.15515 0.07674,3.6459 5.525291,0.0776 0.07674,-0.46544 h 0.3837 v 1.62902 h -0.3837 v -0.543 H 41.31001 l 0.153482,3.6459 5.832251,-0.23272 -0.153481,-0.77572 0.690661,0.0776 -0.153479,1.16359 -6.139212,0.15514 -0.07674,3.95619 -0.460443,-0.0776 0.07674,-12.10129 -8.748379,-0.0776 v -9.30869 l -1.841764,-0.15515 z"
           id="path6" /><path
           style="fill:#606060;fill-opacity:1;stroke-width:0.23507"
           d="m 54.67843,139.90265 c -0.488373,-0.16455 -2.224803,0.0549 -2.224803,0.0549 l 0.05426,0.43881 2.279066,0.10971 z"
           id="path7" /><path
           style="fill:#606060;fill-opacity:1;stroke-width:0.23507"
           d="m 54.569902,145.82667 -3.689917,0.0548 -0.05426,0.60337 3.744181,0.0548 z"
           id="path8" /><path
           style="fill:#606060;fill-opacity:1;stroke-width:0.23507"
           d="m 48.492391,150.87305 c 0.05426,-0.32911 0,-4.49786 0,-4.49786 l 0.542637,-0.10971 -0.108528,-0.38396 -0.488371,-0.1097 v -5.21094 c 0,0 2.170539,0.21941 1.953485,-0.0548 -0.217053,-0.27426 -0.379845,-0.87764 -0.379845,-0.87764 l -2.062013,0.21941 -0.05426,10.9704 z"
           id="path9" /><path
           style="fill:#606060;fill-opacity:1;stroke-width:0.23507"
           d="m 36.091679,141.71452 8.901859,0.0776 c 0,0 0.268588,4.18891 0.115109,4.18891 -0.153482,0 -2.071985,-0.0388 -2.071985,-0.0388 l 0.11511,4.80949 -0.57555,0.0388 0.03837,-8.57175 -6.561283,-0.0388 z"
           id="path10" /><path
           style="fill:#606060;fill-opacity:1;stroke-width:0.23507"
           d="m 42.998292,138.88312 -1.995245,0.11636 0.07674,0.38786 h -5.02648 l 0.03837,0.46544 5.371811,0.0776 v -0.46543 h 1.611542 z"
           id="path11" /><path
           style="fill:#606060;fill-opacity:1;stroke-width:0.23507"
           d="m 32.484892,150.71291 -8.594898,-0.0388 -0.03837,0.54301 8.710007,0.0388 z"
           id="path12" /><path
           style="fill:#606060;fill-opacity:1;stroke-width:0.23507"
           d="m 68.841199,125.55886 0.02713,12.75309 1.492248,0.0274 -0.0814,0.60337 2.007749,-0.0548 -0.108526,-0.68565 -0.434109,-0.0548 0.02713,0.38396 -1.003874,0.0549 -0.244187,-0.35654 -1.193797,-0.0823 0.0814,-12.61595 z"
           id="path13" /><path
           style="fill:#606060;fill-opacity:1;stroke-width:0.23507"
           d="m 71.635769,126.71075 v 9.32484 h 0.379843 l 0.08139,-9.24256 z"
           id="path14" /><path
           style="fill:#606060;fill-opacity:1;stroke-width:0.23507"
           d="m 80.833429,150.37938 -0.624032,-0.0274 0.05426,-11.43663 -6.186036,-0.0274 0.05426,-0.71307 h 0.379842 l -0.02713,0.32911 5.77906,-0.0548 0.0814,-4.25103 -5.751928,-0.0823 -0.02713,1.67299 h -0.406976 l -0.02713,-8.99573 h 0.379842 l 0.05426,6.88392 5.75193,-0.0274 v -11.35436 l -5.670535,-0.0823 -0.05426,2.1118 -0.515503,-0.0823 -0.02713,-1.97467 h -1.546509 l 0.02713,-0.57595 h 7.78681 l 0.02713,-19.99354 -10.879828,0.0549 v 19.88384 h 0.895349 l 0.02713,0.54852 -0.976744,0.0549 v 0.93248 l -0.65116,0.0549 0.189922,-10.09276 -0.976743,-0.0274 0.02713,-0.5211 1.031007,-0.0274 -0.0814,-9.32484 -0.922479,-0.0274 v -0.46624 l 0.895346,-0.0274 -0.02713,-4.744698 h 0.515501 l 0.02713,3.071708 22.655005,-0.0274 v 0.7405 l -1.492247,0.0548 -0.02713,15.71509 1.329456,-0.0274 0.02713,0.63079 -1.356586,0.0274 -0.0814,15.79736 h 1.383717 l 0.02713,0.57595 h -1.410851 l -0.05426,7.29531 h 2.577515 l -0.02713,0.46624 -2.604648,0.0549 0.05426,8.14551 -0.488371,-0.0823 0.0814,-48.59885 -9.089135,-0.0548 z"
           id="path15" /><path
           style="fill:#606060;fill-opacity:1;stroke-width:0.23507"
           d="m 95.430305,141.93218 0.05426,8.94087 c 0,0 0.596898,0.1097 0.596898,-0.10971 0,-0.2194 -0.108528,-8.50205 -0.108528,-8.50205 l 0.379845,-0.0549 -0.05426,-0.38397 z"
           id="path16" /><path
           style="fill:#606060;fill-opacity:1;stroke-width:0.23507"
           d="m 106.68998,141.9596 h -3.25581 l -0.0543,-2.52319 -0.35272,0.0274 -0.0814,2.52319 -4.313949,-0.0549 v -4.55272 l -0.542635,-0.0274 -0.02713,5.04638 8.655024,-0.0548 z"
           id="path17" /><path
           style="fill:#606060;fill-opacity:1;stroke-width:0.23507"
           d="m 106.77137,134.00607 -12.724783,0.0549 -0.05426,0.6308 9.089133,0.0274 -0.0271,2.27636 0.35272,0.0549 0.0271,-2.38606 3.39147,-0.0548 z"
           id="path18" /><path
           style="fill:#606060;fill-opacity:1;stroke-width:0.23507"
           d="m 106.71711,129.45335 -9.821691,0.0823 -0.02713,0.54852 9.957351,-0.0274 z"
           id="path19" /><path
           style="fill:#606060;fill-opacity:1;stroke-width:0.23507"
           d="m 106.77137,117.68761 -10.662778,-0.0822 0.108528,-7.29531 2.848834,0.0274 -0.02713,-0.52109 -2.848832,0.0823 0.05426,-8.50206 h -1.980618 l 0.02713,0.43882 1.410851,0.0274 -0.0814,15.74252 -1.329456,0.0274 0.0814,0.63079 12.453471,-0.0549 z"
           id="path20"
           sodipodi:nodetypes="ccccccccccccccc" /><path
           style="fill:#606060;fill-opacity:1;stroke-width:0.23507"
           d="m 108.68786,101.49323 h -9.976216 l 0.07674,6.167 7.904236,0.0388 0.0884,2.64002 -2.96613,0.0362 -0.0384,0.65936 h 3.06961 l 0.0384,0.73694 c 0,0 0.34533,0.0776 0.34533,-0.19393 0,-0.2715 -0.0767,-6.05065 -0.0767,-6.05065 l -0.3837,0.0388 v 1.59023 l -7.443796,-0.11635 -0.11511,-5.11978 7.621836,-0.0542 4e-5,0.86525 0.26153,0.0156 0.005,-0.86607 1.58862,-0.006 z"
           id="path21"
           sodipodi:nodetypes="cccccccccsccccccccccc" /><path
           style="fill:#606060;fill-opacity:1;stroke-width:0.23507"
           d="m 111.00393,101.424 2.71317,0.0548 0.0271,-3.318545 0.54264,-0.02742 0.0271,3.318545 0.35271,0.0274 0.0271,0.46623 h -0.46124 v 9.54425 l -0.62403,0.0274 0.10853,-9.5991 -2.76744,-0.0549 z"
           id="path22" /><path
           style="fill:#606060;fill-opacity:1;stroke-width:0.23507"
           d="m 116.99499,101.43505 -0.0576,0.46543 h 0.518 l -0.0192,9.67716 0.49882,0.0388 -0.0192,-9.73534 h 0.47963 v -0.46543 z"
           id="path23" /><path
           style="fill:#606060;fill-opacity:1;stroke-width:0.23507"
           d="m 120.73607,101.43505 v 0.46543 l 2.85857,-0.0194 -0.0384,2.5405 h 2.0528 l -0.0767,7.13666 0.46044,0.0388 -0.0192,-7.64088 h -1.93768 l -0.0192,-2.5211 z"
           id="path24" /><path
           style="fill:#606060;fill-opacity:1;stroke-width:0.23507"
           d="m 129.86815,111.63582 0.0575,-9.67716 h -3.54923 v -0.46543 h 3.54923 l 0.0192,-13.109735 1.1511,-0.0194 v 0.446042 l -0.69066,0.0194 0.0192,4.38284 0.40289,-0.03879 -0.0192,0.290898 h -0.36451 l -0.23022,18.190725 z"
           id="path25" /><path
           style="fill:#606060;fill-opacity:1;stroke-width:0.23507"
           d="m 130.04081,81.634695 -0.0384,4.518592 h 0.42207 l -0.0192,-4.499198 z"
           id="path26" /><path
           style="fill:#606060;fill-opacity:1;stroke-width:0.23507"
           d="m 90.864964,93.348127 -0.01917,0.504222 10.590136,0.09696 0.0384,-0.426648 -2.72427,-0.0194 -0.0192,-11.926758 -0.34533,0.155146 -0.05756,11.713432 z"
           id="path27" /><path
           style="fill:#606060;fill-opacity:1;stroke-width:0.23507"
           d="m 91.414806,81.759566 -0.02713,6.746793 -0.515504,-0.02743 v 0.548522 l 1.058138,-0.02743 v -7.24046 z"
           id="path28" /><path
           style="fill:#606060;fill-opacity:1;stroke-width:0.23507"
           d="m 85.69001,81.759566 -0.16279,11.601193 -4.992241,0.05485 0.05426,-0.329112 -0.624029,0.08228 -0.02713,0.630797 8.573631,0.08228 v -0.493667 l -2.360461,0.02743 v -4.470435 l 2.33333,0.02743 0.05426,-0.438817 -2.3062,-0.05485 -0.189922,-6.719366 z"
           id="path29" /><path
           style="fill:#606060;fill-opacity:1;stroke-width:0.23507"
           d="m 80.102158,81.634695 -0.07674,9.075971 h 0.46044 l 0.03837,-9.114757 z"
           id="path30" /><path
           style="fill:#606060;fill-opacity:1;stroke-width:0.23507"
           d="m 73.962945,81.673481 v 8.532965 h -0.498812 v 0.620578 l 0.844143,-0.03879 0.11511,-9.269901 z"
           id="path31" /><path
           style="fill:#606060;fill-opacity:1;stroke-width:0.23507"
           d="m 69.128314,81.518337 -0.268589,5.973074 -9.323929,0.07757 0.03837,0.349076 h 0.53718 v 0.62058 l 0.191851,0.03879 0.03837,-0.698152 8.710008,0.11636 -0.15348,2.559889 -8.211197,0.07757 -0.03837,-0.349076 -0.537182,-0.03879 -0.03837,1.047228 0.575552,-0.03879 -0.03837,-0.271504 3.223087,0.03879 0.03837,0.31029 0.383701,-0.03879 v -0.31029 l 4.642779,0.07757 0.07674,2.288385 -4.56604,-0.07757 -0.03837,-0.271504 -0.46044,0.03879 v 0.271504 l -4.259079,0.07757 -0.07674,0.387862 h 9.362299 V 95.6753 h 0.49881 v -1.978097 l 8.134458,-0.03879 0.03837,-0.387862 -8.019345,0.07757 v -2.598675 l 2.110354,0.07757 V 90.28401 l -2.225466,-0.116358 -0.03837,-8.765681 z"
           id="path32" /><path
           style="fill:#606060;fill-opacity:1;stroke-width:0.23507"
           d="m 55.929009,77.678502 -0.03837,6.011862 -1.841763,-0.03879 -0.03837,0.543006 h 1.841763 l 0.03837,6.787586 h 0.49881 v -2.986537 l 0.959253,-0.07757 -0.115112,-0.349076 -0.844141,-0.03879 0.07674,-9.929267 z"
           id="path33" /><path
           style="fill:#606060;fill-opacity:1;stroke-width:0.23507"
           d="m 50.595568,77.717288 -0.03837,8.455394 0.46044,0.03879 0.03837,-2.094456 h 0.729031 L 51.7083,83.651578 h -0.652292 l 0.03837,-5.93429 z"
           id="path34" /><path
           style="fill:#606060;fill-opacity:1;stroke-width:0.23507"
           d="m 45.300496,77.678502 -0.03837,10.898923 h -1.765023 l 0.03837,0.465433 1.649915,0.03879 v 4.188908 l -1.649915,-0.03879 V 93.6972 l 13.621378,0.07757 -0.03837,-0.581792 -0.767402,0.07757 v -0.581794 l -0.46044,0.03879 -0.02015,0.588446 -3.855227,-0.03173 -0.02248,-1.149873 -0.496484,0.02508 0.02015,1.111087 -5.832254,0.03879 v -4.188908 l 5.103222,-0.03879 -0.03837,0.581791 H 51.20949 V 88.61621 L 45.760939,88.655 45.722569,77.63972 Z"
           id="path35"
           sodipodi:nodetypes="ccccccccccccccccccccccccccc" /><path
           style="fill:#606060;fill-opacity:1;stroke-width:0.23507"
           d="m 10.468944,93.262537 7.635897,0.07079 v 0.329112 l -7.798687,0.148613 z"
           id="path36"
           sodipodi:nodetypes="ccccc" /><path
           style="fill:#606060;fill-opacity:1;stroke-width:0.23507"
           d="m 17.17523,77.60093 v 5.624001 l 1.074362,0.03879 -0.07674,-0.698152 h -0.422071 l 0.07674,-5.042207 z"
           id="path37" /><path
           style="fill:#606060;fill-opacity:1;stroke-width:0.23507"
           d="m 23.007482,77.60093 0.03837,4.887061 -2.609165,-0.03879 0.03837,0.543008 h 2.570795 l -0.03837,10.123198 -2.609165,0.116358 0.03837,0.465434 h 4.182338 l 0.03837,-0.581792 -1.189472,-0.03879 0.03837,-5.352496 1.227843,0.03879 0.03837,-0.426648 -1.227843,-0.07757 -0.11511,-9.696551 z"
           id="path38" /><path
           style="fill:#606060;fill-opacity:1;stroke-width:0.23507"
           d="m 30.029206,77.639716 -0.15348,9.774123 -2.954496,-0.03879 -0.03837,0.465434 8.096087,0.03879 -0.115112,-0.620578 -4.335819,0.03879 -0.07674,-9.657765 z"
           id="path39" /><path
           style="fill:#606060;fill-opacity:1;stroke-width:0.23507"
           d="m 37.166041,77.60093 v 15.592053 h -9.97622 l -0.07674,0.50422 13.928339,0.03879 c 0,0 0.03837,-6.360936 -0.115111,-6.399722 -0.15348,-0.03879 -0.53718,0 -0.53718,0 l 0.115109,5.934288 -2.839386,-0.03879 0.03837,-15.824768 z"
           id="path40" /><path
           style="fill:#606060;fill-opacity:1;stroke-width:0.23507"
           d="m 137.4845,81.485306 -0.10852,6.911348 -3.96124,0.109705 0.0543,0.383965 8.03099,0.219407 v -0.493667 l -3.47286,-0.21941 -0.0543,-6.911348 z"
           id="path41" /><path
           style="fill:#606060;fill-opacity:1;stroke-width:0.23507"
           d="m 144.64728,81.595011 -0.0543,6.911348 -1.13953,-0.05485 0.0543,0.493667 6.40309,0.05485 -0.10852,-0.493667 h -4.55814 v -6.856496 z"
           id="path42" /><path
           style="fill:#606060;fill-opacity:1;stroke-width:0.23507"
           d="m 152.50649,81.595909 0.0384,7.446949 4.873,0.03879 v -0.504222 l -4.33582,-0.03879 -0.11511,-6.981516 z"
           id="path43" /><path
           style="fill:#606060;fill-opacity:1;stroke-width:0.23507"
           d="m 159.87355,81.634695 v 7.524523 l 0.53718,-0.07757 v -7.602096 z"
           id="path44" /><path
           style="fill:#606060;fill-opacity:1;stroke-width:0.23507"
           d="m 162.78967,88.693782 h 2.60917 v 0.387865 l -2.45569,0.07757 z"
           id="path45" /><path
           style="fill:#606060;fill-opacity:1;stroke-width:0.23507"
           d="m 168.04637,81.751053 -0.0767,7.524523 h 0.49882 l 0.0384,-7.757239 z"
           id="path46" /><path
           style="fill:#606060;fill-opacity:1;stroke-width:0.23507"
           d="m 171.88755,81.430456 0.0543,7.185608 -1.1938,0.05485 -0.0543,0.603372 2.00775,-0.05485 -0.16279,-0.713074 h -0.27132 l 0.16279,-6.966201 z"
           id="path47" /><path
           style="fill:#606060;fill-opacity:1;stroke-width:0.23507"
           d="m 174.70925,88.506359 7.54263,0.164555 0.0543,-6.911348 0.48837,0.05485 0.0543,1.261596 h 0.48837 v 0.438815 l -0.43411,0.05485 -0.0543,5.759457 -8.08526,-0.05485 z"
           id="path48" /><path
           style="fill:#606060;fill-opacity:1;stroke-width:0.23507"
           d="m 185.56195,81.704716 -0.0671,6.198271 h 0.39273 l -0.0165,-6.201314 z"
           id="path49"
           sodipodi:nodetypes="ccccc" /><path
           style="fill:#606060;fill-opacity:1;stroke-width:0.23507"
           d="m 132.16668,93.113925 52.52706,0.274259 v 0.603372 h -2.65891 l -0.0543,7.075904 2.55039,-0.0549 0.10852,0.54852 -2.71317,0.0548 -0.0543,15.68766 -0.48837,-0.0549 0.10853,-23.366939 -35.48832,-0.05485 -0.16279,23.366939 -0.65116,-0.0549 0.10853,-11.46407 -5.26356,-0.1097 0.21705,-0.49367 h 5.10077 l -0.0543,-6.527379 -3.85271,0.05485 0.0543,4.168749 -0.65116,-0.0549 0.16279,-4.223604 h -3.36433 l -0.0543,1.426151 -0.54263,-0.02742 0.0543,-3.318544 h 0.46124 l 0.0543,1.343873 7.75968,0.13713 -0.0271,-4.305881 -7.81394,-0.05485 -0.0271,0.35654 h -0.65116 l 0.0271,-0.383965 h -4.74806 z"
           id="path50" /><path
           style="fill:#606060;fill-opacity:1;stroke-width:0.23507"
           d="m 133.49614,95.719392 -0.0543,7.103328 c 0,0 4.25968,0.16456 4.17828,0.0274 -0.0814,-0.13713 -0.0543,-0.85021 -0.0543,-0.85021 h -0.62403 l 0.0271,0.35654 -2.87596,-0.0823 -0.0814,-6.582233 z"
           id="path51" /><path
           style="fill:#606060;fill-opacity:1;stroke-width:0.23507"
           d="m 130.18607,105.07165 3.9341,-0.0549 -0.0543,0.6308 -4.06975,0.0823 z"
           id="path52" /><path
           style="fill:#606060;fill-opacity:1;stroke-width:0.23507"
           d="m 136.20931,104.98938 -0.0271,0.54851 h 0.84109 l -0.0543,11.46407 0.5969,-0.0274 0.0543,-11.84802 z"
           id="path53" /><path
           style="fill:#606060;fill-opacity:1;stroke-width:0.23507"
           d="m 186.69423,93.425699 h 2.34058 l -0.0384,0.659366 -2.30221,-0.155144 z"
           id="path54" /><path
           style="fill:#606060;fill-opacity:1;stroke-width:0.23507"
           d="m 188.99644,100.98901 -2.45569,0.0776 -0.0384,0.58179 2.49406,-0.0388 z"
           id="path55" /><path
           style="display:inline;fill:#606060;fill-opacity:1;stroke-width:0.264583"
           d="m 113.58947,31.697369 v 13.634209 l -3.77763,-0.04342 v 0.651314 l 4.29868,-0.130262 -0.0434,-3.256579 7.29474,0.04342 -0.0868,5.253947 0.78158,0.04342 -0.13027,-2.344735 8.90132,0.08684 -0.0434,-0.825 -8.77105,0.130262 -0.0868,-9.335526 h -0.56447 v 6.426316 l -7.20789,0.08684 -0.17369,-10.464472 z"
           id="path96"
           transform="matrix(0.88367451,0,0,0.89325792,6.5467189,53.126839)" /><path
           style="display:inline;fill:#606060;fill-opacity:1;stroke-width:0.264583"
           d="m 121.36184,31.740789 0.0434,1.302632 0.52105,0.08684 0.0434,-1.476314 z"
           id="path97"
           transform="matrix(0.88367451,0,0,0.89325792,6.5467189,53.126839)" /><path
           style="fill:#606060;fill-opacity:1;stroke-width:0.507388"
           d="m 8.1776299,112.24219 12.3641351,-0.47825 -0.126165,0.73332 -12.3956759,0.5739 z"
           id="path72" /><path
           style="fill:#606060;fill-opacity:1;stroke-width:0.507388"
           d="m 6.9159835,120.24488 -0.3154116,2.93326 -3.2802807,-0.51013 -0.1261646,0.82896 3.154116,0.3826 -2.2709636,22.31826 h 0.5046586 l 2.9648691,-25.88918 z"
           id="path73" /><path
           style="fill:#606060;fill-opacity:1;stroke-width:0.507388"
           d="m -2.523867,122.46499 -0.089208,0.4509 1.96265755,0.22545 -2.40872025,22.18412 0.5352712,0.0902 2.45332698,-22.22922 0.53527116,0.13527 0.17842708,-0.72143 z"
           id="path74" /><path
           style="fill:#606060;fill-opacity:1;stroke-width:0.507388"
           d="m -7.8319718,118.5422 -0.2230288,3.021 -2.7655694,-0.18036 -0.08921,0.58617 2.0964834,0.31563 -2.2749054,22.40957 h 0.401456 l 2.4533223,-22.3194 2.6763608,0.27055 v -0.67635 l -1.9180558,-0.36072 0.3122373,-2.93083 z"
           id="path75" /><path
           style="fill:#606060;fill-opacity:1;stroke-width:0.507388"
           d="m -6.5384007,114.05577 -0.2453297,1.89377 -0.7359991,-0.11273 0.1115144,-0.51853 -3.2785349,-0.36072 0.111515,-0.51853 3.1893208,0.27054 0.1561212,-0.81161 z"
           id="path76" /><path
           style="fill:#606060;fill-opacity:1;stroke-width:0.507388"
           d="m -6.9175507,110.42605 0.5575771,0.0902 1.0259355,-8.7474 -0.7136982,-0.13527 -0.022306,0.58616 -10.6831227,-1.10469 0.08921,-0.49599 -0.758305,-0.13527 -0.06691,0.58617 -4.313084,-0.51295 0.504658,-4.686832 4.384222,0.526073 -0.157706,0.908672 0.693905,0.09565 0.09462,-0.876788 10.7031671,1.164446 -0.1115144,1.05961 0.6244847,0.0451 0.2230288,-1.578138 -16.3480762,-1.938857 0.104056,-1.601656 c 0,0 -2.114882,-0.09184 -2.155927,-0.111764 l -0.02231,0.450895 1.427391,0.157814 -1.204362,11.114605 -5.687255,-0.63126 1.226664,-10.93424 1.159755,0.06763 0.111515,-0.766523 -18.13802,-1.790276 -0.06308,0.637664 h 0.378494 l -0.252329,1.530395 h 0.504658 l 0.378494,-1.530395 15.265922,1.530395 -1.198564,11.28666 -15.360545,-1.59416 0.693905,-6.280995 -0.693905,-0.09565 -0.662365,6.312875 h -0.315411 l -0.09462,0.5739 13.688864,1.43474 -0.09462,1.02027 0.5362,0.0319 0.157706,-0.9565 8.516113,0.86085 -1.198564,11.15913 -8.453031,-0.89273 0.756988,-7.36503 -0.599282,-0.0319 -1.103941,9.21425 0.567741,0.15942 0.220788,-1.27533 8.547655,0.86085 -0.662365,6.37664 -8.547654,-0.9565 0.189247,-2.32747 -0.662365,-0.0319 -0.56774,5.32449 h 0.630823 l 0.315411,-2.19994 8.484573,0.89273 -0.567741,6.31288 -8.642278,-0.9565 0.126164,-1.21156 -0.599282,-0.0956 -1.040858,10.42582 0.599282,0.0957 0.946235,-8.54471 13.751946,1.43475 0.09462,-0.63767 -4.573468,-0.41448 1.797846,-17.53577 9.935466,1.05214 0.03154,-0.60578 -9.809301,-1.21156 1.261646,-11.76491 15.5733803,1.65359 z"
           id="path77"
           sodipodi:nodetypes="ccccccccccccccccccccccccccccccccccccccccccccccccccccccccccccccccccccccccccccccccc" /><path
           style="fill:#606060;fill-opacity:1;stroke-width:0.507388"
           d="m -23.042598,143.07098 0.847513,-7.77797 1.315877,0.18036 -0.04461,0.54108 -0.780606,-0.0676 -0.735994,7.32707 z"
           id="path78" /><path
           style="fill:#606060;fill-opacity:1;stroke-width:0.507388"
           d="m -18.247459,143.56697 2.408721,-22.77029 1.65042,0.18036 -0.06691,0.76652 -1.048241,-0.15781 -2.319507,22.18412 z"
           id="path79" /><path
           style="fill:#606060;fill-opacity:1;stroke-width:0.507388"
           d="M 3.4464558,73.982325 2.3740564,84.854504 1.900939,84.822624 1.806316,85.492171 2.3109746,85.587821 2.1848099,86.225486 2.784092,86.384902 2.878715,85.651588 4.234985,85.77912 4.266526,85.077689 2.8787149,84.822624 3.9511144,73.982328 Z"
           id="path80" /><path
           style="fill:#606060;fill-opacity:1;stroke-width:0.507388"
           d="m 1.7432332,89.796404 0.7254467,0.09565 -0.378494,2.295592 3.9426451,0.478249 v 0.669547 l -31.604243,-3.539037 0.157706,-0.669548 2.901787,0.286949 1.892469,-17.950255 0.473118,0.127533 -1.734764,17.982138 3.343363,0.350715 0.126165,-0.573898 0.56774,0.06377 -0.06308,0.605781 3.564151,0.382599 0.09462,-0.573898 0.536199,0.06377 -0.126164,0.605781 9.240056,1.035639 0.3122423,-2.367209 0.4460627,0.06763 -0.1561212,2.367209 5.5311337,0.586167 z"
           id="path81" /><path
           style="fill:#606060;fill-opacity:1;stroke-width:0.507388"
           d="m -30.80403,70.386407 -1.739634,18.080966 -0.490664,-0.135272 -0.04461,0.541077 4.282174,0.541076 0.04461,-0.450895 -3.211627,-0.495986 1.739634,-17.945694 z"
           id="path82" /><path
           style="fill:#606060;fill-opacity:1;stroke-width:0.507388"
           d="m -47.843499,68.718088 -1.828842,17.810428 13.337177,1.487957 -0.08921,0.541076 -15.745898,-1.623228 v -0.586162 l 1.650421,0.09018 2.007269,-17.945694 z"
           id="path83" /><path
           style="fill:#606060;fill-opacity:1;stroke-width:0.507388"
           d="m -57.299957,67.726117 -1.873449,17.900604 3.746898,0.405809 -0.133816,0.586167 -5.754167,-0.586167 0.08921,-0.586166 1.338177,0.0451 2.007265,-17.900608 z"
           id="path84" /><path
           style="fill:#606060;fill-opacity:1;stroke-width:0.507388"
           d="m -47.709678,90.766944 -0.08921,0.676348 -2.765569,-0.270538 -1.159751,11.182246 2.899385,0.31562 -0.178427,0.58617 -0.401451,-0.0451 -0.08921,0.67634 -0.535271,-0.0902 v -0.63125 l -7.359976,-0.58617 -0.802907,5.36567 7.583005,0.8567 0.178427,-1.35269 0.62448,0.0451 -3.16702,30.02973 -0.7583,-0.13527 2.587142,-22.90556 -8.876581,-0.94688 0.13382,-0.63126 h 0.267636 v -0.36071 l 0.535271,0.0451 0.04461,0.40581 7.850645,0.85671 0.579873,-4.46388 -7.939854,-0.76653 -0.178427,0.49599 h -0.579873 l 0.713694,-6.71836 -3.256234,-0.31563 -0.713693,6.17728 -1.025936,-0.13526 v -0.85671 h 0.312237 l 0.669092,-5.27549 -4.772834,-0.49599 -0.535271,5.50094 1.070542,0.13527 v 0.67635 l -1.918055,-0.18036 0.669086,-6.35765 -3.101107,-0.31731 -0.04729,0.41448 -0.725447,-0.0478 0.03154,-0.39854 -5.677409,-0.57389 -0.252329,2.66225 5.677409,0.62172 0.09462,-0.52608 0.725447,0.12754 -0.189247,1.35503 -0.772758,-0.0797 0.06308,-0.23913 -5.614327,-0.63766 -0.299641,2.35936 5.740492,0.60578 0.04729,-0.33478 0.662365,0.0638 -0.141936,1.05215 -6.387085,-0.71738 -0.06308,0.44637 -0.772758,-0.0319 0.07885,-0.55796 -9.825071,-1.11591 -3.311822,-2.58254 0.473117,-5.181028 0.599282,0.0478 -0.488888,4.750598 3.280281,2.50283 9.383495,1.00433 0.5362,-5.62739 -9.809301,-1.06809 0.962006,-8.464995 -3.138346,-0.414482 -0.378494,3.841928 -0.741217,-0.07971 0.583511,-3.730337 -0.205017,-0.111591 0.09462,-0.621723 3.911104,0.430423 0.331182,-3.427446 12.131902,1.412263 -0.04461,0.60871 -11.597544,-1.239967 -1.13745,11.249876 17.530133,1.893771 1.248965,-11.340061 -2.698657,-0.293081 0.04461,-0.518534 5.19659,0.495991 -0.08921,0.541076 -1.828842,-0.135271 -1.226664,11.3626 16.69294,1.63323 1.308958,-11.254777 c 0,0 -11.595067,-1.200494 -11.622923,-1.179689 l 0.07885,-0.526073 z"
           id="path85"
           sodipodi:nodetypes="ccccccccccccccccccccccccccccccccccccccccccccccccccccccccccccccccccccccccccccccccccccccccccccccccccc" /><path
           style="fill:#606060;fill-opacity:1;stroke-width:0.507388"
           d="m -113.03505,86.09795 18.735449,2.008643 v 1.402862 l 0.315412,-0.03188 -0.06308,0.605782 -0.28387,-0.127533 -0.126165,1.370978 -0.599282,-0.191299 0.06849,-2.462081 -18.451578,-1.912993 z"
           id="path86"
           sodipodi:nodetypes="ccccccccccc" /><path
           style="fill:#606060;fill-opacity:1;stroke-width:0.507388"
           d="m -113.82358,95.280318 18.010003,2.072409 0.283871,-2.67819 0.599282,0.09565 -0.315412,4.017286 -0.725446,-0.127532 0.03154,-0.669548 -18.703908,-2.040526 c 0.0106,0.0075 0.82007,-0.669549 0.82007,-0.669549 z"
           id="path87"
           sodipodi:nodetypes="ccccccccc" /><path
           style="fill:#606060;fill-opacity:1;stroke-width:0.507388"
           d="m -96.381318,102.10333 c 0.01186,-0.006 -0.788529,8.76788 -0.788529,8.76788 l -18.262333,-2.19994 -0.0631,0.86085 7.38063,0.79708 -0.5362,5.64333 0.66237,0.0956 0.63082,-5.77086 12.80571,1.40286 0.06308,-0.63767 -2.050175,-0.25506 1.040858,-8.64036 z"
           id="path88"
           sodipodi:nodetypes="ccccccccccccc" /><path
           style="fill:#606060;fill-opacity:1;stroke-width:0.507388"
           d="m -16.663946,71.784188 -1.338178,14.06798 0.490665,0.0451 1.427391,-14.02289 z"
           id="path89" /><path
           style="fill:#606060;fill-opacity:1;stroke-width:0.507388"
           d="m -12.426383,72.235083 -1.561207,13.977804 0.669086,0.135272 1.516605,-14.203252 z"
           id="path90" /><path
           style="fill:#606060;fill-opacity:1;stroke-width:0.507388"
           d="m -2.702289,73.317236 -1.2935712,12.354575 0.4906644,0.135272 0.1784221,-0.991977 2.3641134,0.315629 0.13382031,-0.40581 -2.49793371,-0.450895 1.1597558,-10.866613 z"
           id="path91" /><path
           style="fill:#606060;fill-opacity:1;stroke-width:0.507388"
           d="m -64.526118,85.626721 -14.675355,-1.487957 0.04461,-0.631257 1.204362,0.135266 1.962658,-18.03587 0.579878,0.09018 -1.828842,18.035875 12.712692,1.3076 z"
           id="path92" /><path
           style="fill:#606060;fill-opacity:1;stroke-width:0.507388"
           d="m -82.502309,83.056612 0.04461,0.811614 -7.761432,-0.811614 0.133821,-0.766529 2.185691,0.270538 2.051871,-18.171142 0.446058,0.09018 -1.828842,18.171142 z"
           id="path93" /><path
           style="fill:#606060;fill-opacity:1;stroke-width:0.507388"
           d="m -92.806281,63.803313 -1.873449,18.080965 -1.828847,-0.225447 -0.04461,0.586166 3.300835,0.405805 v -0.766524 l -0.7583,-0.09018 1.918056,-17.900603 z"
           id="path94" /><path
           style="fill:#606060;fill-opacity:1;stroke-width:0.507388"
           d="m -110.64866,61.909546 -1.73963,18.080966 12.578877,1.35269 v 0.631257 l -15.299837,-1.668319 0.17842,-0.631257 1.73963,0.180357 2.05188,-17.990785 z"
           id="path95" /><path
           style="fill:#606060;fill-opacity:1;stroke-width:0.507388"
           d="m -128.66945,60.105961 -1.87345,17.900603 12.35584,1.262509 -0.13382,0.631258 -14.89838,-1.533048 0.0892,-0.676348 1.82884,0.180363 2.09649,-18.171147 z"
           id="path98" /><path
           style="fill:#606060;fill-opacity:1;stroke-width:0.507388"
           d="m -136.5201,77.465488 -0.13382,0.541076 -12.98033,-1.217419 v -0.631257 h 0.26764 l 0.66909,-4.779509 h -0.40146 l 0.0446,-0.8567 0.35684,0.0451 1.4274,-12.399661 0.44605,0.0451 -1.91805,18.080961 z"
           id="path99" /><path
           style="fill:#606060;fill-opacity:1;stroke-width:0.507388"
           d="m -152.87154,74.970705 -0.0946,0.924613 -0.47312,-0.09565 -0.0631,0.478248 1.13548,0.159416 0.15771,-1.434745 z"
           id="path100" /><path
           style="fill:#606060;fill-opacity:1;stroke-width:0.507388"
           d="m -156.84572,75.480836 v 0.510132 l -3.0595,-0.255066 0.0946,-0.605781 0.85161,0.09565 2.05018,-18.619803 0.41003,0.797081 -1.29319,12.211274 6.37132,0.701431 -0.0946,0.446365 h -0.34695 v 0.828964 l -0.50466,-0.06377 0.0315,-0.669548 -5.48816,-0.605781 -0.50466,5.069432 z"
           id="path101" /><path
           style="fill:#606060;fill-opacity:1;stroke-width:0.507388"
           d="m -165.77187,56.22337 -1.86093,18.237203 4.41576,0.382599 v 0.542015 l -5.77203,-0.542015 0.12617,-0.637665 0.66236,0.09565 0.5362,-4.973783 -0.63082,-0.159416 0.0315,-0.701431 0.75699,0.06377 1.2301,-12.530107 z"
           id="path102" /><path
           style="fill:#606060;fill-opacity:1;stroke-width:0.507388"
           d="m -174.57185,55.330639 -1.29319,12.306924 4.22651,0.446366 -0.0315,0.478248 h -0.63082 v 0.446365 h -0.66237 l 0.0315,-0.446365 -3.0595,-0.350716 -0.0631,0.446366 -0.56774,-0.03188 0.75699,-5.802746 -4.92042,-0.542015 0.0946,-0.637664 4.85734,0.478248 0.78853,-6.950543 z"
           id="path103" /><path
           style="fill:#606060;fill-opacity:1;stroke-width:0.507388"
           d="m -187.91377,72.324397 10.85016,1.052147 0.22079,-1.626045 0.5362,0.03188 -0.75699,7.875157 3.09104,0.382598 0.75699,-7.907039 0.56774,0.09565 -0.15771,1.434745 0.50466,0.127533 -0.0946,0.446365 -0.50466,0.06377 -0.56774,5.770863 0.47311,0.06377 -0.22078,2.678191 -0.75699,-0.06377 0.34695,-1.97676 -6.15053,-0.701431 0.15771,-0.669547 1.82939,0.223182 0.66236,-5.452031 -10.91324,-1.243446 z"
           id="path104" /><path
           style="fill:#606060;fill-opacity:1;stroke-width:0.507388"
           d="m -188.60767,78.541626 5.67741,0.605781 -0.0315,0.382599 -5.83512,-0.573898 z"
           id="path105" /><path
           style="fill:#606060;fill-opacity:1;stroke-width:0.507388"
           d="m -189.3962,86.416782 15.07667,1.434745 0.12617,-1.657928 h 0.47312 l -0.34696,4.176703 -0.5362,-0.03188 0.15771,-1.753577 -15.26592,-1.753577 z"
           id="path106" /><path
           style="fill:#606060;fill-opacity:1;stroke-width:0.507388"
           d="m -190.27935,93.686157 15.13975,1.594161 0.12617,-1.530395 0.47312,0.09565 -0.85161,8.353407 h -0.47312 l 0.50466,-6.344764 -15.0136,-1.498512 z"
           id="path107" /><path
           style="fill:#606060;fill-opacity:1;stroke-width:0.507388"
           d="m -191.16251,102.03956 7.47526,0.73332 -0.0946,0.51013 -7.5068,-0.70143 z"
           id="path108" /><path
           style="fill:#606060;fill-opacity:1;stroke-width:0.507388"
           d="m -191.87607,109.81734 14.94299,1.64577 0.62448,-5.65875 0.51297,0.0676 -0.91442,8.5445 h -0.46836 l 0.20072,-2.38976 -15.16601,-1.71341 z"
           id="path109" /><path
           style="fill:#606060;fill-opacity:1;stroke-width:0.507388"
           d="m -193.08043,119.17345 15.16602,1.53305 0.35685,-2.88574 0.53527,0.0902 -0.84751,8.2965 -0.64679,-0.0451 0.51297,-4.77951 -3.7692,-0.45089 -0.86982,7.95832 -0.60218,-0.0451 0.82521,-7.82306 -10.79464,-1.33014 z"
           id="path110" /><path
           style="fill:#606060;fill-opacity:1;stroke-width:0.507388"
           d="m -194.44091,132.67781 10.70543,1.1047 0.22302,-1.44287 0.55758,0.0676 -0.11152,1.44287 3.76921,0.38326 0.42375,-4.50896 0.62449,0.0451 -2.02957,19.29839 -0.6914,-0.11272 0.20073,-1.14979 -3.67999,-0.4509 1.33818,-12.82802 -2.45333,-0.29308 -0.0892,0.76653 -0.69139,-0.0676 0.0892,-0.76652 -8.2521,-0.83416 z"
           id="path111" /><path
           style="fill:#606060;fill-opacity:1;stroke-width:0.507388"
           d="m -195.1323,139.21581 8.22979,0.87926 0.20073,-1.73596 0.62448,0.0451 -0.17842,2.4123 -8.87658,-1.01452 z"
           id="path112" /><path
           style="fill:#606060;fill-opacity:1;stroke-width:0.507388"
           d="m -196.42988,152.5107 15.10822,1.65793 0.12616,-1.68981 0.56774,0.0956 -1.16702,11.0316 -0.66236,-0.0638 0.94623,-8.70412 -15.01359,-1.75358 z"
           id="path113" /><path
           style="fill:#606060;fill-opacity:1;stroke-width:0.507388"
           d="m -182.70947,167.04945 -0.69391,6.50418 -15.10822,-1.65793 -0.0631,0.66955 15.13976,1.62605 -0.41004,3.12455 0.66237,-0.0319 0.82007,-7.68386 1.51397,0.15942 0.0946,-0.60578 -1.54552,-0.12754 0.15771,-1.88111 z"
           id="path114" /><path
           style="fill:#606060;fill-opacity:1;stroke-width:0.507388"
           d="m -177.72597,169.44069 1.00932,0.1913 0.25233,-1.81734 0.56774,0.0319 -1.48244,14.41122 0.69391,0.0638 -0.12617,0.73331 -0.59928,-0.0957 -0.59928,6.63171 -0.82007,-0.0638 2.05017,-19.28935 -1.04085,-0.15942 z"
           id="path115" /><path
           style="fill:#606060;fill-opacity:1;stroke-width:0.507388"
           d="m -183.65571,180.75924 -0.85161,8.13022 -0.59928,-0.0957 0.88315,-8.06645 z"
           id="path116" /><path
           style="fill:#606060;fill-opacity:1;stroke-width:0.507388"
           d="m -173.60985,182.65629 7.42794,0.84491 -0.0315,0.63766 -7.49102,-0.74925 z"
           id="path117" /><path
           style="fill:#606060;fill-opacity:1;stroke-width:0.507388"
           d="m -162.807,183.88379 2.60214,0.27101 -0.17347,0.71737 -2.50752,-0.28694 z"
           id="path118" /><path
           style="fill:#606060;fill-opacity:1;stroke-width:0.507388"
           d="m -175.70642,160.40797 0.64679,0.0676 -0.15612,1.5556 16.79413,1.84867 -0.0892,0.72144 -16.83874,-1.87122 -0.13382,1.5105 -0.60218,-0.0451 z"
           id="path119" /><path
           style="fill:#606060;fill-opacity:1;stroke-width:0.507388"
           d="m -175.34957,156.89097 0.55758,0.0676 0.22303,-1.64578 16.77183,1.91631 0.0446,-0.72143 -16.74953,-1.80359 0.0892,-0.8567 -0.60218,-0.0902 z"
           id="path120" /><path
           style="fill:#606060;fill-opacity:1;stroke-width:0.507388"
           d="m -174.74739,150.33042 0.60218,0.0902 0.17843,-1.23996 16.79413,1.87121 0.0669,-0.63125 -16.74953,-1.78104 0.60218,-5.8842 -0.57988,-0.0225 z"
           id="path121" /><path
           style="fill:#606060;fill-opacity:1;stroke-width:0.507388"
           d="m -155.70065,138.04348 -16.86105,-1.89376 -0.26763,3.08864 -0.7137,-0.0902 1.22666,-11.74586 0.66909,0.0451 -0.84751,8.02597 16.95026,1.93886 z"
           id="path122" /><path
           style="fill:#606060;fill-opacity:1;stroke-width:0.507388"
           d="m -154.09484,122.55518 -16.86104,-1.7585 v -0.27054 l -0.53527,-0.0676 -0.33455,3.40428 0.49067,0.0451 0.28993,-2.54757 16.92796,1.78105 z"
           id="path123" /><path
           style="fill:#606060;fill-opacity:1;stroke-width:0.507388"
           d="m -153.51496,117.43749 -5.48653,-0.47344 0.15612,-0.94688 -0.736,-0.13527 -0.0446,0.94689 -0.42375,-0.0225 -0.0446,0.54107 6.69089,0.69889 z"
           id="path124" /><path
           style="fill:#606060;fill-opacity:1;stroke-width:0.507388"
           d="m -153.0689,112.41 -5.37502,-0.60871 0.0892,-0.72144 -0.8029,-0.0225 -0.13382,1.80359 0.69139,0.0902 0.0446,-0.56362 5.70956,0.72143 z"
           id="path125" /><path
           style="fill:#606060;fill-opacity:1;stroke-width:0.507388"
           d="m -152.53363,107.72067 -5.33041,-0.6538 0.11151,-0.9018 -0.7806,-0.0902 -0.20073,2.07412 0.60218,0.0676 0.0446,-0.49598 5.50883,0.69889 z"
           id="path126" /><path
           style="fill:#606060;fill-opacity:1;stroke-width:0.507388"
           d="m -152.02066,102.82844 -5.37502,-0.63126 0.0446,-0.72143 -0.7583,-0.13527 -0.11152,1.93885 0.736,0.0902 0.0223,-0.67635 5.50884,0.76652 z"
           id="path127" /><path
           style="fill:#606060;fill-opacity:1;stroke-width:0.507388"
           d="m -151.53,97.913663 -6.17792,-0.676348 0.22303,-1.803585 -0.69139,-0.0451 -0.0223,1.826133 -0.35685,-0.04509 -0.0892,0.631257 1.04824,0.180357 -0.0669,0.6538 0.736,0.135272 0.0446,-0.789072 5.2635,0.608709 z"
           id="path128" /><path
           style="fill:#606060;fill-opacity:1;stroke-width:0.507388"
           d="m -150.63788,90.113144 -7.98446,-0.856705 0.22303,-1.487956 -0.57988,-0.0451 -0.26764,1.600686 -8.18518,-0.924338 0.17842,-1.600686 -0.7137,-0.0451 -3.25623,30.142455 0.60218,0.11272 0.11152,-0.72143 7.27076,0.72143 0.0892,-0.63125 -0.53528,-0.0676 0.20073,-0.76652 -0.64679,-0.11273 -0.0446,0.85671 -6.22253,-0.56362 0.49066,-4.50897 6.17793,0.60871 -0.0223,0.74398 0.53527,-0.0226 0.22303,-1.82613 -0.60218,-0.0451 -0.11152,0.56362 -6.11101,-0.72143 0.53527,-4.59915 5.9772,0.67634 -0.0223,0.96943 0.78061,0.11273 0.20073,-2.07413 -0.82522,-0.0451 v 0.49598 l -5.97719,-0.69889 0.24533,-3.74244 6.06641,0.67635 0.0223,0.54107 0.736,0.0225 0.20073,-1.93886 -0.84752,-0.0676 -0.0223,0.78907 -6.06641,-0.69889 0.40146,-4.148248 6.13331,0.586166 -0.0892,0.789067 0.78061,0.06764 0.0669,-0.721438 0.57988,0.135271 0.0669,-0.74398 -0.55757,-0.0451 0.0669,-0.698891 -0.6914,-0.09018 -0.11151,0.743981 -6.13332,-0.721433 0.57988,-4.666785 6.08871,0.653805 -0.20073,1.285052 0.78061,0.06764 0.46836,-3.674809 3.0332,0.202899 -0.40145,2.682838 0.64679,0.157815 0.24533,-2.727929 6.40095,0.608715 z"
           id="path129" /><path
           style="fill:#606060;fill-opacity:1;stroke-width:0.507388"
           d="m -116.5992,120.18112 7.44371,0.82896 0.18925,-1.78546 0.6939,0.12753 -0.12616,1.91299 0.44158,-0.0638 -0.0631,0.51013 -8.51611,-0.82896 z"
           id="path130" /><path
           style="fill:#606060;fill-opacity:1;stroke-width:0.507388"
           d="m -104.80281,121.58398 -0.94623,10.26639 0.63082,0.0638 1.0724,-9.56497 5.866656,0.5739 0.06308,-0.70143 z"
           id="path131" /><path
           style="fill:#606060;fill-opacity:1;stroke-width:0.507388"
           d="m -94.961965,122.54047 4.920421,0.63767 1.261646,-10.90406 -2.775622,-0.44637 0.06308,-0.44636 4.983504,0.57389 -0.126165,0.70143 -1.577058,-0.19129 -2.144799,21.23422 -0.756988,-0.12753 0.946235,-9.8838 -4.857339,-0.3826 z"
           id="path132" /><path
           style="fill:#606060;fill-opacity:1;stroke-width:0.507388"
           d="m -83.528249,112.27473 4.014539,0.45089 0.223028,-2.02903 0.490665,0.0451 v 0.31563 l 7.003132,0.63126 -0.04461,0.72143 -6.958525,-0.67635 -2.453327,22.86048 -0.713693,-0.0902 2.230293,-21.10198 -3.880714,-0.45089 z"
           id="path133" /><path
           style="fill:#606060;fill-opacity:1;stroke-width:0.507388"
           d="m -68.71972,112.05089 6.529021,0.73332 -2.554834,23.49793 -0.693906,-0.0638 2.460211,-22.89216 -5.835115,-0.63766 z"
           id="path134" /></g><path
         id="path69"
         style="fill:#606060;fill-opacity:1;stroke-width:0.264583"
         d="m 114.11241,53.93986 -0.43253,4.431771 -1.63711,-0.187069 -0.0703,0.350883 1.66037,0.187069 -0.35037,3.414262 -0.30437,-0.04651 -0.0703,0.350366 0.36328,0.03204 -0.0455,0.4346 0.3426,0.0083 0.93018,-8.934856 z m -1.06556,10.791589 -0.0522,0.339515 -5.88647,-0.688847 -0.60771,5.8229 0.35036,0.02325 0.53795,-5.402254 5.44928,0.584977 -0.77204,7.974707 -5.44877,-0.608231 0.0233,-0.72502 h -0.30386 l -0.0238,1.028877 5.61309,0.655257 -0.0703,0.677995 0.3974,0.07028 1.13274,-9.745658 z"
         sodipodi:nodetypes="cccccccccccccccccccccccccccccc"
         transform="matrix(1.907371,0,0,1.9280563,-206.23918,-26.736777)" /><path
         style="display:inline;fill:#606060;fill-opacity:1;stroke-width:0.264583"
         d="m 29.595087,56.641094 -9.214115,-0.900363 -0.210475,1.333005 0.362484,0.03508 0.163703,-1.052372 4.314732,0.444336 -0.128623,1.005602 0.362484,0.05846 0.140316,-1.005602 4.186111,0.409255 z"
         id="path164"
         transform="matrix(1.907371,0,0,1.9280563,-206.23918,-26.736777)" /></g><g
       id="g45"
       style="display:inline;fill:#ffffff;fill-opacity:1"
       inkscape:label="hollow walls"
       transform="matrix(0.51906341,0,0,0.51906341,108.16271,13.797366)"><path
         style="display:inline;fill:#ffffff;fill-opacity:1;stroke-width:0.264583"
         d="m 55.318419,56.360525 -0.08684,9.986841 h 2.865789 l 0.260528,-3.907894 1.997368,-0.08684 -0.173685,-6.078948 z"
         id="path56"
         transform="matrix(0.89255862,0,0,0.89255862,6.5446277,53.21982)" /><path
         style="display:inline;fill:#ffffff;fill-opacity:1;stroke-width:0.264583"
         d="m 41.510526,99.955261 -0.08684,3.213159 1.563158,-0.17369 v -3.039469 z"
         id="path57"
         transform="matrix(0.89255862,0,0,0.89255862,6.5446277,53.21982)" /></g><g
       id="g4"
       inkscape:label="outer walls"
       style="display:inline;fill:#03004c;fill-opacity:1"
       transform="matrix(0.52015071,0,0,0.56364883,107.72657,9.7584379)"><path
         style="fill:#03004c;fill-opacity:1;stroke-width:0.264583"
         d="m 6.0178507,25.852195 65.8005693,0.287278 0.08684,4.602631 31.35,0.08684 0.0868,-3.386841 11.24269,-0.177556 -0.24563,3.070333 93.38715,0.407223 -0.87896,41.991242 -68.08421,-0.347369 0.18422,-5.864925 -24.52977,-0.459645 -0.17368,43.942104 -43.207029,-0.23509 -0.173686,-13.026317 -15.631578,-0.521052 v 14.068419 l -25.184208,0.17368 -0.173686,6.25264 -14.589473,-0.34737 0.155837,-51.057437 1.016932,-0.09713 0.36844,49.985009 h 11.912889 l 0.245626,-6.01785 h 25.545161 l -0.245626,-14.369159 18.421993,0.245629 -0.122814,13.50946 40.528382,0.33247 0.24563,-43.721529 26.54597,0.127381 0.17368,5.905262 c 0,0 66,1.042106 66.08684,0.43421 0.0868,-0.607893 0.26053,-39.426313 0.26053,-39.426313 l -93.09474,-0.173686 v -2.86579 h -8.77105 l -0.26053,3.126317 -33.781571,-0.260527 -0.08684,-4.342104 -64.1478956,-0.413298 z"
         id="path1"
         transform="matrix(0.89069285,0,0,0.82195596,7.3694292,56.234415)"
         sodipodi:nodetypes="cccccccccccccccccccccccccccccccccsccccccccc" /><path
         style="display:inline;fill:#03004c;fill-opacity:1;stroke-width:0.264583"
         d="m 114.60592,54.082486 -0.52917,-0.0083 0.12239,-1.281575 -103.516638,-10.756966 -7.3091145,68.82474 20.0752605,2.18281 6.052343,-56.653905 19.586348,2.075887 -2.361994,23.011905 43.431375,4.611687 v 1.289844 l 28.78485,3.031953 V 91.2525 L 89.241296,88.071991 89.428382,86.809142 45.839062,82.120051 48.352604,59.035156 30.129427,57.183072 24.077083,113.73776 2.563151,111.43919 10.136849,41.241927 114.89583,52.291284 Z"
         id="path67"
         transform="matrix(1.9225197,0,0,1.7741543,-207.10646,-17.312975)"
         sodipodi:nodetypes="ccccccccccccccccccccccc" /></g><path
       style="fill:#ffffff;fill-opacity:1;stroke-width:0.264583"
       d="m 12.429703,83.675407 1.625333,0.187087 -0.701583,6.255779 -1.57856,-0.163703 c 0.0015,-0.003 0.65481,-6.279163 0.65481,-6.279163 z"
       id="path135"
       sodipodi:nodetypes="ccccc" /><path
       style="fill:#ffffff;fill-opacity:1;stroke-width:0.264583"
       d="m 20.334199,59.961917 3.198047,0.391718 -0.122777,0.982215 -3.1922,-0.356637 z"
       id="path136" /></g><g
     inkscape:groupmode="layer"
     id="layer3"
     inkscape:label="Rooms"
     style="display:inline"
     transform="matrix(1.0114812,0,0,1,-0.03178661,0)">





































<g
   id="g136"><path
     style="fill:#e6e6e6;fill-opacity:1;stroke-width:0.121882"
     d="m 121.18398,73.648836 -0.0398,1.689806 -2.82415,-0.04023 v 16.475604 l 10.4613,-0.120698 -0.0796,-3.76183 -3.38102,0.04022 0.0398,-2.293306 2.62527,0.160934 -0.0796,-7.201793 -4.61411,0.160934 0.11934,-4.948716 z"
     id="stolov2"
     sodipodi:nodetypes="ccccccccccccc"
     inkscape:label="столовая" /><path
     style="fill:#e6e6e6;fill-opacity:1;stroke-width:0.12611"
     d="m 113.47115,54.394735 -0.7829,7.624428 5.96209,-0.0569 -0.0302,-4.751043 -3.25204,0.08535 -0.0302,-2.901834 z"
     id="218"
     inkscape:label="218" /><path
     style="fill:#e6e6e6;fill-opacity:1;stroke-width:0.121882"
     d="m 119.29724,54.337836 v 4.608796 l 2.95328,-0.0569 -0.0562,-4.494999 z"
     id="219"
     inkscape:label="219" /><path
     style="fill:#e6e6e6;fill-opacity:1;stroke-width:0.121882"
     d="m 122.98181,54.366285 v 4.551899 l 3.06578,0.02845 -0.0562,-4.580347 z"
     id="220"
     inkscape:label="220" /><path
     style="fill:#e6e6e6;fill-opacity:1;stroke-width:0.121882"
     d="m 126.65328,62.061597 c 0.25856,0 1.13364,0 1.13364,0 l -0.0795,-3.097976 0.59665,0.04023 0.0398,3.158327 1.90929,-0.06035 v -1.890974 l -0.97454,-0.02012 0.0199,-0.623619 0.91487,0.04023 v -5.210232 l -3.57991,-0.06035 z"
     id="221"
     inkscape:label="221" /><path
     style="fill:#e6e6e6;fill-opacity:1;stroke-width:0.121882"
     d="m 130.84973,54.417238 v 5.190117 l 2.10817,0.08047 -0.0398,-5.310819 z"
     id="223б"
     inkscape:label="2232" /><path
     style="fill:#e6e6e6;fill-opacity:1;stroke-width:0.121882"
     d="m 132.99768,60.230973 -2.28717,-0.02012 0.0199,1.991557 2.72471,-0.06035 -0.0398,-1.589222 -0.47732,-0.02012 z"
     id="223а"
     inkscape:label="2231" /><path
     style="fill:#e6e6e6;fill-opacity:1;stroke-width:0.121882"
     d="m 133.57445,54.316654 -0.0398,2.77611 h 2.18772 l 0.0199,-2.735877 z"
     id="223"
     inkscape:label="223" /><path
     style="fill:#e6e6e6;fill-opacity:1;stroke-width:0.121882"
     d="m 136.33893,54.356887 5.98641,0.04023 0.11933,4.727433 -6.14552,-0.02012 z"
     id="222"
     inkscape:label="222" /><path
     style="fill:#e6e6e6;fill-opacity:1;stroke-width:0.121882"
     d="m 143.0811,56.449027 h 1.90928 l 0.0398,3.962997 -1.92917,-0.02012 z"
     id="224"
     inkscape:label="224" /><path
     style="fill:#e6e6e6;fill-opacity:1;stroke-width:0.121882"
     d="m 145.70637,56.449027 -0.0597,4.4458 2.60538,-0.04023 -0.0597,-4.405566 z"
     id="path58"
     inkscape:label="224" /><path
     style="fill:#e6e6e6;fill-opacity:1;stroke-width:0.121882"
     d="m 148.86862,56.449027 0.0199,5.632686 2.24739,-0.02012 -0.0398,-5.632686 z"
     id="path59"
     inkscape:label="224" /><path
     style="fill:#e6e6e6;fill-opacity:1;stroke-width:0.121882"
     d="m 151.79221,56.469145 -0.0398,3.057744 2.36672,-0.04023 -0.0597,-2.977276 z"
     id="225"
     inkscape:label="225" /><path
     style="fill:#e6e6e6;fill-opacity:1;stroke-width:0.121882"
     d="m 154.79536,56.529495 2.9236,0.04023 -0.0398,5.592453 c 0,0 -2.84404,-0.04023 -2.82416,-0.04023 z"
     id="path60"
     sodipodi:nodetypes="ccccc"
     inkscape:label="225" /><path
     style="fill:#e6e6e6;fill-opacity:1;stroke-width:0.121882"
     d="m 124.20701,67.553465 h 2.52583 l -0.0398,5.411403 -2.50593,0.02012 z"
     id="239"
     inkscape:label="239" /><path
     style="fill:#e6e6e6;fill-opacity:1;stroke-width:0.121882"
     d="m 127.3096,67.533349 2.00873,0.06035 -0.0398,5.471752 -1.94906,-0.02012 z"
     id="238"
     inkscape:label="238" /><path
     style="fill:#e6e6e6;fill-opacity:1;stroke-width:0.121882"
     d="m 129.99454,67.593699 h 5.09142 l -0.0398,5.411402 h -5.01187 z"
     id="237"
     inkscape:label="237" /><path
     style="fill:#e6e6e6;fill-opacity:1;stroke-width:0.121882"
     d="m 138.4471,67.593699 h 1.57119 l 0.0199,4.486032 h -2.52583 l 0.0398,-1.388054 h 0.95464 z"
     id="235ж"
     inkscape:label="235ж" /><path
     style="fill:#e6e6e6;fill-opacity:1;stroke-width:0.121882"
     d="m 140.43594,72.743584 -4.75332,-0.02012 0.11932,5.411402 h 4.59422 z"
     id="235е"
     inkscape:label="235е" /><path
     style="fill:#e6e6e6;fill-opacity:1;stroke-width:0.121882"
     d="m 140.31661,78.73837 -4.51467,0.04023 v 6.457473 l 6.58306,0.06035 0.0795,-4.9286 -2.10816,0.06035 z"
     id="235д"
     inkscape:label="235д" /><path
     style="fill:#e6e6e6;fill-opacity:1;stroke-width:0.121882"
     d="m 148.29185,77.471017 -2.44626,0.04023 -0.0795,5.491869 h 2.60538 z"
     id="235а"
     inkscape:label="2351" /><path
     style="fill:#e6e6e6;fill-opacity:1;stroke-width:0.121882"
     d="m 148.31175,83.707203 h -2.52583 l -0.0199,1.830623 2.60538,-0.06035 z"
     id="235б"
     inkscape:label="2352" /><path
     style="fill:#e6e6e6;fill-opacity:1;stroke-width:0.121882"
     d="m 148.33163,86.101095 -4.59421,0.04023 v 5.431519 l 4.55443,-0.02011 z"
     id="235в"
     inkscape:label="2353" /><path
     style="fill:#e6e6e6;fill-opacity:1;stroke-width:0.121882"
     d="m 161.79607,75.41911 h -7.67692 l -0.11932,5.190117 7.83602,0.04023 z"
     id="234а"
     inkscape:label="234а" /><path
     style="fill:#e6e6e6;fill-opacity:1;stroke-width:0.121882"
     d="m 161.79607,81.574829 -4.69365,0.08047 0.0398,1.528872 4.77322,-0.04023 z"
     id="234б"
     inkscape:label="234б" /><path
     style="fill:#e6e6e6;fill-opacity:1;stroke-width:0.121882"
     d="m 161.83585,88.012182 -4.73343,-0.04022 -0.0398,3.58078 4.81299,0.08047 z"
     id="234"
     inkscape:label="234" /><path
     style="fill:#e6e6e6;fill-opacity:1;stroke-width:0.121882"
     d="m 165.6942,56.388677 -2.9236,-0.02012 -0.0597,4.365331 3.0628,0.06035 z"
     id="233"
     inkscape:label="233" /><path
     style="fill:#e6e6e6;fill-opacity:1;stroke-width:0.121882"
     d="m 166.41018,56.388677 -0.0795,5.652803 4.09701,-0.06035 v 0.804669 h -4.01746 l 0.0398,3.540546 7.55759,-0.120701 v -9.6158 z"
     id="path61"
     inkscape:label="233" /><path
     style="fill:#e6e6e6;fill-opacity:1;stroke-width:0.121882"
     d="m 174.80308,56.549612 -0.0398,2.977277 3.18215,0.02012 0.0199,-2.977277 z"
     id="path65"
     inkscape:label="224" /><path
     style="fill:#e6e6e6;fill-opacity:1;stroke-width:0.121882"
     d="m 178.66143,56.549612 0.0199,2.977277 h 2.94348 l -0.0398,-3.017511 z"
     id="226"
     inkscape:label="226" /><path
     style="fill:#e6e6e6;fill-opacity:1;stroke-width:0.121882"
     d="m 182.40045,56.489262 0.0398,3.077861 h 3.34125 l -0.0597,-3.037628 z"
     id="227"
     inkscape:label="227" /><path
     style="fill:#e6e6e6;fill-opacity:1;stroke-width:0.121882"
     d="m 186.47757,56.509378 -0.0398,3.077861 3.10258,0.06035 0.0597,-3.097977 z"
     id="228"
     inkscape:label="228" /><path
     style="fill:#e6e6e6;fill-opacity:1;stroke-width:0.0829973"
     d="m 190.23647,56.446588 0.0277,3.178443 1.61393,0.04023 -0.009,-3.19856 z"
     id="230"
     inkscape:label="230" /><path
     style="display:inline;fill:#e6e6e6;fill-opacity:1;stroke-width:0.0829973"
     d="m 192.11317,56.498305 0.0276,3.178443 1.61393,0.04023 -0.009,-3.198562 z"
     id="229"
     inkscape:label="229" /><path
     style="fill:#e6e6e6;fill-opacity:1;stroke-width:0.121882"
     d="m 194.51248,56.589845 -0.0795,3.07786 1.45185,-0.04023 -0.0597,-3.13821 z"
     id="231"
     inkscape:label="231" /><path
     style="fill:#e6e6e6;fill-opacity:1;stroke-width:0.121882"
     d="m 196.50132,56.529495 -0.0994,3.037628 4.81299,0.08047 v -3.118098 z"
     id="path66"
     inkscape:label="238" /></g><g
   id="g163"
   style="display:inline;fill:#e6e6e6;fill-opacity:1"><g
     id="g211"><path
       style="fill:#e6e6e6;fill-opacity:1;stroke-width:0.263077"
       d="m 109.18393,52.642073 3.37561,0.374177 -0.39305,5.098166 -3.44498,-0.46772 z"
       id="path137"
       inkscape:label="217г" /><path
       style="fill:#e6e6e6;fill-opacity:1;stroke-width:0.263077"
       d="m 108.3747,52.571917 -2.28894,-0.25725 -0.55489,5.098167 2.3583,0.233862 z"
       id="path138"
       inkscape:label="217в" /><path
       style="fill:#e6e6e6;fill-opacity:1;stroke-width:0.263077"
       d="m 105.2303,52.127581 -4.2542,-0.444336 -0.85546,8.956868 4.06923,0.397565 z"
       id="path139"
       inkscape:label="217б" /><path
       style="fill:#e6e6e6;fill-opacity:1;stroke-width:0.263077"
       d="m 96.768147,51.309066 -0.901706,8.863327 1.225393,0.140316 0.06936,-0.350792 0.832343,0.11693 -0.115603,0.374179 1.317875,0.11693 0.994191,-8.956871 -1.433484,-0.11693 -0.693619,7.2263 -0.7861,-0.07016 0.71674,-7.249686 z"
       id="path140"
       inkscape:label="217а" /><path
       style="fill:#e6e6e6;fill-opacity:1;stroke-width:0.263077"
       d="m 82.456476,49.85913 8.138462,0.841899 -0.832342,8.723008 -8.230947,-0.935442 z"
       id="path141"
       inkscape:label="216" /><path
       style="fill:#e6e6e6;fill-opacity:1;stroke-width:0.263077"
       d="m 77.578023,49.274478 3.838023,0.374176 -0.901703,8.793168 -3.953629,-0.420949 z"
       id="path142"
       inkscape:label="215" /><path
       style="fill:#e6e6e6;fill-opacity:1;stroke-width:0.263077"
       d="m 68.075444,48.315649 8.392789,0.888669 -0.809224,8.793168 -8.46215,-0.888672 z"
       id="path143"
       inkscape:label="214" /><path
       style="fill:#e6e6e6;fill-opacity:1;stroke-width:0.263077"
       d="m 62.919543,47.777767 4.231074,0.42095 -0.786101,8.816554 -4.369799,-0.467723 z"
       id="path144"
       inkscape:label="213" /><path
       style="fill:#e6e6e6;fill-opacity:1;stroke-width:0.263077"
       d="m 59.405207,47.380204 2.705112,0.327406 -0.947945,8.676238 -2.681994,-0.304019 z"
       id="path145"
       inkscape:label="212а" /><path
       style="fill:#e6e6e6;fill-opacity:1;stroke-width:0.263077"
       d="m 49.879507,46.444762 8.577752,0.865285 -0.901703,8.699622 -8.554634,-0.982215 z"
       id="path146"
       inkscape:label="211" /><path
       style="fill:#e6e6e6;fill-opacity:1;stroke-width:0.263077"
       d="m 40.515652,45.415774 8.346547,0.912058 -0.855464,8.699622 -8.577755,-0.958829 z"
       id="path147"
       inkscape:label="210" /><path
       style="fill:#e6e6e6;fill-opacity:1;stroke-width:0.263077"
       d="m 31.110409,44.499609 8.435958,0.843359 -0.915531,8.582422 -8.485003,-0.810287 z"
       id="path148"
       inkscape:label="209" /><path
       style="fill:#e6e6e6;fill-opacity:1;stroke-width:0.263077"
       d="m 26.042295,43.937369 4.185281,0.380339 -0.588555,5.78776 -4.20163,-0.363802 z"
       id="path149"
       inkscape:label="208" /><path
       style="fill:#e6e6e6;fill-opacity:1;stroke-width:0.263077"
       d="m 25.348517,50.502248 2.369865,0.23386 -0.196525,2.315223 -2.450788,-0.292328 z"
       id="path150"
       inkscape:label="207" /><path
       style="display:inline;fill:#e6e6e6;fill-opacity:1;stroke-width:0.263077"
       d="m 16.747642,42.913464 3.745542,0.327403 -0.578015,5.823135 -3.884267,-0.374176 z"
       id="path151"
       inkscape:label="206" /><path
       style="fill:#e6e6e6;fill-opacity:1;stroke-width:0.263077"
       d="M 9.3952814,55.214543 16.65516,55.962899 16.331471,59.190178 9.0715926,58.465209 Z"
       id="path152"
       inkscape:label="205" /><path
       style="fill:#e6e6e6;fill-opacity:1;stroke-width:0.263077"
       d="M 9.0022307,59.260334 16.262109,59.985303 15.93842,63.095652 8.6785418,62.300527 Z"
       id="path153"
       inkscape:label="204" /><path
       style="fill:#e6e6e6;fill-opacity:1;stroke-width:0.263077"
       d="m 7.2575755,76.315754 4.8228825,0.529167 -0.604904,6.151562 -4.8719287,-0.578776 z"
       id="path154"
       inkscape:label="202" /><path
       style="fill:#e6e6e6;fill-opacity:1;stroke-width:0.263077"
       d="m 18.521868,77.126041 8.01089,0.843359 -0.670299,6.846094 -8.027239,-0.942578 z"
       id="path155"
       inkscape:label="252" /><path
       style="fill:#e6e6e6;fill-opacity:1;stroke-width:0.263077"
       d="m 17.115875,90.652863 8.043587,0.892969 0.621253,-5.936588 -8.125331,-0.79375 z"
       id="path156"
       inkscape:label="253" /><path
       style="fill:#e6e6e6;fill-opacity:1;stroke-width:0.263077"
       d="m 16.756202,93.877473 8.059936,0.909505 0.277929,-2.38125 -8.092634,-0.926042 z"
       id="path157"
       inkscape:label="254" /><path
       style="fill:#e6e6e6;fill-opacity:1;stroke-width:0.263077"
       d="m 24.374722,98.55729 -7.961844,-0.876432 0.277929,-2.993099 7.961844,0.876433 z"
       id="path158"
       inkscape:label="255" /><path
       style="fill:#e6e6e6;fill-opacity:1;stroke-width:0.263077"
       d="m 23.361099,109.0414 -8.043587,-0.99218 1.029971,-9.475393 7.863751,0.909505 z"
       id="path159"
       inkscape:label="256" /><path
       style="fill:#e6e6e6;fill-opacity:1;stroke-width:0.263077"
       d="m 14.990474,102.38427 -2.335184,-0.23386 -0.300568,3.85871 -1.132911,-0.0234 0.254327,-1.54348 -7.1442747,-0.72497 -0.6011364,6.87551 6.9824301,0.77174 0.416172,-4.02241 0.947946,0.14031 -0.393051,4.0458 2.381425,0.23386 z"
       id="path160"
       inkscape:label="257" /><path
       style="fill:#e6e6e6;fill-opacity:1;stroke-width:0.263077"
       d="m 5.4185328,93.61449 7.0980342,0.724969 -0.924826,9.190731 -7.121154,-0.74835 z"
       id="path161"
       inkscape:label="201" /><path
       style="fill:#e6e6e6;fill-opacity:1;stroke-width:0.263077"
       d="m 6.1352725,86.738983 5.2252625,0.467722 -0.346809,3.390982 1.895891,0.187087 -0.300568,2.829716 -7.0980337,-1.005599 z"
       id="path162"
       inkscape:label="202" /><path
       style="fill:#e6e6e6;fill-opacity:1;stroke-width:0.263077"
       d="m 8.6962659,63.202343 6.9972671,0.661458 -0.719345,7.474479 -7.1607548,-0.826823 0.4250676,-3.075781 3.6621212,0.429948 0.0654,-0.992187 -3.6948187,-0.496094 z"
       id="path163"
       inkscape:label="туалет" /><path
       style="display:inline;fill:#e6e6e6;fill-opacity:1;stroke-width:0.263077"
       d="m 106.54817,65.2004 4.69349,0.561265 -0.73986,7.249687 -4.62413,-0.444336 z"
       id="path165"
       inkscape:label="240а" /><path
       style="fill:#e6e6e6;fill-opacity:1;stroke-width:0.263077"
       d="m 103.65809,64.802837 -4.87845,-0.608039 -0.04624,0.537882 -0.878585,-0.163703 0.02312,-0.467723 -1.780291,-0.210473 -0.254326,1.941044 1.780288,0.23386 0.06936,-0.327406 0.947945,0.09355 -0.06936,0.280633 4.970929,0.561266 z"
       id="path166"
       inkscape:label="240ж" /><path
       style="fill:#e6e6e6;fill-opacity:1;stroke-width:0.263077"
       d="m 106.16754,77.952864 -3.26975,-0.297657 -1.11171,10.88099 3.26975,0.297656 z"
       id="path167"
       inkscape:label="240в" /><path
       style="fill:#e6e6e6;fill-opacity:1;stroke-width:0.263077"
       d="m 107.14847,78.184374 2.6485,0.23151 -1.01363,10.715625 -2.77928,-0.297656 z"
       id="path168"
       inkscape:label="240г" /><path
       style="fill:#e6e6e6;fill-opacity:1;stroke-width:0.263077"
       d="m 102.767,73.951041 -0.22888,2.678906 -3.923702,-0.396875 -0.686647,5.820833 -3.629424,-0.396875 0.948228,-8.367448 z"
       id="path169"
       inkscape:label="240д" /><path
       style="fill:#e6e6e6;fill-opacity:1;stroke-width:0.263077"
       d="m 81.677108,67.70026 8.207075,0.892968 -1.83106,17.131771 -8.27247,-0.926042 z"
       id="path170"
       inkscape:label="242а" /><path
       style="fill:#e6e6e6;fill-opacity:1;stroke-width:0.263077"
       d="m 74.908724,72.92578 5.133509,0.56224 -1.275203,11.211719 -5.068114,-0.628386 z"
       id="path171"
       inkscape:label="246" /><path
       style="fill:#e6e6e6;fill-opacity:1;stroke-width:0.263077"
       d="m 66.341976,72.098957 7.651217,0.727605 -1.340597,11.211718 -7.48773,-0.859896 z"
       id="path172"
       inkscape:label="247" /><path
       style="fill:#e6e6e6;fill-opacity:1;stroke-width:0.263077"
       d="m 61.462943,72.520246 3.838023,0.374176 -1.063548,10.289876 -3.791784,-0.397563 z"
       id="path173"
       inkscape:label="248" /><path
       style="fill:#e6e6e6;fill-opacity:1;stroke-width:0.263077"
       d="m 51.474829,71.397711 9.063289,1.028988 -0.601137,4.911077 -8.947684,-0.841899 z"
       id="path174"
       inkscape:label="249" /><path
       style="fill:#e6e6e6;fill-opacity:1;stroke-width:0.263077"
       d="m 48.307303,64.007711 8.369668,0.912056 -0.462413,6.080381 -8.531513,-1.075759 z"
       id="path175"
       inkscape:label="249б" /><path
       style="fill:#e6e6e6;fill-opacity:1;stroke-width:0.259986"
       d="m 48.758156,59.131713 8.670236,0.845065 -0.34681,4.042625 -8.78584,-0.936427 z"
       id="path176"
       inkscape:label="249а" /><g
       id="g210"
       inkscape:label="240б"><path
         style="display:inline;fill:#ffffff;fill-opacity:1;stroke-width:0.263077"
         d="m 111.46454,72.826562 5.72206,-0.33073 -0.0654,17.760156 -7.48773,-0.79375 z"
         id="path210"
         inkscape:label="240б" /><path
         style="fill:#e6e6e6;fill-opacity:1;stroke-width:0.263077"
         d="m 112.34737,72.727343 -1.04632,1.322916 -0.0981,0.926042 1.92915,-2.348177 z"
         id="path198"
         inkscape:label="240б" /><path
         style="fill:#e6e6e6;fill-opacity:1;stroke-width:0.263077"
         d="m 111.10487,75.803124 v 1.190625 l 3.49863,-4.332552 -0.81744,0.06615 z"
         id="path199"
         inkscape:label="240б" /><path
         style="fill:#e6e6e6;fill-opacity:1;stroke-width:0.263077"
         d="m 111.00677,77.655207 -0.13079,1.289844 5.3624,-6.416146 -1.07902,0.132292 z"
         id="path200"
         inkscape:label="240б" /><path
         style="fill:#e6e6e6;fill-opacity:1;stroke-width:0.263077"
         d="m 110.74519,79.705728 -0.19618,1.190625 6.5395,-7.441406 0.13079,-0.926042 -0.58855,0.03307 z"
         id="path201"
         inkscape:label="240б" /><path
         style="fill:#e6e6e6;fill-opacity:1;stroke-width:0.263077"
         d="m 110.48361,81.623957 -0.13079,1.091407 6.83378,-7.242969 v -1.289844 z"
         id="path202"
         inkscape:label="240б" /><path
         style="fill:#e6e6e6;fill-opacity:1;stroke-width:0.263077"
         d="m 110.28743,83.277603 -0.13079,0.992188 6.99727,-7.044532 -0.0327,-1.02526 z"
         id="path203"
         inkscape:label="240б" /><path
         style="fill:#e6e6e6;fill-opacity:1;stroke-width:0.263077"
         d="m 110.05855,84.964322 -0.13079,1.02526 c 0,0 7.25884,-6.746875 7.25884,-6.879166 0,-0.132292 -0.13079,-1.025261 -0.13079,-1.025261 z"
         id="path204"
         inkscape:label="240б" /><path
         style="fill:#e6e6e6;fill-opacity:1;stroke-width:0.263077"
         d="m 109.92776,86.551822 -0.22889,1.02526 7.42234,-6.383073 -0.0654,-1.058333 z"
         id="path205"
         inkscape:label="240б" /><path
         style="fill:#e6e6e6;fill-opacity:1;stroke-width:0.263077"
         d="m 117.05581,82.020832 -7.22615,6.151563 -0.16348,0.826823 7.42233,-5.853907 z"
         id="path206"
         inkscape:label="240б" /><path
         style="fill:#e6e6e6;fill-opacity:1;stroke-width:0.263077"
         d="m 110.18934,89.462238 6.83378,-5.457031 v 1.058334 l -5.59128,4.464843 z"
         id="path207"
         inkscape:label="240б" /><path
         style="fill:#e6e6e6;fill-opacity:1;stroke-width:0.263077"
         d="m 112.44547,89.627603 4.54495,-3.571875 -0.0327,1.058333 -3.53133,2.645834 z"
         id="path208"
         inkscape:label="240б" /><path
         style="fill:#e6e6e6;fill-opacity:1;stroke-width:0.263077"
         d="m 117.05581,88.00703 -2.45231,1.885156 0.98093,0.09922 1.43869,-1.058333 z"
         id="path209"
         inkscape:label="240б" /></g></g></g><path
   style="fill:#e6e6e6;fill-opacity:1;stroke-width:0.264583"
   d="m 75.852733,66.989192 1.471745,0.148828 -0.396875,3.108854 -1.438672,-0.165364 z"
   id="path177"
   transform="matrix(0.98864913,0,0,1,0.0314258,0)" /><path
   style="fill:#e6e6e6;fill-opacity:1;stroke-width:0.264583"
   d="m 72.991926,66.708072 2.033985,0.248047 -0.264584,2.364713 -2.000911,-0.115755 z"
   id="path178"
   transform="matrix(0.98864913,0,0,1,0.0314258,0)" /></g></svg>
