<?xml version="1.0" encoding="UTF-8" standalone="no"?>
<!-- Created with Inkscape (http://www.inkscape.org/) -->

<svg
   width="210mm"
   height="150mm"
   viewBox="0 0 210 150"
   version="1.1"
   id="svg1"
   xml:space="preserve"
   inkscape:version="1.4.3 (0d15f75, 2025-12-25)"
   sodipodi:docname="2.svg"
   xmlns:inkscape="http://www.inkscape.org/namespaces/inkscape"
   xmlns:sodipodi="http://sodipodi.sourceforge.net/DTD/sodipodi-0.dtd"
   xmlns="http://www.w3.org/2000/svg"
   xmlns:svg="http://www.w3.org/2000/svg"><sodipodi:namedview
     id="namedview1"
     pagecolor="#505050"
     bordercolor="#eeeeee"
     borderopacity="1"
     inkscape:showpageshadow="0"
     inkscape:pageopacity="0"
     inkscape:pagecheckerboard="0"
     inkscape:deskcolor="#505050"
     inkscape:document-units="mm"
     inkscape:zoom="1"
     inkscape:cx="319"
     inkscape:cy="193.5"
     inkscape:window-width="1920"
     inkscape:window-height="1057"
     inkscape:window-x="-8"
     inkscape:window-y="-8"
     inkscape:window-maximized="1"
     inkscape:current-layer="svg1" /><defs
     id="defs1" /><path
     style="display:inline;fill:#ffffff;fill-opacity:1;stroke-width:0.264583"
     d="M 6.4263155,26.226315 2.2578947,66.86842 15.978947,66.347366 16.326315,116.19473 H 29.526314 L 29.7,109.76842 h 25.010525 l 0.173683,-14.415792 17.194736,0.521055 v 13.373677 h 42.031576 l -0.17368,-43.768415 25.35789,0.521054 0.17369,5.731579 67.38947,0.521052 0.34737,-40.989472 -93.4421,0.173683 v -3.126316 h -10.07369 v 3.647368 L 71.384209,31.436841 71.036841,26.747366 Z"
     id="path2"
     inkscape:label="background" /><g
     inkscape:groupmode="layer"
     id="layer2"
     inkscape:label="walls"
     style="display:inline"><g
       id="g48"
       inkscape:label="inner walls"
       style="display:inline;fill:#606060;fill-opacity:1"
       transform="matrix(1.1316384,0,0,1.1194975,-7.4085185,-59.475364)"><path
         style="display:inline;fill:#606060;fill-opacity:1;stroke-width:0.264583"
         d="M 3.6473683,54.884208 19.713158,55.057894 19.8,55.752632 H 3.386842 Z"
         id="path3"
         transform="matrix(0.88367451,0,0,0.89325792,6.5467189,53.126839)" /><path
         style="display:inline;fill:#606060;fill-opacity:1;stroke-width:0.264583"
         d="m 15.805263,68.171051 8.597368,0.173683 v 0.521055 l -8.423684,0.260524 z"
         id="path4"
         transform="matrix(0.88367451,0,0,0.89325792,6.5467189,53.126839)" /><path
         style="display:inline;fill:#606060;fill-opacity:1;stroke-width:0.264583"
         d="m 16.152631,71.992103 6.773684,-0.173683 0.08684,0.607893 -7.46842,0.173686 z"
         id="path5"
         transform="matrix(0.88367451,0,0,0.89325792,6.5467189,53.126839)" /><path
         style="fill:#606060;fill-opacity:1;stroke-width:0.23507"
         d="m 30.566388,114.25389 h 1.841764 v -11.71343 l 3.837006,0.0776 0.07674,0.62058 -3.299827,-0.15515 v 11.248 l 5.525293,-0.0776 -0.07674,-11.63586 h 1.227844 l 0.07674,0.62058 -0.997623,-0.15515 0.153482,11.32557 4.374188,-0.0776 0.306961,-11.09285 -1.688284,-0.0776 -0.07674,-0.54301 7.980975,0.0776 v 0.69815 l -5.602032,-0.15514 -0.07674,11.01528 10.436662,0.0776 0.07674,-11.09285 -2.685904,0.0776 v -0.69815 l 13.966709,0.0776 -0.07674,0.62058 H 64.71576 v 3.6459 h -0.46044 v -3.80104 l -3.837009,0.15514 v 5.97308 h -1.688282 l -0.07674,3.33561 5.602033,-0.15515 -0.07674,-3.33561 0.3837,0.0776 0.230219,3.18047 1.074363,0.0776 v 0.46544 h -0.460441 v 6.36093 l -0.53718,-0.0776 0.15348,-6.20579 h -9.746 l 0.07674,11.17043 9.66926,0.15514 -0.07674,-2.94775 0.53718,0.0776 v 6.28337 h -0.53718 l -0.07674,-3.02533 h -9.439041 l -0.153479,13.4976 h -0.53718 l 0.07674,-6.7488 -5.218332,-0.0776 v -3.80105 h 0.613922 v 3.02532 l 4.60441,-0.15514 -0.07674,-5.74036 h -4.52767 l 0.07674,0.54301 h -0.690662 l 0.07674,-1.16359 h 5.064852 l 0.07674,-9.38626 -3.299826,0.15515 0.07674,4.65434 0.383701,0.0776 v 0.69816 h -0.997623 l 0.153482,-5.27493 -3.146347,-0.15514 -0.07674,5.35249 -0.767403,-0.15514 0.07674,-5.3525 H 44.07266 l -0.07674,5.27493 -0.844143,-0.0776 0.07674,-4.88706 -10.283182,-0.15514 -0.306961,8.9984 15.19455,0.0776 v 1.78416 l -0.3837,0.0776 -0.383701,-1.24116 -5.52529,-0.15515 0.07674,3.6459 5.525291,0.0776 0.07674,-0.46544 h 0.3837 v 1.62902 h -0.3837 v -0.543 H 41.31001 l 0.153482,3.6459 5.832251,-0.23272 -0.153481,-0.77572 0.690661,0.0776 -0.153479,1.16359 -6.139212,0.15514 -0.07674,3.95619 -0.460443,-0.0776 0.07674,-12.10129 -8.748379,-0.0776 v -9.30869 l -1.841764,-0.15515 z"
         id="path6" /><path
         style="fill:#606060;fill-opacity:1;stroke-width:0.23507"
         d="m 54.67843,139.90265 c -0.488373,-0.16455 -2.224803,0.0549 -2.224803,0.0549 l 0.05426,0.43881 2.279066,0.10971 z"
         id="path7" /><path
         style="fill:#606060;fill-opacity:1;stroke-width:0.23507"
         d="m 54.569902,145.82667 -3.689917,0.0548 -0.05426,0.60337 3.744181,0.0548 z"
         id="path8" /><path
         style="fill:#606060;fill-opacity:1;stroke-width:0.23507"
         d="m 48.492391,150.87305 c 0.05426,-0.32911 0,-4.49786 0,-4.49786 l 0.542637,-0.10971 -0.108528,-0.38396 -0.488371,-0.1097 v -5.21094 c 0,0 2.170539,0.21941 1.953485,-0.0548 -0.217053,-0.27426 -0.379845,-0.87764 -0.379845,-0.87764 l -2.062013,0.21941 -0.05426,10.9704 z"
         id="path9" /><path
         style="fill:#606060;fill-opacity:1;stroke-width:0.23507"
         d="m 36.091679,141.71452 8.901859,0.0776 c 0,0 0.268588,4.18891 0.115109,4.18891 -0.153482,0 -2.071985,-0.0388 -2.071985,-0.0388 l 0.11511,4.80949 -0.57555,0.0388 0.03837,-8.57175 -6.561283,-0.0388 z"
         id="path10" /><path
         style="fill:#606060;fill-opacity:1;stroke-width:0.23507"
         d="m 42.998292,138.88312 -1.995245,0.11636 0.07674,0.38786 h -5.02648 l 0.03837,0.46544 5.371811,0.0776 v -0.46543 h 1.611542 z"
         id="path11" /><path
         style="fill:#606060;fill-opacity:1;stroke-width:0.23507"
         d="m 32.484892,150.71291 -8.594898,-0.0388 -0.03837,0.54301 8.710007,0.0388 z"
         id="path12" /><path
         style="fill:#606060;fill-opacity:1;stroke-width:0.23507"
         d="m 68.841199,125.55886 0.02713,12.75309 1.492248,0.0274 -0.0814,0.60337 2.007749,-0.0548 -0.108526,-0.68565 -0.434109,-0.0548 0.02713,0.38396 -1.003874,0.0549 -0.244187,-0.35654 -1.193797,-0.0823 0.0814,-12.61595 z"
         id="path13" /><path
         style="fill:#606060;fill-opacity:1;stroke-width:0.23507"
         d="m 71.635769,126.71075 v 9.32484 h 0.379843 l 0.08139,-9.24256 z"
         id="path14" /><path
         style="fill:#606060;fill-opacity:1;stroke-width:0.23507"
         d="m 80.833429,150.37938 -0.624032,-0.0274 0.05426,-11.43663 -6.186036,-0.0274 0.05426,-0.71307 h 0.379842 l -0.02713,0.32911 5.77906,-0.0548 0.0814,-4.25103 -5.751928,-0.0823 -0.02713,1.67299 h -0.406976 l -0.02713,-8.99573 h 0.379842 l 0.05426,6.88392 5.75193,-0.0274 v -11.35436 l -5.670535,-0.0823 -0.05426,2.1118 -0.515503,-0.0823 -0.02713,-1.97467 h -1.546509 l 0.02713,-0.57595 h 7.78681 l 0.02713,-19.99354 -10.879828,0.0549 v 19.88384 h 0.895349 l 0.02713,0.54852 -0.976744,0.0549 v 0.93248 l -0.65116,0.0549 0.189922,-10.09276 -0.976743,-0.0274 0.02713,-0.5211 1.031007,-0.0274 -0.0814,-9.32484 -0.922479,-0.0274 v -0.46624 l 0.895346,-0.0274 -0.02713,-4.744698 h 0.515501 l 0.02713,3.071708 22.655005,-0.0274 v 0.7405 l -1.492247,0.0548 -0.02713,15.71509 1.329456,-0.0274 0.02713,0.63079 -1.356586,0.0274 -0.0814,15.79736 h 1.383717 l 0.02713,0.57595 h -1.410851 l -0.05426,7.29531 h 2.577515 l -0.02713,0.46624 -2.604648,0.0549 0.05426,8.14551 -0.488371,-0.0823 0.0814,-48.59885 -9.089135,-0.0548 z"
         id="path15" /><path
         style="fill:#606060;fill-opacity:1;stroke-width:0.23507"
         d="m 95.430305,141.93218 0.05426,8.94087 c 0,0 0.596898,0.1097 0.596898,-0.10971 0,-0.2194 -0.108528,-8.50205 -0.108528,-8.50205 l 0.379845,-0.0549 -0.05426,-0.38397 z"
         id="path16" /><path
         style="fill:#606060;fill-opacity:1;stroke-width:0.23507"
         d="m 106.68998,141.9596 h -3.25581 l -0.0543,-2.52319 -0.35272,0.0274 -0.0814,2.52319 -4.313949,-0.0549 v -4.55272 l -0.542635,-0.0274 -0.02713,5.04638 8.655024,-0.0548 z"
         id="path17" /><path
         style="fill:#606060;fill-opacity:1;stroke-width:0.23507"
         d="m 106.77137,134.00607 -12.724783,0.0549 -0.05426,0.6308 9.089133,0.0274 -0.0271,2.27636 0.35272,0.0549 0.0271,-2.38606 3.39147,-0.0548 z"
         id="path18" /><path
         style="fill:#606060;fill-opacity:1;stroke-width:0.23507"
         d="m 106.71711,129.45335 -9.821691,0.0823 -0.02713,0.54852 9.957351,-0.0274 z"
         id="path19" /><path
         style="fill:#606060;fill-opacity:1;stroke-width:0.23507"
         d="m 106.77137,117.68761 -10.662778,-0.0822 0.108528,-7.29531 2.848834,0.0274 -0.02713,-0.52109 -2.848832,0.0823 0.05426,-8.50206 h -1.980618 l 0.02713,0.43882 1.410851,0.0274 -0.0814,15.74252 -1.329456,0.0274 0.0814,0.63079 12.453471,-0.0549 z"
         id="path20"
         sodipodi:nodetypes="ccccccccccccccc" /><path
         style="fill:#606060;fill-opacity:1;stroke-width:0.23507"
         d="m 108.68786,101.49323 h -9.976216 l 0.07674,6.167 7.904236,0.0388 0.0884,2.64002 -2.96613,0.0362 -0.0384,0.65936 h 3.06961 l 0.0384,0.73694 c 0,0 0.34533,0.0776 0.34533,-0.19393 0,-0.2715 -0.0767,-6.05065 -0.0767,-6.05065 l -0.3837,0.0388 v 1.59023 l -7.443796,-0.11635 -0.11511,-5.11978 7.621836,-0.0542 4e-5,0.86525 0.26153,0.0156 0.005,-0.86607 1.58862,-0.006 z"
         id="path21"
         sodipodi:nodetypes="cccccccccsccccccccccc" /><path
         style="fill:#606060;fill-opacity:1;stroke-width:0.23507"
         d="m 111.00393,101.424 2.71317,0.0548 0.0271,-3.318545 0.54264,-0.02742 0.0271,3.318545 0.35271,0.0274 0.0271,0.46623 h -0.46124 v 9.54425 l -0.62403,0.0274 0.10853,-9.5991 -2.76744,-0.0549 z"
         id="path22" /><path
         style="fill:#606060;fill-opacity:1;stroke-width:0.23507"
         d="m 116.99499,101.43505 -0.0576,0.46543 h 0.518 l -0.0192,9.67716 0.49882,0.0388 -0.0192,-9.73534 h 0.47963 v -0.46543 z"
         id="path23" /><path
         style="fill:#606060;fill-opacity:1;stroke-width:0.23507"
         d="m 120.73607,101.43505 v 0.46543 l 2.85857,-0.0194 -0.0384,2.5405 h 2.0528 l -0.0767,7.13666 0.46044,0.0388 -0.0192,-7.64088 h -1.93768 l -0.0192,-2.5211 z"
         id="path24" /><path
         style="fill:#606060;fill-opacity:1;stroke-width:0.23507"
         d="m 129.86815,111.63582 0.0575,-9.67716 h -3.54923 v -0.46543 h 3.54923 l 0.0192,-13.109735 1.1511,-0.0194 v 0.446042 l -0.69066,0.0194 0.0192,4.38284 0.40289,-0.03879 -0.0192,0.290898 h -0.36451 l -0.23022,18.190725 z"
         id="path25" /><path
         style="fill:#606060;fill-opacity:1;stroke-width:0.23507"
         d="m 130.04081,81.634695 -0.0384,4.518592 h 0.42207 l -0.0192,-4.499198 z"
         id="path26" /><path
         style="fill:#606060;fill-opacity:1;stroke-width:0.23507"
         d="m 90.864964,93.348127 -0.01917,0.504222 10.590136,0.09696 0.0384,-0.426648 -2.72427,-0.0194 -0.0192,-11.926758 -0.34533,0.155146 -0.05756,11.713432 z"
         id="path27" /><path
         style="fill:#606060;fill-opacity:1;stroke-width:0.23507"
         d="m 91.414806,81.759566 -0.02713,6.746793 -0.515504,-0.02743 v 0.548522 l 1.058138,-0.02743 v -7.24046 z"
         id="path28" /><path
         style="fill:#606060;fill-opacity:1;stroke-width:0.23507"
         d="m 85.69001,81.759566 -0.16279,11.601193 -4.992241,0.05485 0.05426,-0.329112 -0.624029,0.08228 -0.02713,0.630797 8.573631,0.08228 v -0.493667 l -2.360461,0.02743 v -4.470435 l 2.33333,0.02743 0.05426,-0.438817 -2.3062,-0.05485 -0.189922,-6.719366 z"
         id="path29" /><path
         style="fill:#606060;fill-opacity:1;stroke-width:0.23507"
         d="m 80.102158,81.634695 -0.07674,9.075971 h 0.46044 l 0.03837,-9.114757 z"
         id="path30" /><path
         style="fill:#606060;fill-opacity:1;stroke-width:0.23507"
         d="m 73.962945,81.673481 v 8.532965 h -0.498812 v 0.620578 l 0.844143,-0.03879 0.11511,-9.269901 z"
         id="path31" /><path
         style="fill:#606060;fill-opacity:1;stroke-width:0.23507"
         d="m 69.128314,81.518337 -0.268589,5.973074 -9.323929,0.07757 0.03837,0.349076 h 0.53718 v 0.62058 l 0.191851,0.03879 0.03837,-0.698152 8.710008,0.11636 -0.15348,2.559889 -8.211197,0.07757 -0.03837,-0.349076 -0.537182,-0.03879 -0.03837,1.047228 0.575552,-0.03879 -0.03837,-0.271504 3.223087,0.03879 0.03837,0.31029 0.383701,-0.03879 v -0.31029 l 4.642779,0.07757 0.07674,2.288385 -4.56604,-0.07757 -0.03837,-0.271504 -0.46044,0.03879 v 0.271504 l -4.259079,0.07757 -0.07674,0.387862 h 9.362299 V 95.6753 h 0.49881 v -1.978097 l 8.134458,-0.03879 0.03837,-0.387862 -8.019345,0.07757 v -2.598675 l 2.110354,0.07757 V 90.28401 l -2.225466,-0.116358 -0.03837,-8.765681 z"
         id="path32" /><path
         style="fill:#606060;fill-opacity:1;stroke-width:0.23507"
         d="m 55.929009,77.678502 -0.03837,6.011862 -1.841763,-0.03879 -0.03837,0.543006 h 1.841763 l 0.03837,6.787586 h 0.49881 v -2.986537 l 0.959253,-0.07757 -0.115112,-0.349076 -0.844141,-0.03879 0.07674,-9.929267 z"
         id="path33" /><path
         style="fill:#606060;fill-opacity:1;stroke-width:0.23507"
         d="m 50.595568,77.717288 -0.03837,8.455394 0.46044,0.03879 0.03837,-2.094456 h 0.729031 L 51.7083,83.651578 h -0.652292 l 0.03837,-5.93429 z"
         id="path34" /><path
         style="fill:#606060;fill-opacity:1;stroke-width:0.23507"
         d="m 45.300496,77.678502 -0.03837,10.898923 h -1.765023 l 0.03837,0.465433 1.649915,0.03879 v 4.188908 l -1.649915,-0.03879 V 93.6972 l 13.621378,0.07757 -0.03837,-0.581792 -0.767402,0.07757 v -0.581794 l -0.46044,0.03879 -0.02015,0.588446 -3.855227,-0.03173 -0.02248,-1.149873 -0.496484,0.02508 0.02015,1.111087 -5.832254,0.03879 v -4.188908 l 5.103222,-0.03879 -0.03837,0.581791 H 51.20949 V 88.61621 L 45.760939,88.655 45.722569,77.63972 Z"
         id="path35"
         sodipodi:nodetypes="ccccccccccccccccccccccccccc" /><path
         style="fill:#606060;fill-opacity:1;stroke-width:0.23507"
         d="m 10.942061,93.278479 7.16278,0.05485 v 0.329112 l -7.32557,0.164555 z"
         id="path36" /><path
         style="fill:#606060;fill-opacity:1;stroke-width:0.23507"
         d="m 17.17523,77.60093 v 5.624001 l 1.074362,0.03879 -0.07674,-0.698152 h -0.422071 l 0.07674,-5.042207 z"
         id="path37" /><path
         style="fill:#606060;fill-opacity:1;stroke-width:0.23507"
         d="m 23.007482,77.60093 0.03837,4.887061 -2.609165,-0.03879 0.03837,0.543008 h 2.570795 l -0.03837,10.123198 -2.609165,0.116358 0.03837,0.465434 h 4.182338 l 0.03837,-0.581792 -1.189472,-0.03879 0.03837,-5.352496 1.227843,0.03879 0.03837,-0.426648 -1.227843,-0.07757 -0.11511,-9.696551 z"
         id="path38" /><path
         style="fill:#606060;fill-opacity:1;stroke-width:0.23507"
         d="m 30.029206,77.639716 -0.15348,9.774123 -2.954496,-0.03879 -0.03837,0.465434 8.096087,0.03879 -0.115112,-0.620578 -4.335819,0.03879 -0.07674,-9.657765 z"
         id="path39" /><path
         style="fill:#606060;fill-opacity:1;stroke-width:0.23507"
         d="m 37.166041,77.60093 v 15.592053 h -9.97622 l -0.07674,0.50422 13.928339,0.03879 c 0,0 0.03837,-6.360936 -0.115111,-6.399722 -0.15348,-0.03879 -0.53718,0 -0.53718,0 l 0.115109,5.934288 -2.839386,-0.03879 0.03837,-15.824768 z"
         id="path40" /><path
         style="fill:#606060;fill-opacity:1;stroke-width:0.23507"
         d="m 137.4845,81.485306 -0.10852,6.911348 -3.96124,0.109705 0.0543,0.383965 8.03099,0.219407 v -0.493667 l -3.47286,-0.21941 -0.0543,-6.911348 z"
         id="path41" /><path
         style="fill:#606060;fill-opacity:1;stroke-width:0.23507"
         d="m 144.64728,81.595011 -0.0543,6.911348 -1.13953,-0.05485 0.0543,0.493667 6.40309,0.05485 -0.10852,-0.493667 h -4.55814 v -6.856496 z"
         id="path42" /><path
         style="fill:#606060;fill-opacity:1;stroke-width:0.23507"
         d="m 152.50649,81.595909 0.0384,7.446949 4.873,0.03879 v -0.504222 l -4.33582,-0.03879 -0.11511,-6.981516 z"
         id="path43" /><path
         style="fill:#606060;fill-opacity:1;stroke-width:0.23507"
         d="m 159.87355,81.634695 v 7.524523 l 0.53718,-0.07757 v -7.602096 z"
         id="path44" /><path
         style="fill:#606060;fill-opacity:1;stroke-width:0.23507"
         d="m 162.78967,88.693782 h 2.60917 v 0.387865 l -2.45569,0.07757 z"
         id="path45" /><path
         style="fill:#606060;fill-opacity:1;stroke-width:0.23507"
         d="m 168.04637,81.751053 -0.0767,7.524523 h 0.49882 l 0.0384,-7.757239 z"
         id="path46" /><path
         style="fill:#606060;fill-opacity:1;stroke-width:0.23507"
         d="m 171.88755,81.430456 0.0543,7.185608 -1.1938,0.05485 -0.0543,0.603372 2.00775,-0.05485 -0.16279,-0.713074 h -0.27132 l 0.16279,-6.966201 z"
         id="path47" /><path
         style="fill:#606060;fill-opacity:1;stroke-width:0.23507"
         d="m 174.70925,88.506359 7.54263,0.164555 0.0543,-6.911348 0.48837,0.05485 0.0543,1.261596 h 0.48837 v 0.438815 l -0.43411,0.05485 -0.0543,5.759457 -8.08526,-0.05485 z"
         id="path48" /><path
         style="fill:#606060;fill-opacity:1;stroke-width:0.23507"
         d="m 185.56195,81.704716 -0.0671,6.198271 h 0.39273 l -0.0165,-6.201314 z"
         id="path49"
         sodipodi:nodetypes="ccccc" /><path
         style="fill:#606060;fill-opacity:1;stroke-width:0.23507"
         d="m 132.16668,93.113925 52.52706,0.274259 v 0.603372 h -2.65891 l -0.0543,7.075904 2.55039,-0.0549 0.10852,0.54852 -2.71317,0.0548 -0.0543,15.68766 -0.48837,-0.0549 0.10853,-23.366939 -35.48832,-0.05485 -0.16279,23.366939 -0.65116,-0.0549 0.10853,-11.46407 -5.26356,-0.1097 0.21705,-0.49367 h 5.10077 l -0.0543,-6.527379 -3.85271,0.05485 0.0543,4.168749 -0.65116,-0.0549 0.16279,-4.223604 h -3.36433 l -0.0543,1.426151 -0.54263,-0.02742 0.0543,-3.318544 h 0.46124 l 0.0543,1.343873 7.75968,0.13713 -0.0271,-4.305881 -7.81394,-0.05485 -0.0271,0.35654 h -0.65116 l 0.0271,-0.383965 h -4.74806 z"
         id="path50" /><path
         style="fill:#606060;fill-opacity:1;stroke-width:0.23507"
         d="m 133.49614,95.719392 -0.0543,7.103328 c 0,0 4.25968,0.16456 4.17828,0.0274 -0.0814,-0.13713 -0.0543,-0.85021 -0.0543,-0.85021 h -0.62403 l 0.0271,0.35654 -2.87596,-0.0823 -0.0814,-6.582233 z"
         id="path51" /><path
         style="fill:#606060;fill-opacity:1;stroke-width:0.23507"
         d="m 130.18607,105.07165 3.9341,-0.0549 -0.0543,0.6308 -4.06975,0.0823 z"
         id="path52" /><path
         style="fill:#606060;fill-opacity:1;stroke-width:0.23507"
         d="m 136.20931,104.98938 -0.0271,0.54851 h 0.84109 l -0.0543,11.46407 0.5969,-0.0274 0.0543,-11.84802 z"
         id="path53" /><path
         style="fill:#606060;fill-opacity:1;stroke-width:0.23507"
         d="m 186.69423,93.425699 h 2.34058 l -0.0384,0.659366 -2.30221,-0.155144 z"
         id="path54" /><path
         style="fill:#606060;fill-opacity:1;stroke-width:0.23507"
         d="m 188.99644,100.98901 -2.45569,0.0776 -0.0384,0.58179 2.49406,-0.0388 z"
         id="path55" /><path
         style="display:inline;fill:#606060;fill-opacity:1;stroke-width:0.264583"
         d="m 113.58947,31.697369 v 13.634209 l -3.77763,-0.04342 v 0.651314 l 4.29868,-0.130262 -0.0434,-3.256579 7.29474,0.04342 -0.0868,5.253947 0.78158,0.04342 -0.13027,-2.344735 8.90132,0.08684 -0.0434,-0.825 -8.77105,0.130262 -0.0868,-9.335526 h -0.56447 v 6.426316 l -7.20789,0.08684 -0.17369,-10.464472 z"
         id="path96"
         transform="matrix(0.88367451,0,0,0.89325792,6.5467189,53.126839)" /><path
         style="display:inline;fill:#606060;fill-opacity:1;stroke-width:0.264583"
         d="m 121.36184,31.740789 0.0434,1.302632 0.52105,0.08684 0.0434,-1.476314 z"
         id="path97"
         transform="matrix(0.88367451,0,0,0.89325792,6.5467189,53.126839)" /></g><g
       id="g45"
       style="display:inline;fill:#ffffff;fill-opacity:1"
       inkscape:label="hollow walls"
       transform="matrix(1.1203746,0,0,1.1203746,-7.3324346,-59.626135)"><path
         style="display:inline;fill:#ffffff;fill-opacity:1;stroke-width:0.264583"
         d="m 55.318419,56.360525 -0.08684,9.986841 h 2.865789 l 0.260528,-3.907894 1.997368,-0.08684 -0.173685,-6.078948 z"
         id="path56"
         transform="matrix(0.89255862,0,0,0.89255862,6.5446277,53.21982)" /><path
         style="display:inline;fill:#ffffff;fill-opacity:1;stroke-width:0.264583"
         d="m 41.510526,99.955261 -0.08684,3.213159 1.563158,-0.17369 v -3.039469 z"
         id="path57"
         transform="matrix(0.89255862,0,0,0.89255862,6.5446277,53.21982)" /></g><g
       id="g4"
       inkscape:label="outer walls"
       style="display:inline;fill:#03004c;fill-opacity:1"
       transform="matrix(1.1227215,0,0,1.2166102,-8.2738166,-68.415363)"><path
         style="fill:#03004c;fill-opacity:1;stroke-width:0.264583"
         d="M 5.3423777,46.362014 H 3.6843983 l 2.3334524,-20.509819 65.8005693,0.287278 0.08684,4.602631 31.35,0.08684 0.0868,-3.386841 11.24269,-0.177556 -0.24563,3.070333 93.38715,0.407223 -0.87896,41.991242 -68.08421,-0.347369 0.18422,-5.864925 -24.52977,-0.459645 -0.17368,43.942104 -43.207029,-0.23509 -0.173686,-13.026317 -15.631578,-0.521052 v 14.068419 l -25.184208,0.17368 -0.173686,6.25264 L 15.28421,116.36842 15.457894,67.042103 1.4737594,66.933238 3.4387718,54.283469 h 0.8596929 l -1.2281326,10.684756 13.3866469,0.245626 0.36844,49.985009 h 11.912889 l 0.245626,-6.01785 h 25.545161 l -0.245626,-14.369159 18.421993,0.245629 -0.122814,13.50946 40.528382,0.33247 0.24563,-43.721529 26.54597,0.127381 0.17368,5.905262 c 0,0 66,1.042106 66.08684,0.43421 0.0868,-0.607893 0.26053,-39.426313 0.26053,-39.426313 l -93.09474,-0.173686 v -2.86579 h -8.77105 l -0.26053,3.126317 -33.781571,-0.260527 -0.08684,-4.342104 -63.4285871,-0.192458 z"
         id="path1"
         transform="matrix(0.89069285,0,0,0.82195596,7.3694292,56.234415)"
         sodipodi:nodetypes="cccccccccccccccccccccccccccccccccccccccsccccccccc" /></g></g><g
     inkscape:groupmode="layer"
     id="layer3"
     inkscape:label="Rooms"
     style="display:inline"
     transform="matrix(1.0114812,0,0,1,-0.03178661,0)"><path
       style="fill:#e6e6e6;fill-opacity:1;stroke-width:0.263077"
       d="m 23.470215,69.560524 -0.08586,3.647368 -6.095802,-0.08684 v 35.561838 l 22.580226,-0.26052 -0.171714,-8.11974 -7.297791,0.0868 0.08586,-4.949997 5.66652,0.347369 -0.171712,-15.544739 -9.959339,0.347369 0.25757,-10.681578 z"
       id="path58"
       sodipodi:nodetypes="ccccccccccccc"
       inkscape:label="stolov2" /><path
       style="fill:#e6e6e6;fill-opacity:1;stroke-width:0.263077"
       d="m 7.5594188,28.001428 -1.5784501,16.45698 12.0205053,-0.122814 -0.06071,-10.254909 -6.556639,0.184219 -0.06071,-6.263476 z"
       id="path59"
       inkscape:label="218" /><path
       style="fill:#e6e6e6;fill-opacity:1;stroke-width:0.263077"
       d="m 19.397795,27.878614 v 9.947875 l 6.37451,-0.122811 -0.121419,-9.70225 z"
       id="path60"
       inkscape:label="219" /><path
       style="fill:#e6e6e6;fill-opacity:1;stroke-width:0.263077"
       d="m 27.350755,27.940021 v 9.825064 l 6.617348,0.0614 -0.121417,-9.886468 z"
       id="path61"
       inkscape:label="220" /><path
       style="fill:#e6e6e6;fill-opacity:1;stroke-width:0.263077"
       d="m 35.275465,44.549999 c 0.558068,0 2.446906,0 2.446906,0 l -0.171711,-6.686841 1.287845,0.08684 0.08586,6.817106 4.121107,-0.130265 V 40.55526 l -2.103483,-0.04342 0.04293,-1.346052 1.974697,0.08684 V 28.006579 l -7.727073,-0.130265 z"
       id="path62"
       inkscape:label="221" /><path
       style="fill:#e6e6e6;fill-opacity:1;stroke-width:0.263077"
       d="M 44.333313,28.05 V 39.25263 L 48.8837,39.426316 48.79785,27.963156 Z"
       id="path63"
       inkscape:label="2232" /><path
       style="fill:#e6e6e6;fill-opacity:1;stroke-width:0.263077"
       d="m 48.969556,40.598682 -4.93674,-0.04342 0.04293,4.298686 5.881163,-0.130263 -0.08586,-3.430264 -1.030275,-0.04342 z"
       id="path64"
       inkscape:label="2231" /><path
       style="fill:#e6e6e6;fill-opacity:1;stroke-width:0.263077"
       d="M 50.214473,27.832894 50.128618,33.825 h 4.722101 l 0.04293,-5.905265 z"
       id="path65"
       inkscape:label="223" /><path
       style="fill:#e6e6e6;fill-opacity:1;stroke-width:0.263077"
       d="m 56.181492,27.919735 12.921383,0.08684 0.25757,10.203948 -13.264809,-0.04342 z"
       id="path66"
       inkscape:label="222" /><path
       style="fill:#e6e6e6;fill-opacity:1;stroke-width:0.263077"
       d="m 70.734146,32.435524 h 4.121106 l 0.08586,8.553948 -4.164036,-0.04342 z"
       id="path67"
       inkscape:label="224" /><path
       style="fill:#e6e6e6;fill-opacity:1;stroke-width:0.263077"
       d="m 76.400667,32.435524 -0.128784,9.596054 5.623592,-0.08684 -0.128786,-9.509213 z"
       id="path68"
       inkscape:label="224" /><path
       style="fill:#e6e6e6;fill-opacity:1;stroke-width:0.263077"
       d="m 83.226248,32.435524 0.04293,12.157895 4.850885,-0.04342 -0.08586,-12.157895 z"
       id="path69"
       inkscape:label="224" /><path
       style="fill:#e6e6e6;fill-opacity:1;stroke-width:0.263077"
       d="m 89.536692,32.478948 -0.08586,6.599999 5.108455,-0.08684 -0.128784,-6.426314 z"
       id="path70"
       inkscape:label="225" /><path
       style="fill:#e6e6e6;fill-opacity:1;stroke-width:0.263077"
       d="m 96.018848,32.60921 6.310442,0.08684 -0.0859,12.071053 c 0,0 -6.138725,-0.08684 -6.095798,-0.08684 z"
       id="path71"
       sodipodi:nodetypes="ccccc"
       inkscape:label="225" /><path
       style="fill:#e6e6e6;fill-opacity:1;stroke-width:0.263077"
       d="m 29.995298,56.403946 h 5.451881 l -0.08586,11.680264 -5.408953,0.04342 z"
       id="path72"
       inkscape:label="239" /><path
       style="fill:#e6e6e6;fill-opacity:1;stroke-width:0.263077"
       d="m 36.692096,56.360525 4.335748,0.130262 -0.08586,11.810527 -4.206961,-0.04342 z"
       id="path73"
       inkscape:label="238" /><path
       style="fill:#e6e6e6;fill-opacity:1;stroke-width:0.263077"
       d="m 42.4874,56.490787 h 10.989615 l -0.08586,11.680264 H 42.573256 Z"
       id="path74"
       inkscape:label="237" /><path
       style="fill:#e6e6e6;fill-opacity:1;stroke-width:0.263077"
       d="m 60.731879,56.490787 h 3.391328 l 0.04293,9.682896 h -5.451881 l 0.08586,-2.996052 h 2.060553 z"
       id="path75"
       inkscape:label="2356" /><path
       style="fill:#e6e6e6;fill-opacity:1;stroke-width:0.263077"
       d="m 65.024698,67.606579 -10.259835,-0.04342 0.257567,11.680264 h 9.916412 z"
       id="path76"
       inkscape:label="2355" /><path
       style="fill:#e6e6e6;fill-opacity:1;stroke-width:0.263077"
       d="m 64.767128,80.54605 -9.744698,0.08684 v 13.93816 l 14.209229,0.130262 0.171714,-10.638158 -4.550387,0.130263 z"
       id="path77"
       inkscape:label="2354" /><path
       style="fill:#e6e6e6;fill-opacity:1;stroke-width:0.263077"
       d="m 81.981331,77.810526 -5.280166,0.08684 -0.171715,11.853947 h 5.623593 z"
       id="path78"
       inkscape:label="2351" /><path
       style="fill:#e6e6e6;fill-opacity:1;stroke-width:0.263077"
       d="m 82.024259,91.271049 h -5.451878 l -0.04293,3.951317 5.623593,-0.130263 z"
       id="path79"
       inkscape:label="2352" /><path
       style="fill:#e6e6e6;fill-opacity:1;stroke-width:0.263077"
       d="m 82.067187,96.438155 -9.916409,0.08684 v 11.723685 l 9.830553,-0.0434 z"
       id="path80"
       inkscape:label="2353" /><path
       style="fill:#e6e6e6;fill-opacity:1;stroke-width:0.263077"
       d="M 111.12957,73.381578 H 94.559289 l -0.25757,11.20263 16.913701,0.08684 z"
       id="path81"
       inkscape:label="2341" /><path
       style="fill:#e6e6e6;fill-opacity:1;stroke-width:0.263077"
       d="m 111.12957,86.668418 -10.13105,0.173686 0.0859,3.3 10.30277,-0.08684 z"
       id="path82"
       inkscape:label="2342" /><path
       style="fill:#e6e6e6;fill-opacity:1;stroke-width:0.263077"
       d="m 111.21542,100.56315 -10.2169,-0.0868 -0.0859,7.72895 10.38862,0.17368 z"
       id="path83"
       inkscape:label="234" /><path
       style="fill:#e6e6e6;fill-opacity:1;stroke-width:0.263077"
       d="m 119.54349,32.305262 -6.31044,-0.04342 -0.12878,9.422368 6.61093,0.130263 z"
       id="path84"
       inkscape:label="233" /><path
       style="fill:#e6e6e6;fill-opacity:1;stroke-width:0.263077"
       d="m 121.08891,32.305262 -0.17172,12.201316 8.84321,-0.130262 v 1.736841 h -8.67149 l 0.0859,7.642106 16.31271,-0.260527 V 32.739472 Z"
       id="path85"
       inkscape:label="233" /><path
       style="fill:#e6e6e6;fill-opacity:1;stroke-width:0.263077"
       d="m 125.21466,55.204568 5.16032,-0.0614 -0.0607,2.640483 2.54981,-0.0614 -0.12142,7.245982 -7.83154,-0.06141 z"
       id="path86"
       inkscape:label="233" /><path
       style="fill:#e6e6e6;fill-opacity:1;stroke-width:0.263077"
       d="m 123.5148,55.02035 h -2.67123 l 0.12142,9.947875 2.67122,-0.06141 z"
       id="path87"
       inkscape:label="233" /><path
       style="fill:#e6e6e6;fill-opacity:1;stroke-width:0.263077"
       d="m 131.95343,54.958942 5.76742,0.122815 -0.12142,9.763654 h -3.46045 v -8.474115 l -2.36768,-0.122814 z"
       id="path88"
       inkscape:label="233" /><path
       style="fill:#e6e6e6;fill-opacity:1;stroke-width:0.263077"
       d="m 139.2046,32.652631 -0.0859,6.426316 6.86851,0.04342 0.0429,-6.426316 z"
       id="path89"
       inkscape:label="224" /><path
       style="fill:#e6e6e6;fill-opacity:1;stroke-width:0.263077"
       d="m 147.53267,32.652631 0.0429,6.426316 h 6.35337 l -0.0859,-6.513158 z"
       id="path90"
       inkscape:label="226" /><path
       style="fill:#e6e6e6;fill-opacity:1;stroke-width:0.263077"
       d="m 155.60317,32.522369 0.0859,6.64342 h 7.21193 l -0.12878,-6.556579 z"
       id="path91"
       inkscape:label="227" /><path
       style="fill:#e6e6e6;fill-opacity:1;stroke-width:0.263077"
       d="m 164.40345,32.565789 -0.0859,6.643421 6.6968,0.130262 0.12878,-6.686841 z"
       id="path92"
       inkscape:label="228" /><path
       style="fill:#e6e6e6;fill-opacity:1;stroke-width:0.179146"
       d="m 172.51687,32.430259 0.0597,6.860524 3.4836,0.08684 -0.0199,-6.903948 z"
       id="path93"
       inkscape:label="230" /><path
       style="display:inline;fill:#e6e6e6;fill-opacity:1;stroke-width:0.179146"
       d="m 176.56763,32.541888 0.0597,6.860524 3.4836,0.08684 -0.0199,-6.903948 z"
       id="path93-2"
       inkscape:label="229" /><path
       style="fill:#e6e6e6;fill-opacity:1;stroke-width:0.263077"
       d="m 181.74643,32.739472 -0.17171,6.643421 3.13376,-0.08684 -0.12879,-6.773682 z"
       id="path94"
       inkscape:label="231" /><path
       style="fill:#e6e6e6;fill-opacity:1;stroke-width:0.263077"
       d="m 186.03925,32.60921 -0.21464,6.556579 10.38862,0.173683 V 32.60921 Z"
       id="path95"
       inkscape:label="238" /></g></svg>
