<?xml version="1.0" encoding="UTF-8" standalone="no"?>
<!-- Created with Inkscape (http://www.inkscape.org/) -->

<svg
   width="210mm"
   height="150mm"
   viewBox="0 0 210 150"
   version="1.1"
   id="svg1"
   xml:space="preserve"
   inkscape:version="1.4.3 (0d15f75, 2025-12-25)"
   sodipodi:docname="1.svg"
   xmlns:inkscape="http://www.inkscape.org/namespaces/inkscape"
   xmlns:sodipodi="http://sodipodi.sourceforge.net/DTD/sodipodi-0.dtd"
   xmlns="http://www.w3.org/2000/svg"
   xmlns:svg="http://www.w3.org/2000/svg"><sodipodi:namedview
     id="namedview1"
     pagecolor="#505050"
     bordercolor="#eeeeee"
     borderopacity="1"
     inkscape:showpageshadow="0"
     inkscape:pageopacity="0"
     inkscape:pagecheckerboard="0"
     inkscape:deskcolor="#505050"
     inkscape:document-units="mm"
     inkscape:zoom="0.5385886"
     inkscape:cx="388.97964"
     inkscape:cy="362.98577"
     inkscape:window-width="973"
     inkscape:window-height="1041"
     inkscape:window-x="931"
     inkscape:window-y="0"
     inkscape:window-maximized="0"
     inkscape:current-layer="layer3" /><defs
     id="defs1" /><path
     style="display:inline;fill:#ffffff;fill-opacity:1;stroke-width:0.296432"
     d="M 1.0349937,22.686009 0.84040243,131.46257 58.244854,130.8788 l 4.28101,3.69724 10.702522,-11.48089 25.880652,-0.38919 11.675492,11.67549 -0.19461,-1.55674 3.11347,-2.72427 94.57139,0.19459 0.63317,-106.953467 -95.86393,0.122813 -1.36214,-1.751322 -11.52752,11.48571 L 87.044376,20.740097 76.147259,30.858846 65.055549,20.934686 62.915047,22.880603 5.7051866,22.296826"
     id="path48"
     inkscape:label="background"
     sodipodi:nodetypes="ccccccccccccccccccc" /><g
     inkscape:groupmode="layer"
     id="layer2"
     inkscape:label="walls"
     style="display:inline"><g
       id="g48"
       inkscape:label="inner walls"
       style="display:inline;fill:#606060;fill-opacity:1"
       transform="matrix(1.1316384,0,0,1.1194975,-7.4085185,-59.475364)"><g
         id="g7"
         inkscape:groupmode="layer"
         style="display:inline;fill:#606060;fill-opacity:1"><path
           style="fill:#606060;fill-opacity:1;stroke-width:0.264583"
           d="m 94.3206,81.609426 -0.06141,4.052838 h 1.719387 v 2.39486 l 0.675474,0.06141 -0.06141,-2.333453 h 7.368799 l 0.12282,8.365561 -2.99776,0.0075 -0.004,0.653762 7.88858,0.07194 0.007,-0.707719 -4.24078,-0.0037 -0.16251,-19.808909 h -0.79829 l 0.12282,10.807571 -9.026783,-0.245629 0.06141,-3.315957"
           id="path5"
           sodipodi:nodetypes="cccccccccccccccccc" /><path
           style="fill:#606060;fill-opacity:1;stroke-width:0.264583"
           d="m 103.81974,74.467105 0.61498,-1.033689 0.19088,0.510928 -0.16566,1.506686"
           id="path7"
           sodipodi:nodetypes="cccc" /></g><g
         id="g47"
         style="fill:#606060;fill-opacity:1"><path
           style="fill:#606060;fill-opacity:1;stroke-width:0.264583"
           d="m 84.345393,94.071711 11.615131,0.02171 0.04342,-3.039475 0.564472,0.04342 -0.02171,2.996051 1.215794,0.02172 -0.02171,0.673027 -13.417105,-2e-6"
           id="path6"
           sodipodi:nodetypes="cccccccc" /><path
           style="fill:#606060;fill-opacity:1;stroke-width:0.264583"
           d="m 41.756515,73.073902 -0.184219,11.360229 0.982506,-0.06141 0.122815,-11.483041"
           id="path8" /><path
           style="display:inline;fill:#606060;fill-opacity:1;stroke-width:0.264583"
           d="m 62.941808,73.933597 1.535165,0.0614 -0.122814,20.018566 -9.395217,-0.245626 -1.780791,0.245626 -2.579079,0.73688 -1.842198,0.798285 -1.535168,0.982506 -1.719385,1.28954 -1.412353,1.719387 -0.736881,1.535169 h -1.043911 l 0.245626,-7.92146 1.228133,-0.06141 -0.06141,-1.350946 -1.228132,-0.06141 V 87.38165 l -1.043913,-0.122814 0.06141,13.877904 -2.824705,-0.0614 0.06141,0.79829 H 41.5723 l 0.122814,10.43912 -3.254552,-0.12281 0.06141,2.94752 h 0.614066 l 0.06141,-2.21064 2.39486,0.12282 0.06141,2.08782 1.596573,-0.0614 v 2.14923 h 0.798285 l 0.06141,-15.6587 0.73688,-1.657975 1.65798,-1.903606 1.289539,-0.859692 1.65798,-1.105321 1.657977,-0.614066 1.289539,-0.429847 1.842202,-0.429845 1.903605,-0.122814 h 4.237059 l 5.588002,0.06141 v -0.798288 h -0.614066 v -8.903962 l 6.509105,0.06141 -0.184219,9.08818 -2.7633,-0.0614 v 0.675473 l 2.7633,0.06141 0.0614,2.517674 h 0.675474 l -0.0614,-2.579079 8.965369,0.06141 -0.184221,-0.736878 -8.781148,-0.06141 0.0614,-8.965369 2.333453,0.0614 0.06141,-3.315957 -0.798288,0.06141 -0.0614,2.517671 -8.719743,-0.122814 -0.06141,-10.746163 -2.456267,-0.06141"
           id="path9" /><path
           style="fill:#606060;fill-opacity:1;stroke-width:0.264583"
           d="m 7.86005,100.52267 28.001429,0.42985 -0.122814,0.9825 -1.65798,-0.0614 -0.122812,3.37736 -0.798287,-0.0614 v -3.56159 L 7.6144235,101.38236"
           id="path10" /><path
           style="fill:#606060;fill-opacity:1;stroke-width:0.264583"
           d="m 33.159586,108.25991 v 3.6844 l -25.3609426,-0.36844 -0.061407,0.9211 26.3434486,0.18422 0.06141,-0.67548 h -0.36844 l 0.122814,-3.80721"
           id="path11" /><path
           style="fill:#606060;fill-opacity:1;stroke-width:0.264583"
           d="m 7.9214566,113.97072 24.5012484,0.36844 0.122815,-1.84219 h 0.798287 l -0.06141,2.57908 -25.9750098,-0.30704"
           id="path12" /><path
           style="fill:#606060;fill-opacity:1;stroke-width:0.264583"
           d="m 7.6758302,123.05891 17.8693328,0.30703 -0.18422,2.82471 3.622991,0.0614 v 0.49126 l -13.386647,-0.30704 -0.06141,2.7633 h -0.798286 l 0.122813,-2.64048 -7.1845768,-0.0614 v -0.67547 H 24.562656 l 0.06141,-1.71939 -17.0710461,-0.12281"
           id="path13" /><path
           style="fill:#606060;fill-opacity:1;stroke-width:0.264583"
           d="m 7.3687968,135.9543 7.2459832,-0.0614 0.245627,-3.56159 0.675473,0.0614 -0.06141,3.43877 17.378079,0.0614 0.184219,-9.211 -0.859693,-0.0614 0.06141,-0.67547 1.842198,0.0614 -0.06141,0.67547 h -0.184219 l -0.245626,15.41307 -0.798287,-0.12282 0.122814,-5.34237 -25.6065698,-0.12282"
           id="path14" /><path
           style="fill:#606060;fill-opacity:1;stroke-width:0.264583"
           d="M 7.0617637,146.57765 H 32.852553 l 0.06141,-1.10532 h 0.675473 l -0.06141,1.28954 1.842199,-0.0614 -0.06141,0.55265 -28.5540866,0.18422"
           id="path15" /><path
           style="fill:#606060;fill-opacity:1;stroke-width:0.264583"
           d="m 43.230276,120.11139 v 3.43877 l -4.544092,0.0614 v 3.13174 h 2.763298 v 15.53588 h 0.614066 l 0.122814,-9.39522 0.982506,0.12281 0.06141,2.08783 0.429847,3.07033 0.921099,1.65798 1.473758,2.27205 1.719387,2.02642 1.842199,1.35094 2.149231,1.28954 -9.518028,-0.0614 v -1.22814 l -0.798287,-0.18422 -0.06141,1.41236 -2.701893,0.0614 v 0.67547 l 2.686541,-0.0307 -0.04605,3.13174 0.798285,-0.0307 v -3.13174 l 3.576939,0.0153 -0.01535,2.99357 0.690826,-0.0307 0.07676,-2.90147 3.837914,-0.0154 -0.06141,7.06177 -3.930024,0.0768 -2e-6,-0.99785 -0.598714,0.0153 -0.01535,1.70403 4.482685,-0.0614 v 13.44805 h 0.982506 l -0.184219,-7.24598 h 1.412351 l -0.0614,-0.73688 H 51.02892 l -0.06141,-5.21957 h 5.772224 v 5.28098 h -1.289539 l 0.122814,0.9825 h 1.96501 l -0.122811,-7.73723 -0.675474,0.0614 -0.06141,0.79829 -5.710817,-0.18422 0.122812,-3.50018 5.588005,0.0537 v 0.86737 l 0.798288,1e-5 0.0307,-2.05713 -0.821313,-0.0153 -0.02303,0.56801 -5.695465,-0.0307 0.122812,-3.13174 5.526598,-0.0614 v 0.98251 h 1.043914 l -3e-6,-0.95181 h 3.77651 l -0.0307,7.27669 h -0.859692 v 0.85969 h 1.473761 v -1.10532 l 2.440912,-0.0461 0.04605,-2.27205 -0.828989,-0.0154 v 1.47376 l -1.642627,0.0461 0.09211,-6.20207 h 1.611925 v 1.55052 h 0.798287 v -2.27204 l -11.421636,0.0614 -1.043914,-0.42984 -2.517671,-1.71939 -1.719385,-1.59657 -1.228135,-1.65798 -1.535165,-2.14924 -0.921099,-2.02642 -0.245626,-2.33345 0.184219,-6.20207 -0.122812,-8.47411"
           id="path16"
           sodipodi:nodetypes="cccccccccccccccccccccccccccccccccccccccccccccccccccccccccccccccccccccccccccccccccccccccccccc" /></g><path
         style="fill:#606060;fill-opacity:1;stroke-width:0.264583"
         d="m 72.464042,104.56139 23.372304,0.0789 0.155703,9.95664 -2.788764,0.0397 -0.0064,-0.61862 1.830044,-0.0307 -0.0447,-8.64866 -6.598721,-0.0434 0.02171,8.72763 1.975658,0.0217 -2e-6,0.58619 -4.667764,-4e-5 v -0.60789 l 1.997369,4e-5 -0.151973,-8.74934 -7.338159,-0.0217 0.108554,8.70592 2.561841,0.0217 0.04342,0.65132 -5.514472,-0.0651 0.02171,-0.65132 2.105921,0.0217 0.03706,-8.66164 -7.173943,0.0169 0.0049,8.52533 2.019076,-0.0109 -2e-6,0.69474 -2.527361,0.0246 c 0.02277,0.13137 0.06008,10.15784 0.06008,10.15784 l 2.070672,0.0111 -0.02543,0.85352 -1.264894,0.004 0.0064,8.50681 6.272349,-0.006 0.158331,-8.48946 -2.150884,-0.0207 -0.0048,-0.83772 h 4.60263 l -0.02588,0.86842 H 79.72104 l -0.08684,8.50045 7.713595,0.0355 -0.08684,-8.53114 -2.329385,-0.005 -0.02543,-0.74034 4.776317,0.0254 -0.06141,0.69473 h -1.460965 l -0.01535,8.53115 7.499126,0.11314 0.01671,-8.66247 -2.591269,-0.008 -0.03598,-0.75043 3.276484,-0.006 0.02171,10.1085 -9.410697,-0.0702 0.03258,2.04535 -0.523827,-0.005 -0.0036,-2.04025 -13.442218,-0.0504 -0.909214,-0.0233 10e-7,-1.25922 -0.130261,-7.8592 -0.716448,0.002 -0.02171,-11.83465 0.586182,4e-5 -0.111629,-13.56892 0.742744,0.008"
         id="path17"
         sodipodi:nodetypes="cccccccccccccccccccccccccccccccccccccccccccccccccccccccccccccccccccc"
         inkscape:label="lift" /><g
         id="g46"
         style="fill:#606060;fill-opacity:1"><path
           style="fill:#606060;fill-opacity:1;stroke-width:0.264583"
           d="m 71.722955,162.11353 v -2.14923 l -3.930022,0.0614 0.122811,-0.73688 3.930026,-0.0614 -0.06141,-4.54409 h -3.930026 l -0.0307,-0.64477 3.883971,0.0153 -0.168868,-6.37094 -3.6844,-0.0307 -0.04605,-0.62942 18.682972,0.0614 -0.07212,-7.19992 0.568387,-0.0548 0.04963,7.2427 3.706519,0.0581 0.01535,0.61407 -18.560157,-0.0614 0.138162,6.32489 18.421992,0.0153 -2e-6,0.72154 -18.360585,-0.0614 -0.0614,7.36879"
           id="path18"
           sodipodi:nodetypes="cccccccccccccccccccccccc" /><path
           style="fill:#606060;fill-opacity:1;stroke-width:0.264583"
           d="m 93.554559,147.05836 4.371686,0.0217 -0.06885,0.76913 -2.734777,-0.004 0.119087,6.19153 2.734779,0.0105 -0.05768,0.82 h -2.629949 l 0.137073,4.78972 2.456265,0.0614 -0.06141,0.67548 -2.456265,-0.0614 0.122814,2.02642 -0.830532,-0.20593 -0.09429,-7.34709 -0.971969,-0.0254 -0.0037,-0.79456 0.986869,0.0217 -0.06513,-6.18409 -0.924824,-0.018"
           id="path19"
           sodipodi:nodetypes="cccccccccccccccccccc" /><path
           style="fill:#606060;fill-opacity:1;stroke-width:0.264583"
           d="m 100.91053,159.61579 2.95263,-0.0434 v -0.69474 l 0.86842,0.0434 0.2171,12.9829 -0.825,-1.08553 -0.2171,-10.5079 h -2.95263"
           id="path20" /><path
           style="fill:#606060;fill-opacity:1;stroke-width:0.264583"
           d="m 103.73289,155.62105 h 0.78158 l -0.2171,-7.59868 h 5.03684 l -0.0868,0.43421 0.78158,0.0434 v -0.56448 l 3.64736,0.0434 0.13027,2.95263 h -3.64737 l -0.0868,-0.73816 -0.86842,0.0868 0.0868,2.08421 0.99868,0.0434 -0.0868,-0.69473 h 3.56053 l 0.0868,2.95263 -3.60395,0.0434 -0.0868,-0.6079 -0.78158,0.13027 0.0868,1.38947 4.38553,-0.0868 0.39079,13.41711 0.86842,0.0434 -0.56447,-20.97237 9.31381,0.10853 0.0434,1.17237 0.80329,-0.0217 0.0434,-1.34606 5.21053,0.0434 -0.0434,-0.78158 -5.25395,-0.0434 -0.47768,-19.7674 -2.82236,0.0109 0.0434,0.65131 h 2.00822 l 0.42338,19.14867 -19.49605,-0.0868 v -2.25789 l -0.91184,-0.0434"
           id="path21"
           sodipodi:nodetypes="cccccccccccccccccccccccccccccccccccccccc" /><path
           style="fill:#606060;fill-opacity:1;stroke-width:0.264583"
           d="m 103.21184,127.11513 0.21711,14.65461 h 0.78158 l -0.1954,-13.85133 14.35066,-0.0434 -0.0434,-0.73816"
           id="path22"
           sodipodi:nodetypes="cccccc" /><path
           style="fill:#606060;fill-opacity:1;stroke-width:0.264583"
           d="M 115.02237,74.814474 115.5,94.48421 h -3.21316 l -0.0434,0.43421 2.82237,0.130263 0.73816,0.521052 1.25921,0.955264 1.34605,1.042104 1.08553,1.128948 1.17236,1.649999 1.04211,1.91053 0.47763,1.60658 0.26053,1.56316 0.13026,2.73552 0.0868,8.98816 8.51053,0.0434 v -0.6079 l -1.04211,-0.13026 -0.26052,-8.55394 h -2.21448 l -0.0868,0.52105 h 1.60658 l 0.26053,8.11973 -5.90527,-0.0434 -0.30394,-8.03289 1.34605,0.0434 -0.0434,-0.825 -1.38948,0.0868 -0.13026,-2.99605 -0.73816,-2.56184 -0.825,-1.86711 -1.30263,-1.823682 -1.34605,-1.606579 -2.30132,-1.736841 11.59342,0.130262 v -0.738158 l -11.81052,-0.173684 -0.26053,-8.988157 6.46974,0.08684 -0.0434,-0.825 h -6.42632 l 0.0434,-2.431579 h 0.99869 l -0.0434,-0.781579 h -0.99869 l -0.26053,-6.599999"
           id="path23" /><path
           style="display:inline;fill:#606060;fill-opacity:1;stroke-width:0.264583"
           d="m 124.575,74.72763 0.0434,2.127633 -0.26053,1.432894 -1.12894,1.69342 -1.21579,0.78158 -1.95395,0.694737 0.0868,0.651314 1.30263,-0.303945 1.82369,-0.911844 1.34605,-1.476314 0.69474,-1.736842 0.2171,-1.389475 -0.0868,-1.563158"
           id="path24" /><path
           style="display:inline;fill:#606060;fill-opacity:1;stroke-width:0.264583"
           d="m 148.76052,74.597368 0.26053,9.509209 c 0,0 -8.07631,0.08684 -7.81579,0.08684 0.26053,0 0.34737,10.811841 0.34737,10.811841 L 131.95658,94.91842 132,95.526314 h 9.55263 l 0.21711,7.989476 h -6.29606 l -0.0868,2.30132 0.78158,0.0434 0.0868,-1.60658 5.64474,-0.0868 0.43421,12.46184 -5.775,-0.0434 -0.17368,-7.55526 h -0.825 l 0.2171,7.51184 -1.65,-0.0434 v 0.86842 l 17.45526,0.0869 -0.0434,-0.78158 -8.55394,-0.17369 -0.17369,-6.55658 19.27895,0.21711 0.2171,6.73026 -7.77237,-0.17368 0.0434,0.825 8.51053,0.0434 -0.0434,-2.90921 0.65132,-0.0434 -0.0868,-0.78158 -0.73815,0.0434 -0.0868,-4.51579 h 0.39079 l 0.0868,-0.86842 h -0.65132 l -0.30395,-13.373686 -2.86579,0.130265 v 0.781579 l 1.99737,-0.04342 0.30395,6.209212 -5.16711,0.0434 0.13027,0.65131 h 5.03684 l 0.2171,6.46974 -11.15921,-0.17368 -0.13026,-6.33948 3.03947,0.0434 -0.0434,-0.86842 -2.90921,0.0434 -0.13026,-1.34605 -0.825,0.0434 0.17368,8.42369 -7.16447,-0.13027 -0.43421,-13.286839 7.29474,0.08684 v 1.953947 l 0.825,-0.08684 0.0434,-1.823686 6.20921,0.04342 -0.0868,-0.781576 -1.82369,0.04342 0.0434,-1.346054 0.95527,-1.172369 -0.65132,-0.390789 -1.21579,1.302633 -0.0434,1.606579 -11.68026,-0.217106 -0.34737,-10.247368 7.98947,0.04342 -0.34737,-10.203947"
           id="path25" /><path
           style="fill:#606060;fill-opacity:1;stroke-width:0.264583"
           d="m 158.30632,74.609067 0.24563,14.215639 -1.16673,1.19743 0.64477,0.614067 1.07462,-1.105321 0.58336,-0.06141 0.0614,-0.859692 -0.61407,-0.0307 -0.0614,-5.403786 h 0.33774 l 0.0614,-0.82899 -0.33774,-0.0307 -0.0921,-7.767939"
           id="path26" /><path
           style="fill:#606060;fill-opacity:1;stroke-width:0.264583"
           d="m 162.7276,74.701179 0.0921,7.67583 h -0.33774 v 0.736881 l 0.30704,0.0307 0.24562,5.526598 -0.30703,-0.0307 v 0.82899 l 9.97858,0.153516 -0.0921,-0.675473 -9.02678,-0.184219 -0.21492,-14.215636"
           id="path27" /><path
           style="fill:#606060;fill-opacity:1;stroke-width:0.264583"
           d="m 177.15789,74.684209 0.13027,14.263815 -1.71514,-2e-6 v 0.803288 l 2.8875,-0.04342 -0.0217,-0.651314 -0.23881,-0.04342 -0.36908,-14.459209"
           id="path28"
           sodipodi:nodetypes="cccccccc" /><path
           style="fill:#606060;fill-opacity:1;stroke-width:0.264583"
           d="M 176.98421,89.273683 Z"
           id="path29" /><path
           style="fill:#606060;fill-opacity:1;stroke-width:0.264583"
           d="m 181.02678,89.03963 9.73295,0.09211 -0.15352,0.644769 -9.51803,-0.0307"
           id="path30" /><path
           style="fill:#606060;fill-opacity:1;stroke-width:0.264583"
           d="m 175.93003,94.351304 2.21063,0.0307 0.33774,9.272406 12.34274,0.0614 -0.0307,0.67547 -17.5623,-0.15352 v 1.04392 l 17.77723,0.0921 -0.0307,0.82899 -0.27633,-0.0614 -21.2774,-0.24563 0.33774,9.33381 16.54909,0.0614 0.0614,2.70189 -17.13246,-0.0614 -0.64477,-14.06213 -2.794,-0.0921 -0.33774,-9.425919 h 7.55302 l -0.0614,0.614067 -3.99143,0.09211 0.27633,10.039982 3.31596,0.0614 v -2.97822 l -0.85969,-0.0307 v -0.76759 l 1.50446,-0.0307 0.0614,2.30275 4.42128,-0.0921 -0.15352,-8.47412 -1.59657,0.0307"
           id="path31" /><path
           style="fill:#606060;fill-opacity:1;stroke-width:0.264583"
           d="m 189.92368,126.35526 v -0.56447 h 1.17237 l 0.0434,0.56447"
           id="path32" /><path
           style="fill:#606060;fill-opacity:1;stroke-width:0.264583"
           d="m 191.22631,128.22237 -4.99342,-0.13027 -0.0434,-1.69342 0.69474,0.0434 0.0434,-0.78158 h -10.68158 v 0.91185 l 0.47763,-0.0869 v 1.73685 l -5.64473,-0.0868 0.0434,-1.73684 1.56316,-0.0868 -0.13027,-0.65132 -3.60394,0.0434 v 0.73816 h 1.47631 l 0.26053,5.34079 0.69473,0.0434 -0.0868,-2.82236 19.97368,-0.0434"
           id="path33" /><path
           style="fill:#606060;fill-opacity:1;stroke-width:0.264583"
           d="m 191.4,138.07895 -19.75658,-0.0434 -0.0868,-2.99606 -0.56448,-0.0434 0.73816,17.97632 0.73816,-0.0434 -0.13026,-3.34343 19.14868,0.0434 -0.13026,-0.78158 -19.10527,-0.0434 -0.39078,-9.94342 19.53947,0.0868"
           id="path34" /><path
           style="fill:#606060;fill-opacity:1;stroke-width:0.264583"
           d="m 173.42369,138.64342 0.13026,10.50789 h 0.95526 c -0.15887,-3.51446 -0.0327,-6.90379 -0.0868,-10.42105"
           id="path35"
           sodipodi:nodetypes="cccc" /><path
           style="fill:#606060;fill-opacity:1;stroke-width:0.264583"
           d="m 166.4289,160.875 h -0.65131 l -0.17369,-4.64606 h 0.73816 v 0.86843 l 5.69215,-0.0868 -0.0868,-0.78158 h 0.73816 l 0.13026,4.64606 18.975,0.0434 V 161.7 l -18.88816,0.0868 0.26053,7.33816 -0.69474,0.0434 -0.43421,-11.28948 -5.64873,-0.0434"
           id="path36"
           sodipodi:nodetypes="cccccccccccccccc" /><path
           style="fill:#606060;fill-opacity:1;stroke-width:0.264583"
           d="m 155.38506,158.82894 0.43421,10.33421 0.78158,0.0434 c 0,0 -0.59727,-10.25546 -0.34737,-10.37763"
           id="path37"
           sodipodi:nodetypes="cccc" /><path
           style="fill:#606060;fill-opacity:1;stroke-width:0.264583"
           d="m 165.82846,164.18772 0.0434,4.81974 0.91185,-0.0434 -0.13027,-4.86316"
           id="path38"
           sodipodi:nodetypes="cccc" /><path
           style="fill:#606060;fill-opacity:1;stroke-width:0.264583"
           d="m 134.29632,166.65762 0.0614,2.39486 0.73688,0.0614 -0.0614,-2.39486"
           id="path39" /><path
           style="fill:#606060;fill-opacity:1;stroke-width:0.264583"
           d="m 125.26955,169.11389 -0.12281,-8.10568 4.78971,-0.0614 -0.12281,-0.8597 h -4.72831 l -0.12282,-5.40378 9.02678,0.0614 0.12281,5.28097 -1.16672,0.0614 v 0.73688 h 1.16672 l 0.12282,2.7019 h 0.73688 l -0.36844,-10.80757 h -0.9211 l 0.0614,1.04391 -8.84255,-0.0614 -0.0614,-0.85969 -0.79829,0.12281 0.36844,16.39557"
           id="path40" /><path
           style="fill:#606060;fill-opacity:1;stroke-width:0.264583"
           d="m 134.02065,149.52517 -0.57647,-0.0265 0.0368,-1.56316 h -0.65132 l 0.0211,-0.56447 h 0.97697 l 1.61901,-0.91184 3.21491,-2.36645 1.44961,-1.60658 1.37416,-1.91052 0.78228,-1.75856 0.45674,-0.0217 -0.0412,0.52105 -0.49819,1.12895 -1.06696,1.82369 -0.93239,1.12894 -1.19699,1.2375 -1.1856,0.93356 -1.34084,1.02039 -1.11316,0.73816 h 30.3296 l -0.14597,-21.03751 -20.79384,-0.0754 -0.14636,6.23092 21.05432,0.0754 0.0182,0.67303 -21.72655,-0.15198 0.002,-7.54383 22.52897,0.11883 -0.0276,0.73816 h -0.30395 l 0.24429,26.53026 h -0.75988 l 0.0735,-4.86315 h -9.70461 l -0.0231,7.57697 -0.71564,-0.0217 0.085,-7.49013 -10.87535,-0.0434 0.0196,1.21579 -1.00112,0.0651 -0.0324,-1.4546 -9.40147,0.0217"
           id="path41"
           sodipodi:nodetypes="ccccccccccccccccccccccccccccccccccccccccccc" /><path
           style="fill:#606060;fill-opacity:1;stroke-width:0.264583"
           d="m 163.45751,126.05131 0.14736,21.58027 0.69636,-0.0434 -0.276,-21.62369"
           id="path42" /></g><g
         id="g54"
         style="fill:#606060;fill-opacity:1"><path
           style="fill:#606060;fill-opacity:1;stroke-width:0.264583"
           d="m 41.32667,153.82364 0.06141,15.35166 h 0.798285 l -0.122814,-13.87791 0.429847,0.12282 0.122814,-0.98251 h -0.675473 l 0.184219,-0.67547"
           id="path53" /><path
           style="fill:#606060;fill-opacity:1;stroke-width:0.264583"
           d="m 59.486842,169.25526 1.736841,-0.0434 v -9.20526 l -0.521052,-0.0869 0.08684,-0.825 0.651316,0.0434 0.08684,-0.30394 0.651317,0.0868 v 0.17368 l 2.692103,0.13027 -0.04342,0.73815 -2.86579,0.0868 -0.04342,9.98684 -2.214476,-0.0434"
           id="path54" /></g><path
         style="fill:#606060;fill-opacity:1;stroke-width:0.264583"
         d="m 190.70526,94.48421 -6.86053,-0.04342 v -0.911844 l -0.78157,0.04342 0.0434,0.911841 h -1.82369 l 0.0868,0.564473 9.46579,0.04342"
         id="path80" /></g><g
       id="g4"
       inkscape:label="outer walls"
       style="display:inline;fill:#03004c;fill-opacity:1"
       transform="matrix(1.1203746,0,0,1.1203746,-7.3324345,-59.626135)"><path
         id="path1"
         style="display:inline;fill:#03004c;fill-opacity:1;stroke-width:0.264583"
         d="m 64.870976,70.645817 -1.997294,1.780253 -56.4472009,-0.173633 0.414911,56.823343 1.4973312,0.0164 0.1718683,-55.450123 54.8839884,0.347265 1.519804,-1.302246 9.596313,9.335348 4.168221,-4.037997 -1.042313,-1.259354 -3.29954,3.256648 z m -58.1379281,61.645363 0.040698,38.61443 51.2366671,-0.17363 4.168737,3.64732 10.42107,-10.94248 12.443685,-0.0103 -0.03101,-1.56321 -13.628626,-0.0605 -9.378755,9.97096 -2.952792,-3.30005 H 8.2400799 l 0.00638,-36.17391 z"
         sodipodi:nodetypes="cccccccccccccccccccccccccc" /><path
         style="fill:#03004c;fill-opacity:1;stroke-width:0.264583"
         d="m 79.807894,74.597368 1.172369,1.172368 2.171052,-2.214475 1.128948,1.128948 1.128948,-1.172369 2.127631,2.171055 0.911841,-1.21579 -4.342106,-4.211844"
         id="path2" /><path
         id="path4"
         style="fill:#03004c;fill-opacity:1;stroke-width:0.264583"
         d="m 106.19843,71.754242 -10.19416,10.1368 -4.256575,-3.985284 -1.070736,0.844393 5.445133,5.112864 10.404488,-10.428772 1.5353,1.535307 84.28273,0.0072 -0.0229,15.516025 1.46966,-0.0027 0.0297,-17.163405 -85.53795,0.251145 z m 85.89467,37.355508 1.5177,-0.087 0.0823,-15.700729 -1.40504,0.01247 z m -0.51846,2.83146 -0.0366,29.9352 2.26795,0.092 -0.0332,-29.89955 z m 2.27067,33.25341 -2.30102,-0.0874 -0.13519,23.60438 -84.24644,-0.15083 -2.25775,2.86546 -9.552384,-9.55239 -6.860563,-0.0868 0.03049,1.55236 6.273002,0.031 10.109455,10.66136 2.60553,-3.64732 h 86.29321 z"
         sodipodi:nodetypes="cccccccccccccccccccccccccccccccccccc" /></g><g
       id="g45"
       style="display:inline;fill:#ffffff;fill-opacity:1"
       inkscape:label="hollow walls"
       transform="matrix(1.1203746,0,0,1.1203746,-7.3324346,-59.626135)"><path
         style="fill:#ffffff;fill-opacity:1;stroke-width:0.264583"
         d="m 179.28671,126.35876 -0.0307,1.75009 8.07497,-0.0307 -0.0614,-1.75009"
         id="path43" /><path
         style="fill:#ffffff;fill-opacity:1;stroke-width:0.351666"
         d="m 171.48089,115.87926 0.004,1.56864 15.91401,-0.0632 -0.18525,-1.56824"
         id="path43-1" /><rect
         style="fill:#ffffff;fill-opacity:1;stroke-width:0.264583"
         id="rect43"
         width="2.3027418"
         height="8.0749741"
         x="167.73174"
         y="94.978569"
         ry="0"
         rx="0" /><path
         style="fill:#ffffff;fill-opacity:1;stroke-width:0.27633"
         d="m 39.655494,124.40985 3.951846,-0.0614 -0.133961,7.61442 -0.736783,-0.12281 0.06697,-5.95645 -3.14808,0.12282"
         id="path44" /><path
         style="fill:#ffffff;fill-opacity:1;stroke-width:0.322623"
         d="m 42.584699,102.42628 -0.09131,11.72867 1.004327,-0.18423 v -11.60585"
         id="path45" /></g></g><g
     inkscape:groupmode="layer"
     id="layer3"
     inkscape:label="Rooms"
     style="display:inline"
     transform="matrix(1.0114812,0,0,1,-0.03178661,0)"><path
       style="fill:#e6e6e6;fill-opacity:1;stroke-width:0.29305"
       d="m 154.73509,89.941667 -1.42008,6.22505 -1.48769,2.7363 -2.56965,3.351953 -3.85447,2.87309 29.61858,-0.20522 -0.20287,-14.912763"
       id="garderob"
       inkscape:label="garderob" /><path
       style="fill:#ffffff;fill-opacity:1;stroke-width:0.296432"
       d="m 72.201669,46.873842 -16.924416,-0.275193 -3.439922,0.687983 -3.439921,1.238371 -2.889534,1.926357 -2.20155,2.476739 -0.96318,1.375978 0.275196,37.42635 0.550386,3.30232 2.063953,2.88953 3.439922,4.127903 3.715116,2.20155 36.463171,0.1376 -0.137597,-12.246113 H 72.476862 V 81.823437 H 71.65128 l 0.137598,-14.72286 0.963176,0.13761 v -0.2752"
       id="priem_hall"
       inkscape:label="hall1" /><path
       style="display:inline;fill:#e6e6e6;fill-opacity:1;stroke-width:0.296432"
       d="M 38.628033,23.482375 H 2.7152487 v 29.170539 l 35.9127843,0.41279 -0.137598,-0.275198"
       id="0105"
       inkscape:label="0105" /><path
       style="display:inline;fill:#e6e6e6;fill-opacity:1;stroke-width:0.296432"
       d="m 41.24237,23.619971 -0.275193,18.713176 h 1.375969 l -0.275193,3.302321 -1.23837,-0.137594 -0.137599,7.430225 2.614342,-3.715113 3.164727,-2.063951 4.953487,-2.20155 6.467052,-0.275193 5.916668,0.275193 0.275192,-21.189916"
       id="path3"
       inkscape:label="0105" /><path
       style="display:inline;fill:#e6e6e6;fill-opacity:1;stroke-width:0.296432"
       d="m 66.566746,36.161462 -0.145942,8.756612 5.886385,0.04865 0.0973,-8.853905"
       id="path46"
       sodipodi:nodetypes="cccc"
       inkscape:label="0105" /><path
       style="fill:#e6e6e6;fill-opacity:1;stroke-width:0.296432"
       d="m 2.7894281,54.793591 -0.1945917,9.924156 26.1725386,0.29189 0.09729,-10.118753"
       id="0106"
       inkscape:label="0106" /><path
       style="fill:#e6e6e6;fill-opacity:1;stroke-width:0.296432"
       d="M 2.4975408,94.003737 V 104.0252 H 28.670079 l 0.19459,-9.826863"
       id="0103"
       inkscape:label="0103" /><path
       style="fill:#e6e6e6;fill-opacity:1;stroke-width:0.296432"
       d="M 2.7894281,106.1657 2.5948364,128.44641 H 38.107758 l 0.09729,-22.08612"
       id="0102"
       inkscape:label="0102" /><path
       style="display:inline;fill:#e6e6e6;fill-opacity:1;stroke-width:0.296432"
       d="m 40.442857,115.1169 v 13.62139 H 48.22651 V 115.0196"
       id="0161"
       inkscape:label="0161" /><path
       style="fill:#e6e6e6;fill-opacity:1;stroke-width:0.296432"
       d="m 55.523688,119.78709 v -4.3783 l -5.156673,-0.0972 0.09729,4.37831 h 1.751319 l -0.19459,2.3351 h -1.654027 l 0.09729,6.51881 h 10.021451 l 0.09729,-8.07555 -2.724278,-0.0972 -0.194594,2.0432 h -3.405351 v -2.82158"
       id="0163"
       inkscape:label="0163" /><path
       style="fill:#e6e6e6;fill-opacity:1;stroke-width:0.296432"
       d="m 50.464312,106.1657 -0.194594,2.3351 5.448559,0.0972 -0.09729,-2.43239"
       id="wc2"
       inkscape:label="wc2" /><path
       style="fill:#e6e6e6;fill-opacity:1;stroke-width:0.296432"
       d="m 50.367015,110.544 -0.09729,2.52968 5.253968,0.0972 -0.09729,-2.52969"
       id="wc"
       inkscape:label="wc" /><path
       style="display:inline;fill:#e6e6e6;fill-opacity:1;stroke-width:0.294452"
       d="m 165.45273,106.72848 0.81459,22.29068 -21.85809,-0.13759 v -2.47674 l -2.44376,0.13759 -0.13579,2.20155 h -7.87434 l -0.13575,-7.15503 4.75175,0.2752 v -3.02713 l -5.15905,0.13758 v -4.67829 l 8.41739,0.1376 v 4.81588 l -1.35764,-0.13759 0.13577,2.47675 1.35766,-0.13761 v 3.16475 l 2.17221,-0.2752 -0.67882,-13.4845 -1.76493,0.1376 -0.13576,1.23837 -8.55317,-0.1376 v -1.10077 h -2.03648 l 0.27154,17.74999 -8.8247,-0.27519 -0.67883,-21.7403 8.8247,0.27518 v 1.65117 l 2.308,-0.1376 v -1.92635 l 8.55316,0.1376 v 1.37596 h 2.30801 l -0.13576,-1.51356 8.68892,0.1376 -0.13577,1.10077 2.30802,0.1376 v -1.37597 l 0.13574,0.1376"
       id="0114"
       inkscape:label="0114" /><path
       style="fill:#e6e6e6;fill-opacity:1;stroke-width:0.288677"
       d="m 177.30278,106.72848 -9.26491,-0.0345 0.75033,22.35948 h 8.71032"
       id="0113"
       sodipodi:nodetypes="cccc"
       inkscape:label="0113" /><path
       style="display:inline;fill:#e6e6e6;fill-opacity:1;stroke-width:0.28844"
       d="m 179.28379,82.717447 3.50055,-0.0972 0.18424,6.32422 1.93453,-0.0972 -0.092,-3.01616 19.52945,-0.19459 0.36849,8.85391 -19.25308,-0.19459 -0.092,-3.40534 -2.02663,0.29187 0.82908,21.113153 2.21086,-0.0972 -0.18424,-3.79454 17.91325,0.0972 0.18424,11.84455 -17.63688,-0.16907 -0.092,-5.25397 -2.21087,-0.0972 0.092,1.36213 -4.606,-0.29188"
       id="0112"
       inkscape:label="0112"
       sodipodi:nodetypes="cccccccccccccccccccc" /><path
       style="fill:#e6e6e6;fill-opacity:1;stroke-width:0.296432"
       d="m 109.90321,84.437797 0.41279,20.157923 20.15793,-0.20639 -0.2752,-19.951533"
       id="mirror_room"
       inkscape:label="mirror_room" /><path
       style="fill:#e6e6e6;fill-opacity:1;stroke-width:0.296432"
       d="m 153.50044,64.328557 0.0972,6.12963 20.04291,0.29188 -0.19458,-6.2269"
       id="storage"
       inkscape:label="0120" /><path
       style="display:inline;fill:#e6e6e6;fill-opacity:1;stroke-width:0.296432"
       d="m 175.78114,69.387937 0.0972,2.62698 5.83775,0.0972 -0.68108,-14.691647 h -3.21076 l -0.48648,-11.772774 0.0972,-0.291888 19.65372,0.291888 -0.19459,-0.972959 2.3351,0.194591 0.0972,0.875663 h 5.83773 l 0.38918,-4.281012 -6.22691,-0.09729 -0.0972,0.681072 h -2.14051 v -0.681072 l -22.76718,-0.09729 v -1.751322 h 0.58377 l -0.0972,-5.448558 -0.48648,-0.09729 v -2.04321 h 0.29188 l -0.0972,-7.005288 h -3.30805 v 7.199882 h 0.38919 l 0.0972,1.848616 -0.58378,-0.09729 0.29188,5.156671 h 0.58384 l -0.0972,2.04321 h -0.87564 l -4.47561,4.475599 0.0972,1.167549 h 1.9459 v 1.362141 l -0.0972,0.389182 -6.7134,-0.09729 v 2.043186 l -2.14051,0.09729 v -2.2378 l -6.8107,-0.09729 0.58379,13.91329 6.6161,0.19459 -0.38919,-9.145798 0.0972,-0.194599 h 2.23782 l 0.0972,1.459444 h 3.21076 v 1.945912 l -3.21076,-0.09725 0.29189,5.935021 h 10.99441 l -0.19459,-5.740435 h -5.64315 v -2.140509 l 5.83774,0.194598 -0.38918,-5.837743 -2.33509,-0.194589 v -1.751291 l 4.281,-0.09729 0.48648,14.886239 0.68107,-0.0972 -0.0972,2.14049 -0.77834,-0.19458 0.29188,4.28101 1.16755,-0.0972 0.0972,2.1405"
       id="0120"
       inkscape:label="0120" /><path
       style="fill:#e6e6e6;fill-opacity:1;stroke-width:0.296432"
       d="m 138.90608,70.360897 h 5.05937 l -0.0972,-8.36743 2.33511,-0.0972 0.19459,8.46471 5.05936,0.0972 -0.68105,-12.74573 h -4.86479 l -0.0972,2.140512 -2.43238,-0.194602 v -3.891811 l 7.39447,0.09725 -0.38919,-7.491773 -10.89712,-0.194589 0.38918,-2.043208 10.41064,0.09729 -0.38917,-12.064666 8.85389,-0.194591 v -8.853906 h -24.71324 l -0.0972,1.75132 -0.77835,1.945916 -1.16755,2.043208 -1.84862,1.459434 -2.62697,0.875662 -1.16755,-0.09729 v -2.043209 l 2.33508,-0.87566 2.04323,-1.945917 0.68105,-3.016163 h -8.27013 l -0.0972,5.643148 1.26486,0.09729 -0.19461,2.043212 -1.07025,0.19459 v 1.459434 h 7.68637 l -0.2919,2.3351 -7.19988,-0.09729 0.38919,8.756612 13.13492,-0.09729 -0.0972,2.52969 -11.18899,-0.389184 2.72428,2.821575 1.65403,2.626988 1.26483,3.210757 0.0972,4.086421 1.75131,0.09722 -0.19458,2.43239 -1.65403,-0.19457 0.38917,7.58904 5.25398,-0.0972 -0.1946,-7.68637 -1.75132,0.19461 0.0972,-2.140517 h 4.28101"
       id="path47"
       inkscape:label="0120" /><path
       style="fill:#e6e6e6;fill-opacity:1;stroke-width:0.296432"
       d="m 160.89491,24.92381 0.19458,11.480889 -8.56201,-0.09729 0.38918,9.92416 11.57819,0.291886 0.0972,-1.654025 5.05936,-5.059376 -0.38917,-14.788945"
       id="path49"
       inkscape:label="0120" /><path
       style="fill:#e6e6e6;fill-opacity:1;stroke-width:0.296432"
       d="m 176.11878,25.021105 0.29189,14.302467 h 14.01057 l -0.19459,-14.205168"
       id="path50"
       inkscape:label="0120" /><path
       style="fill:#e6e6e6;fill-opacity:1;stroke-width:0.296432"
       d="m 192.4187,25.021105 0.48648,14.594353 12.35656,-0.194591 -0.2919,-14.302463"
       id="path51"
       inkscape:label="0120" /><path
       style="fill:#e6e6e6;fill-opacity:1;stroke-width:0.296432"
       d="m 182.78643,47.399111 8.07555,0.09729 0.38918,8.464727 -3.89184,-0.09725 v -2.724325 h -2.82157 l 0.0972,2.335095 h 0.58379 l 0.0972,2.237803 -2.43239,-0.194597"
       id="path52"
       inkscape:label="0120" /><path
       style="fill:#e6e6e6;fill-opacity:1;stroke-width:0.296432"
       d="m 192.80789,47.593705 12.64843,-0.09729 0.0972,8.562014 -12.25926,-0.09725"
       id="path55"
       inkscape:label="0120" /><path
       style="fill:#ffffff;fill-opacity:1;stroke-width:0.296432"
       d="m 74.788231,47.301816 46.312749,0.291889 1.26483,0.583773 1.65403,1.459434 2.3351,2.821571 1.84862,3.016171 0.77836,3.50265 0.0972,6.421503 -0.0972,7.0053 73.26364,0.97296 h 1.90008 l 0.18213,7.24613 -51.11923,-0.43544 -0.19459,11.48088 -1.07024,3.59995 -3.30807,4.67018 -4.76748,4.378313 -2.62699,0.87565 -0.87566,-0.0972 -7.39447,-0.19458 -0.29188,-22.767183 -25.10229,0.19459 0.29188,22.377993 -16.540253,-0.19458 -0.19459,-12.356553 H 101.25265 L 100.86348,57.031413 74.496344,56.836826"
       id="hall1"
       inkscape:label="hall1"
       sodipodi:nodetypes="cccccccccccccccccccccccccccc" /><path
       style="fill:#ffffff;fill-opacity:1;stroke-width:0.296432"
       d="m 100.1824,69.582517 -3.891823,0.0972 v -2.04321 h 1.945909 v -8.464724 l -5.545851,-0.09722 -0.09729,8.464734 2.043208,-0.0972 -0.583773,2.33508 h -5.740446 l 0.09729,-2.43238 1.848617,-0.1946 v -7.68635 l -6.907993,-0.389192 -0.194593,8.172842 2.821574,0.1946 -0.19459,2.33508 -6.907992,-0.38918 0.194589,-1.75132 2.043211,-0.19458 0.194591,-8.172851 -7.005289,-0.389184 v 8.367435 l 2.432391,0.29189 -0.389182,1.75133 h -2.529687 l 0.19459,10.31332 h 1.945914 l 0.09729,2.33511 -1.654028,-0.1946 0.291888,8.27014 6.032332,-0.29189 0.09729,-7.97825 -2.237801,-0.0972 v -2.14049 l 6.12963,0.38919 -0.09729,1.84862 -2.140504,-0.0972 0.09729,8.27014 h 7.491767 l -0.09729,-8.36744 -2.918869,0.0972 0.291886,-2.04319 6.713402,0.0972 -0.68107,2.14052 h -1.459436 l 0.291887,8.36742 6.908002,-0.19459 0.291881,-8.36744 h -2.626981 l -0.389181,-1.94591 4.1837,-0.0972"
       id="elevators1"
       inkscape:label="elevators1" /><path
       style="fill:#e6e6e6;fill-opacity:1;stroke-width:0.263077"
       d="m 110.60096,24.933107 10.30276,-0.173682 0.34343,20.668422 -10.30277,-0.260527"
       id="path56"
       inkscape:label="0119"
       sodipodi:nodetypes="cccc" /></g></svg>
