<?xml version="1.0" encoding="UTF-8" standalone="no"?>
<!-- Created with Inkscape (http://www.inkscape.org/) -->

<svg
   width="210mm"
   height="150mm"
   viewBox="0 0 210 150"
   version="1.1"
   id="svg1"
   xml:space="preserve"
   inkscape:version="1.4.3 (0d15f75, 2025-12-25)"
   sodipodi:docname="2.svg"
   xmlns:inkscape="http://www.inkscape.org/namespaces/inkscape"
   xmlns:sodipodi="http://sodipodi.sourceforge.net/DTD/sodipodi-0.dtd"
   xmlns="http://www.w3.org/2000/svg"
   xmlns:svg="http://www.w3.org/2000/svg"><sodipodi:namedview
     id="namedview1"
     pagecolor="#505050"
     bordercolor="#eeeeee"
     borderopacity="1"
     inkscape:showpageshadow="0"
     inkscape:pageopacity="0"
     inkscape:pagecheckerboard="0"
     inkscape:deskcolor="#505050"
     inkscape:document-units="mm"
     inkscape:zoom="1.0771772"
     inkscape:cx="315.17563"
     inkscape:cy="319.81739"
     inkscape:window-width="1920"
     inkscape:window-height="1057"
     inkscape:window-x="-8"
     inkscape:window-y="-8"
     inkscape:window-maximized="1"
     inkscape:current-layer="svg1" /><defs
     id="defs1" /><path
     style="display:inline;fill:#ffffff;fill-opacity:1;stroke-width:0.274724"
     d="m 3.362111,18.949132 -0.5100818,112.983088 56.3640218,-0.25505 3.315531,4.3357 11.476834,-11.73188 21.933512,0.25505 10.456672,11.98691 4.59074,-5.10081 96.91551,1.02016 L 207.13972,22.519705 108.69397,21.499542 105.63348,17.163848 93.901602,30.17093 83.95501,16.653765 73.243296,30.936052 61.256378,17.418888 l -2.55041,3.57057 z"
     id="path39" /><g
     inkscape:groupmode="layer"
     id="layer2"
     inkscape:label="walls"
     style="display:inline"><g
       id="layer5"
       inkscape:label="inner"
       style="display:inline"
       transform="matrix(1.0383275,0,0,1.0383275,-4.0340729,-48.381643)"><path
         style="display:inline;fill:#606060;fill-opacity:1;stroke-width:0.264583"
         d="m 174.14923,132.39272 -1.8422,-49.493757 -0.9825,-0.245626 v -0.859692 h 4.6669 l -0.12281,0.982507 h -1.35095 l 1.47376,26.282038 -2.08782,-0.12281 1.10531,23.82577 z"
         id="path3"
         transform="matrix(0.96308728,0,0,0.96308728,3.8851643,46.595745)" /><path
         style="display:inline;fill:#606060;fill-opacity:1;stroke-width:0.264583"
         d="m 206.29342,80.285525 -26.61711,-0.260527 v 1.953948 l -0.95526,-0.04342 0.17368,0.781579 h 0.91185 l 0.13026,3.169735 26.44342,0.08684 -0.0868,-0.911844 -25.74869,-0.173683 -0.0868,-4.298685 25.83553,0.607896 z"
         id="path4"
         transform="matrix(0.96308728,0,0,0.96308728,3.8851643,46.595745)" /><path
         style="display:inline;fill:#606060;fill-opacity:1;stroke-width:0.264583"
         d="m 117.4709,131.90146 -0.49125,-47.28311 4.72831,-0.06141 0.0614,-1.965013 0.9825,0.06141 v -0.798285 h -0.9825 v -2.149234 l -16.82542,-0.0614 -0.12282,6.816135 0.8597,-0.122812 -0.12282,-1.719387 h 10.62335 v 14.921815 l -10.43913,-0.184222 -0.12281,-9.456621 -0.79829,-0.06141 v 11.053194 h 0.8597 v -0.61407 l 10.56194,0.0614 0.12281,8.2899 -8.10567,0.0614 v -4.42127 h -3.43878 v 16.76401 l -0.9211,0.0614 v 0.85969 l 3.56159,0.12281 0.0614,8.65834 h 1.53516 l 0.24563,1.65798 c 0,0 0.73688,-0.42985 0.73688,-0.67548 0,-0.24562 -0.18422,-2.02642 -0.18422,-2.02642 l -1.41235,-0.0614 0.0614,-20.01857 7.92146,-0.12281 0.12281,22.53624 z"
         id="path5"
         transform="matrix(0.96308728,0,0,0.96308728,3.8851643,46.595745)" /><path
         style="display:inline;fill:#606060;fill-opacity:1;stroke-width:0.264583"
         d="m 167.82435,100.7683 -1.10532,0.0614 -0.49125,-15.658691 -39.05463,-0.429845 0.0614,-2.087827 -1.28954,-0.06141 v -0.798285 h 1.10532 v -2.39486 l 39.85291,0.245629 0.0614,2.272043 1.16673,-0.122812 v 0.736881 l -1.28954,-0.06141 z"
         id="path6"
         transform="matrix(0.96308728,0,0,0.96308728,3.8851643,46.595745)" /><path
         style="display:inline;fill:#606060;fill-opacity:1;stroke-width:0.264583"
         d="m 33.781579,122.1 -0.173686,9.98684 h 1.21579 v -10.07368 z"
         id="path7"
         transform="matrix(0.96308728,0,0,0.96308728,3.8851643,46.595745)" /><path
         style="display:inline;fill:#606060;fill-opacity:1;stroke-width:0.264583"
         d="m 34.997368,118.1921 h -0.86842 l 0.43421,-11.98421 0.781579,0.0868 v 1.47632 l 4.689472,-0.34737 0.434211,-5.47105 -1.21579,-0.17369 v -0.60789 h 1.302631 l -0.08684,-4.949999 h -4.689472 v 4.949999 l 0.86842,0.0868 v 0.69474 l -1.302631,0.0868 v 0.43421 l -0.781579,0.17369 0.781579,-12.244742 0.607894,0.08684 -0.151974,5.058552 4.776316,0.04342 0.455922,-10.876973 -4.88487,-0.02172 -0.08684,2.062501 -0.629605,0.0217 0.02172,-3.625657 h -0.998683 l 0.06513,-0.846712 0.911841,-0.0217 0.151974,-2.822369 26.851657,0.107147 -0.04606,8.919313 -0.859692,0.06141 0.06141,-3.6844 -19.742242,-0.122809 -0.399145,10.868972 19.865043,-0.153392 c 0,0 -0.0307,-3.377367 0.122814,-3.377367 h 0.798285 l -0.09211,6.53981 -0.828989,0.09211 v -2.333453 l -19.957159,-0.09211 -0.429847,11.176009 20.14138,-0.0614 0.122811,-5.15816 h 0.859695 l -0.0307,3.53088 1.934311,-0.0614 0.09211,0.82899 H 62.05142 l -0.429847,15.07534 h 1.842198 l 0.09211,0.76757 h -1.995718 l -0.122811,9.51803 h -3.6844 l 1.28954,-0.64476 0.184218,-0.46056 0.644772,-22.41343 -24.50125,-0.0614 z"
         id="path8"
         sodipodi:nodetypes="ccccccccccccccccccccccccccccccccccccccscccccccccccccccccccccccc"
         transform="matrix(0.96308728,0,0,0.96308728,3.8851643,46.595745)" /><path
         style="display:inline;fill:#606060;fill-opacity:1;stroke-width:0.264583"
         d="m 3.0394735,107.4671 25.0973685,-0.13026 0.173683,-4.03816 0.86842,-0.0434 -0.130262,4.99342 -3.213157,0.0434 -0.347369,10.20395 -0.911842,0.0868 0.173684,-10.33421 -21.7973676,0.17369 z"
         id="path9"
         transform="matrix(0.96308728,0,0,0.96308728,3.8851643,46.595745)" /><path
         style="display:inline;fill:#606060;fill-opacity:1;stroke-width:0.264583"
         d="m 24.272368,122.05658 -0.303947,9.63947 0.955263,-0.0434 0.217105,-9.33553 z"
         id="path10"
         transform="matrix(0.96308728,0,0,0.96308728,3.8851643,46.595745)" /><path
         style="display:inline;fill:#606060;fill-opacity:1;stroke-width:0.264583"
         d="m 28.527631,99.564472 h 0.868421 l 0.43421,-16.499999 1.085528,-0.08684 0.04342,-0.651314 -0.998685,-0.08684 0.130265,-2.90921 -22.6657901,-0.08684 -0.086842,0.911842 h 0.868421 l -0.043421,2.605264 -0.955263,-0.130265 -0.043421,1.042107 21.9276301,0.173683 -0.43421,11.246053 -25.4447359,0.04342 v 0.694738 l 25.3578939,0.04342 z"
         id="path11"
         transform="matrix(0.96308728,0,0,0.96308728,3.8851643,46.595745)" /><path
         style="display:inline;fill:#606060;fill-opacity:1;stroke-width:0.264583"
         d="m 2.9526314,63.915789 37.0815776,0.607894 -0.08684,1.476316 h 0.521052 V 66.86842 L 39.860527,66.78158 39.773687,69.473683 2.7789523,69.3 Z"
         id="path12"
         transform="matrix(0.96308728,0,0,0.96308728,3.8851643,46.595745)" /><path
         style="display:inline;fill:#606060;fill-opacity:1;stroke-width:0.264583"
         d="m 43.840363,66.843436 0.06622,-0.838171 1.11623,0.04869 0.09166,-1.877641 4.211841,0.130265 1.21579,-43.334211 h 0.694737 l -0.738158,33.260526 11.984209,0.130262 0.130263,-2.127631 0.738158,-0.08684 -0.130262,5.992103 -0.738159,-0.04342 0.04342,-2.692103 -12.07105,-0.30395 L 50.238157,64.35 h 12.027632 l 0.173683,-2.822369 0.738159,0.04342 -0.08684,5.471051 h 1.389473 l -0.08684,0.738159 h -1.432896 l 0.08684,1.69342 -14.632892,-0.130262 0.08684,-0.868421 0.781579,0.04342 0.04342,-3.34342 -3.560527,-0.04342 -0.04342,3.34342 0.825,0.04342 v 0.825 l -1.614028,-0.04342 0.03552,-2.434213 z"
         id="path13"
         sodipodi:nodetypes="ccccccccccccccccccccccccccccccccccc"
         transform="matrix(0.96308728,0,0,0.96308728,3.8851643,46.595745)" /><path
         style="display:inline;fill:#606060;fill-opacity:1;stroke-width:0.264583"
         d="m 59.625848,19.711532 c 0.307033,0 1.903606,0.245626 1.903606,0.245626 l -0.122814,10.132097 3.745806,0.0614 v 0.644771 H 63.8015 l -0.276331,12.189216 1.381649,0.0307 v 0.675473 l -1.381649,-0.0307 -0.122812,5.035347 -0.828989,-0.0307 0.09211,-3.930023 -2.364155,-0.09211 0.521956,-23.795073 h -1.780794 z"
         id="path14"
         transform="matrix(0.96308728,0,0,0.96308728,3.8851643,46.595745)" /><path
         style="display:inline;fill:#606060;fill-opacity:1;stroke-width:0.264583"
         d="m 69.430261,27.919735 -0.08684,2.257896 h -0.955262 v 0.564473 l 1.823683,0.04342 -0.173683,12.33158 H 68.12763 l -0.04342,0.738156 1.910524,-0.04342 -0.130262,7.902633 h 0.781579 l 0.173686,-7.511843 h 1.25921 V 42.11842 L 70.906578,42.03158 V 30.785525 l 1.259211,0.04342 -0.217107,-1.21579 z"
         id="path15"
         transform="matrix(0.96308728,0,0,0.96308728,3.8851643,46.595745)" /><path
         style="display:inline;fill:#606060;fill-opacity:1;stroke-width:0.264583"
         d="m 94.310524,30.047369 2.561842,0.04342 v -1.65 h 1.997368 l 0.04342,1.563158 0.911844,0.04342 0.04342,0.825 -2.996054,-0.08684 -0.08015,11.769277 2.118527,0.01535 v 2.011069 l -2.118527,-0.03071 -0.06141,7.752588 -0.82899,-0.01535 0.168868,-21.476972 -2.272046,-0.06141 z"
         id="path16"
         transform="matrix(0.96308728,0,0,0.96308728,3.8851643,46.595745)" /><path
         style="display:inline;fill:#606060;fill-opacity:1;stroke-width:0.264583"
         d="m 69.880757,55.450197 -0.184222,11.790074 -1.842198,-0.184219 -0.06141,0.798285 1.965013,0.122814 -0.06141,1.596573 3.438774,-0.06141 -0.122814,-0.736881 -2.763298,-0.122811 0.36844,-11.176011 8.719741,0.06141 -0.245626,11.298822 -2.640486,-0.06141 0.06141,0.859695 5.956445,-0.06141 v -0.982507 l -2.333453,0.184219 0.122815,-11.1146 h 7.737237 v 11.298822 l -2.210642,-0.184222 -0.0614,0.798288 5.280969,0.184219 v -0.859692 l -2.210638,-0.184219 0.06141,-11.237418 8.903962,0.245629 -0.122812,11.421633 -3.438774,-0.122811 0.06141,0.736878 h 5.526599 L 99.60158,68.898245 h -1.28954 l 0.0614,-12.035703 h -1.719384 l -0.06141,-1.166725 -0.73688,-0.06141 v 1.350946 l -25.238128,-0.491254 0.122812,-1.28954"
         id="path17"
         transform="matrix(0.96308728,0,0,0.96308728,3.8851643,46.595745)" /><path
         style="display:inline;fill:#606060;fill-opacity:1;stroke-width:0.264583"
         d="m 69.560524,81.197367 -0.303946,12.592105 29.005263,0.130263 0.08684,-12.722368 -3.864475,0.08684 0.04342,0.651317 3.039472,0.130263 v 11.159209 l -8.640789,-0.130262 0.130263,-11.028947 h 2.171054 v -0.868421 l -5.731581,-0.08684 v 0.868421 h 2.605264 l 0.04342,11.115789 H 79.72105 l 0.08684,-11.20263 h 2.475 l 0.04342,-0.825 -6.035527,0.08684 0.04342,0.781579 2.561841,0.04342 -0.04342,11.15921 -8.771051,-0.04342 V 81.978946 l 2.90921,-0.04342 0.04342,-0.825 z"
         id="path18"
         transform="matrix(0.96308728,0,0,0.96308728,3.8851643,46.595745)" /><path
         style="display:inline;fill:#606060;fill-opacity:1;stroke-width:0.264583"
         d="m 97.759371,112.37415 v -5.71081 l -27.878614,-0.12282 -0.06141,15.07533 0.675472,-0.0154 2.456268,2.47161 -0.414495,0.61407 -2.3181,-2.27205 -3.131739,-0.0921 0.07676,-0.67547 h 1.535168 l 0.322385,-14.98322 -1.719387,-0.0614 0.122814,-1.04392 31.440199,0.24563 -0.184221,6.81614 z"
         id="path19"
         sodipodi:nodetypes="ccccccccccccccccc"
         transform="matrix(0.96308728,0,0,0.96308728,3.8851643,46.595745)" /><path
         style="display:inline;fill:#606060;fill-opacity:1;stroke-width:0.264583"
         d="m 94.136381,123.42735 3.438771,-1.96501 0.0307,-5.15816 0.82899,-0.0614 0.06141,4.97394 1.903608,0.0614 -0.0921,0.61407 -2.118532,0.18423 -3.592288,2.05712 z"
         id="path20"
         sodipodi:nodetypes="cccccccccc"
         transform="matrix(0.96308728,0,0,0.96308728,3.8851643,46.595745)" /><path
         style="display:inline;fill:#606060;fill-opacity:1;stroke-width:0.264583"
         d="m 105.94737,19.192105 -0.0869,11.20263 -2.6921,-0.173683 -0.0868,0.607896 h 1.65 l -0.26053,38.123682 h -1.47632 l 0.17369,0.955263 4.77631,0.08684 0.17369,-47.93684 -0.78158,-0.43421 -0.0868,47.394077 -1.95395,-0.04342 0.2171,-37.971709 0.95527,-0.08684 0.17368,-10.768422 z"
         id="path21"
         transform="matrix(0.96308728,0,0,0.96308728,3.8851643,46.595745)"
         sodipodi:nodetypes="ccccccccccccccccc" /><path
         style="display:inline;fill:#606060;fill-opacity:1;stroke-width:0.264583"
         d="m 112.74259,44.704034 0.24563,22.413423 -1.47376,0.06141 0.0614,0.675473 h 1.35095 l 0.0614,1.842198 54.34487,0.736881 -0.12281,-0.859692 -1.28954,0.06141 -0.0614,-3.930026 -52.13424,-0.859692 0.0614,-20.079972 z"
         id="path22"
         transform="matrix(0.96308728,0,0,0.96308728,3.8851643,46.595745)" /><path
         style="display:inline;fill:#606060;fill-opacity:1;stroke-width:0.264583"
         d="m 169.54373,22.720457 1.53517,47.1603 h -0.73688 l 0.0614,0.614066 h 4.6669 L 174.8861,69.81935 h -1.04391 l -0.98251,-27.448769 -2.02642,-0.06141 -0.55266,-19.588719 z"
         id="path23"
         transform="matrix(0.96308728,0,0,0.96308728,3.8851643,46.595745)" /><path
         style="display:inline;fill:#606060;fill-opacity:1;stroke-width:0.264583"
         d="m 206.20657,53.321053 h -20.88552 l -0.17368,-2.171055 -6.55658,0.04342 0.91184,18.714474 h -1.34606 v 0.738158 l 21.14606,0.217106 -0.0434,-3.821054 -19.06185,-0.04342 -0.60789,-10.37763 26.87763,0.04342 z"
         id="path24"
         transform="matrix(0.96308728,0,0,0.96308728,3.8851643,46.595745)" /></g><g
       id="g45"
       style="display:inline;fill:#ffffff;fill-opacity:1"
       inkscape:label="hollow walls"
       transform="matrix(1.1633158,0,0,1.1633158,-11.362886,-70.176991)"><path
         style="display:inline;fill:#ffffff;fill-opacity:1;stroke-width:0.254817"
         d="m 6.960442,109.22496 34.537734,0.23656 -0.05914,3.37097 -34.537734,-0.23656 z"
         id="path25"
         transform="matrix(0.89255858,0,0,0.89255858,6.2999342,18.735539)" /><path
         style="fill:#ffffff;fill-opacity:1;stroke-width:0.227439"
         d="m 53.157659,116.22521 9.976531,0.0528 0.05279,3.16715 -10.029317,-0.26393 z"
         id="path26" /><path
         style="fill:#ffffff;fill-opacity:1;stroke-width:0.227439"
         d="m 41.016908,129.31611 21.536637,0.15836 v 2.85043 l -21.642209,-0.0528 z"
         id="path27" /><path
         style="fill:#ffffff;fill-opacity:1;stroke-width:0.227439"
         d="m 34.682604,129.15775 -0.05279,2.58651 -17.26098,-0.15836 0.05279,-2.48094 z"
         id="path28" /><path
         style="fill:#ffffff;fill-opacity:1;stroke-width:0.227439"
         d="m 61.836393,153.56344 0.522555,-0.0373 -0.373252,19.59575 h -0.671855 z"
         id="path29" /><path
         style="fill:#ffffff;fill-opacity:1;stroke-width:0.227439"
         d="m 107.68547,116.80586 43.97063,0.68621 0.0528,2.69208 -44.12899,-0.68622 z"
         id="path30" /><path
         style="fill:#ffffff;fill-opacity:1;stroke-width:0.227439"
         d="m 119.61508,129.31611 32.78002,0.15836 0.0528,3.43108 -32.72724,-0.3695 z"
         id="path31" /><path
         style="fill:#ffffff;fill-opacity:1;stroke-width:0.220041"
         d="m 100.42741,129.3919 0.0264,3.03858 h 13.40762 l 0.10557,-3.08798 z"
         id="path32" /><path
         style="fill:#ffffff;fill-opacity:1;stroke-width:0.227439"
         d="m 62.447974,86.770694 1.53079,0.05278 -0.316716,11.428142 -1.557183,-0.05278 z"
         id="path33"
         sodipodi:nodetypes="ccccc" /><path
         style="fill:#ffffff;fill-opacity:1;stroke-width:0.227439"
         d="m 100.55174,150.59288 1.52127,0.0592 0.11198,13.58639 -1.59593,-0.0264 z"
         id="path34"
         sodipodi:nodetypes="ccccc" /><path
         style="fill:#ffffff;fill-opacity:1;stroke-width:0.227439"
         d="m 159.32995,153.19019 1.08243,0.0746 -1.11976,-21.64864 h -0.8958 z"
         id="path35" /><path
         style="fill:#ffffff;fill-opacity:1;stroke-width:0.227439"
         d="m 156.71718,97.388944 1.08243,0.03733 0.89581,22.880376 h -1.34371 z"
         id="path36" /><path
         style="fill:#ffffff;fill-opacity:1;stroke-width:0.227439"
         d="m 164.66782,118.41583 15.73019,0.0528 0.0792,2.29619 -15.86216,-0.31672 z"
         id="path37" /><path
         style="fill:#ffffff;fill-opacity:1;stroke-width:0.227439"
         d="m 186.83789,106.61818 -18.29031,0.15836 -0.0792,-2.03226 -4.59237,-0.0264 0.13197,3.80058 23.09382,-0.13196 z"
         id="path38" /></g><g
       id="layer6"
       inkscape:label="outer"
       style="display:inline"
       transform="matrix(1.0383275,0,0,1.0383275,-4.525326,-48.136016)"><path
         style="display:inline;fill:#00004c;fill-opacity:1;stroke-width:0.264583"
         d="m 5.9052631,63.915787 54.3631579,1.389475 2.778945,-2.778948 11.463157,12.157895 10.073685,-13.026316 3.3,3.994738 -1.21579,1.042103 -2.08421,-2.08421 -9.726316,12.678947 -11.63684,-12.331578 -2.431579,2.08421 L 8.1631577,65.652631 7.642105,172.46842 l 53.66842,0.34736 3.126316,3.47369 10.247368,-11.11579 h 21.536842 l 10.247369,11.63684 3.12631,-3.99474 93.44211,0.17369 L 202.51578,69.126313 108.37894,68.257893 105.6,64.78421 94.310524,76.942102 l -2.952631,-3.994734 1.563156,-0.868424 1.563158,2.257896 11.289473,-12.331578 3.3,4.342104 95.52632,1.215789 0.34736,107.163155 -94.13684,-0.34737 -4.3421,4.68948 -11.463158,-11.63684 -19.626315,-0.17369 -11.46316,11.28947 -3.821052,-4.16842 L 5.5578946,174.03157 5.9052631,65.999999"
         id="path1" /><path
         style="display:inline;fill:#00004c;fill-opacity:1;stroke-width:0.267207"
         d="m 86.460549,66.392592 5.576164,7.448893 1.332082,-1.179407 -5.793013,-7.386821"
         id="path2" /></g></g><g
     inkscape:groupmode="layer"
     id="layer3"
     inkscape:label="Rooms"
     style="display:inline"
     transform="matrix(1.0114812,0,0,1,-0.03178661,0)"><path
  style="display:inline;fill:#ffffff;fill-opacity:1;stroke-width:0.27316"
  d="m 70.391768,58.380279 -0.178294,10.27945 3.387588,-0.0901 -0.08915,1.98375 h -3.833323 v 10.36962 l 3.922469,-0.18035 v 2.52478 l -2.585264,-0.0901 v 9.46791 l 6.418586,0.0901 v -9.55807 l -1.693794,0.0901 -0.08914,-2.52477 h 6.596881 l -0.445735,2.34444 -2.050383,-0.0901 -0.08915,10.00894 6.686027,-0.0901 -0.08915,-10.0991 H 84.38785 l -0.178296,-2.1641 5.972854,0.0901 v 2.07392 l -1.515502,-0.0901 v 10.45978 h 6.686028 l -0.08914,-10.27945 h -2.941853 v -1.98374 l 3.56588,0.0901 0.178296,-10.00893 h -4.011618 l 0.267442,-1.89359 2.852703,-0.36068 0.178295,-10.00893 -6.775173,-0.45085 0.267439,10.45978 1.426354,0.36068 -0.08915,1.5329 -6.062,-0.0901 -0.08915,-1.71324 2.496117,-0.18034 v -10.09911 l -6.864323,-0.18033 0.178296,10.27944 h 2.228674 l -0.08915,2.07393 -6.507735,-0.27052 0.356589,-1.98375 h 1.782943 l 0.08914,-10.0991"
  id="elevator2"
  inkscape:label="elevator2" />
<path
             style="display:inline;fill:#e6e6e6;fill-opacity:1;stroke-width:0.264583"
             d="m 35.922884,109.05819 23.150303,-0.12281 -0.491252,21.73795 -23.21171,0.18422 z"
             id="0201"
             transform="matrix(0.98864913,0,0,1,0.0314258,0)"
             inkscape:label="0201" />
<path
             style="display:inline;fill:#e6e6e6;fill-opacity:1;stroke-width:0.264583"
             d="m 3.930025,108.99679 20.141378,-0.30704 -0.55266,22.04499 -19.7115312,-0.18422 z"
             id="0202"
             transform="matrix(0.98864913,0,0,1,0.0314258,0)"
             inkscape:label="0202" />
<path
             style="fill:#e6e6e6;fill-opacity:1;stroke-width:0.263077"
             d="M 3.9775512,96.347019 27.775723,96.469831 27.350755,106.90896 3.7347128,106.78615 Z"
             id="0203"
             inkscape:label="0203" />
<path
             style="display:inline;fill:#e6e6e6;fill-opacity:1;stroke-width:0.263077"
             d="M 4.8881954,20.816851 48.841963,21.737951 48.052736,63.617278 4.5846475,63.126027 Z"
             id="0204"
             inkscape:label="0204" />
<path
             style="display:inline;fill:#e6e6e6;fill-opacity:1;stroke-width:0.263077"
             d="m 82.414382,20.264191 -9.53141,12.526955 h -0.910644 l -1.032064,-1.473759 -0.424969,0.06141 v 10.254909 l 1.214195,-0.122814 -0.06071,3.561585 -1.396323,-0.36844 0.06071,11.360229 23.798171,0.429845 0.364258,-25.115314 -1.335612,-0.06141 -0.971354,1.473759 z"
             id="0205"
             inkscape:label="0205" />
<path
             style="display:inline;fill:#e6e6e6;fill-opacity:1;stroke-width:0.263077"
             d="m 164.96151,69.039472 3.60597,0.260527 -1.54541,-45.244736 -59.49847,-0.868421 -0.34342,43.594737 4.1211,-0.08684 -0.34342,-22.231577 h 1.88884 l 0.25757,19.973684 51.3421,0.694738 z"
             id="0206"
             inkscape:label="0206" />
<path
             style="display:inline;fill:#e6e6e6;fill-opacity:1;stroke-width:0.263077"
             d="m 202.82417,23.968421 h -33.65569 l 0.34342,17.889474 1.88884,-0.173686 1.11613,27.789473 4.37868,-0.173683 -0.85857,-18.671053 7.46951,0.08684 v 2.431579 l 19.66111,-0.173683 z"
             id="0207"
             sodipodi:nodetypes="ccccccccccc"
             inkscape:label="0207" />
<path
             style="display:inline;fill:#e6e6e6;fill-opacity:1;stroke-width:0.263077"
             d="m 173.71886,130.87105 29.70631,0.34737 -0.25757,-44.463157 -25.75691,-0.260528 v -3.386841 l -4.20697,0.08684 1.45956,26.052636 -2.14641,0.0868 z"
             id="0208"
             inkscape:label="0208" />
<path
             style="display:inline;fill:#e6e6e6;fill-opacity:1;stroke-width:0.263077"
             d="m 116.10924,85.257236 4.52893,-0.03298 0.0109,-2.329472 4.87213,0.02935 -0.0406,2.252645 38.43589,0.48024 0.61572,15.948241 h 1.71713 l -0.68685,-18.584209 4.55038,0.173686 1.54542,47.763153 -54.43294,-0.0868 z"
             id="0209"
             sodipodi:nodetypes="ccccccccccccc"
             inkscape:label="0209" />
<path
             style="display:inline;fill:#e6e6e6;fill-opacity:1;stroke-width:0.263077"
             d="m 104.69034,84.844735 9.78763,0.08684 -0.0429,14.198685 -9.57299,-0.08684 z"
             id="0210"
             inkscape:label="0210" />
<path
             style="display:inline;fill:#e6e6e6;fill-opacity:1;stroke-width:0.263077"
             d="m 114.5209,100.78026 0.12878,7.46842 c 0,0 -6.99729,0.17369 -7.08315,0 -0.0859,-0.17368 -0.17171,-4.3421 -0.17171,-4.3421 l -2.70448,0.0868 0.0859,-3.38684 z"
             id="0211"
             inkscape:label="0211" />
<path
             style="display:inline;fill:#e6e6e6;fill-opacity:1;stroke-width:0.263077"
             d="m 60.255371,85.293823 -18.455725,-0.122814 -0.303548,9.947876 18.745173,0.03257 z"
             id="wc2w"
             sodipodi:nodetypes="ccccc"
             inkscape:label="wc2w" />
<path
             style="fill:#e6e6e6;fill-opacity:1;stroke-width:0.263077"
             d="m 60.133951,96.71546 -18.941401,0.0614 -0.364258,10.43913 19.184239,-0.30703 z"
             id="wc2m"
             inkscape:label="wc2m" /></g></svg>
