<?xml version="1.0" encoding="UTF-8" standalone="no"?>
<!-- Created with Inkscape (http://www.inkscape.org/) -->

<svg
   width="210mm"
   height="150mm"
   viewBox="0 0 210 150"
   version="1.1"
   id="svg1"
   xml:space="preserve"
   inkscape:version="1.4.3 (0d15f75, 2025-12-25)"
   sodipodi:docname="8.svg"
   xmlns:inkscape="http://www.inkscape.org/namespaces/inkscape"
   xmlns:sodipodi="http://sodipodi.sourceforge.net/DTD/sodipodi-0.dtd"
   xmlns="http://www.w3.org/2000/svg"
   xmlns:svg="http://www.w3.org/2000/svg"><sodipodi:namedview
     id="namedview1"
     pagecolor="#505050"
     bordercolor="#eeeeee"
     borderopacity="1"
     inkscape:showpageshadow="0"
     inkscape:pageopacity="0"
     inkscape:pagecheckerboard="0"
     inkscape:deskcolor="#505050"
     inkscape:document-units="mm"
     inkscape:zoom="3.0467172"
     inkscape:cx="285.22503"
     inkscape:cy="262.74181"
     inkscape:window-width="1920"
     inkscape:window-height="1057"
     inkscape:window-x="-8"
     inkscape:window-y="-8"
     inkscape:window-maximized="1"
     inkscape:current-layer="pano_hall_8-1" /><defs
     id="defs1" /><g
     inkscape:label="pic"
     inkscape:groupmode="layer"
     id="layer1"
     style="display:inline" /><path
     style="display:inline;fill:#ffffff;fill-opacity:1;stroke-width:0.274724"
     d="m 3.362111,18.949132 -0.5100818,112.983088 56.3640218,-0.25505 3.315531,4.3357 11.476834,-11.73188 21.933512,0.25505 10.456672,11.98691 4.59074,-5.10081 96.91551,1.02016 L 207.13972,22.519705 108.69397,21.499542 105.63348,17.163848 93.901602,30.17093 83.95501,16.653765 73.243296,30.936052 61.256378,17.418888 l -2.55041,3.57057 z"
     id="path39" /><g
     inkscape:groupmode="layer"
     id="layer2"
     inkscape:label="walls"
     style="display:inline"><g
       id="layer5"
       inkscape:label="inner"
       style="display:inline"
       transform="matrix(1.0383275,0,0,1.0383275,-4.0340729,-48.381643)"><path
         style="display:inline;fill:#757575;fill-opacity:1;stroke-width:0.264583"
         d="m 7.2947368,99.086841 25.0973672,0.08684 V 71.992103 l 0.781579,0.08684 0.260527,33.955267 -1.215789,-0.17369 0.260527,-5.73158 -25.0973692,-0.347365"
         id="path3" /><path
         style="fill:#757575;fill-opacity:1;stroke-width:0.264583"
         d="m 39.25263,65.739472 -0.08684,30.134211 0.86842,-0.08684 -0.08684,-29.786842"
         id="path4" /><path
         style="fill:#757575;fill-opacity:1;stroke-width:0.264583"
         d="m 60.702631,172.81578 3.3,-0.0868 v -12.85263 h 0.86842 l -0.08684,2.34474 1.476314,0.0868 0.08684,0.95526 H 64.87105 l -0.08684,10.42106 h -4.081579"
         id="path5" /><path
         style="fill:#757575;fill-opacity:1;stroke-width:0.264583"
         d="m 73.642103,166.65 -2.778948,-3.21316 -1.302631,-0.17369 0.173686,-0.86842 1.215789,-0.17368 0.08684,-2.2579 0.86842,0.0868 -0.08684,3.12631 2.692103,3.21316"
         id="path6" /><path
         style="fill:#757575;fill-opacity:1;stroke-width:0.264583"
         d="m 7.2078944,110.11579 25.0973676,0.0868 0.08684,-0.95527 0.86842,0.17369 v 6.6 l -0.955262,0.17368 0.08684,-1.30263 -25.0973672,-0.26052 0.086842,-0.86842 25.0105252,0.34736 v -3.12631 H 6.7736841"
         id="path7" /><path
         style="fill:#757575;fill-opacity:1;stroke-width:0.264583"
         d="m 61.049997,66.173683 -0.08684,2.431579 3.126316,-0.08684 0.08684,31.263156 -24.055263,-0.08684 v -0.868421 h -1.042104 l 0.08684,7.555263 h 0.955262 v -0.6079 h 0.694738 l 0.08684,-0.86842 h -0.781579 l -0.08684,-4.42895 3.994738,0.0868 v 4.42895 h -1.128948 l 0.08684,0.95526 1.042107,0.0868 v 3.90789 H 40.20789 l -0.08684,-0.69474 -1.042104,0.0868 0.173683,5.47105 25.878946,0.0868 0.08684,-5.03684 1.128946,0.0868 0.08684,-0.95526 -1.302634,-0.0868 -0.08684,-2.60527 -0.694735,0.17369 -0.08684,3.64737 -7.46842,-0.0868 -0.08684,-0.43421 h -0.781579 l -0.08684,0.6079 -10.942105,-0.17369 v -4.08158 h 0.781579 v -0.95526 l -0.694738,0.0868 0.08684,-4.60263 h 3.039475 l 0.08684,4.42895 h -0.781579 l 0.08684,0.95526 h 1.823685 l -0.08684,-0.86842 h -0.607896 l 0.260527,-4.42895 3.3,0.0869 -0.08684,4.60263 -0.781579,-0.0868 0.08684,0.69473 2.171052,0.17369 -0.08684,-1.04211 -0.607896,-0.0868 0.08684,-4.34211 3.213158,0.0869 -0.173686,4.3421 -0.694737,0.0868 0.08684,0.86842 0.607893,-0.0868 -0.08684,0.52106 0.694737,-0.0868 0.173683,-5.81842 7.46842,0.17369 0.08684,2.6921 0.694735,-0.0868 V 77.289471 h 1.389475 L 66.26051,76.42105 65.044721,76.33421 V 67.65 l -3.039473,-0.08684 v -1.997366"
         id="path8" /><path
         style="fill:#757575;fill-opacity:1;stroke-width:0.264583"
         d="m 69.473682,76.42105 h 4.081579 l -0.08684,-1.215789 1.128948,1.128948 -0.173686,1.302631 -5.036841,-0.260527"
         id="path9" /><path
         style="fill:#757575;fill-opacity:1;stroke-width:0.264583"
         d="m 95.309207,74.944736 v 2.344735 h 4.906583 l -0.0868,-0.825 -4.081574,-0.04342 0.04342,-2.040789"
         id="path10" /><path
         style="fill:#757575;fill-opacity:1;stroke-width:0.264583"
         d="m 108.46579,67.389472 v 0.955262 l -3.12632,-0.08684 v 8.076316 h -2.17105 v 0.868421 l 2.08421,0.08684 -0.0868,32.913159 h -2.08421 l 0.0868,0.86842 h 1.99737 l 0.0868,7.46842 h 0.95526 l -0.17368,-7.55526 4.25526,0.17368 -0.0868,-1.0421 -4.16842,-0.0868 0.26052,-41.07631 3.12632,0.08684 v -1.21579"
         id="path11" /><path
         style="fill:#757575;fill-opacity:1;stroke-width:0.264583"
         d="m 163.26315,68.08421 v 25.357894 l 0.78158,-0.08684 0.0869,-3.126317 1.82368,-0.08684 -0.17368,-0.955265 h -1.56316 l -0.0868,-20.842105"
         id="path12" /><path
         style="fill:#757575;fill-opacity:1;stroke-width:0.264583"
         d="m 113.41579,110.28947 5.12368,0.0868 v -5.03684 l 5.90526,0.17368 0.0868,4.95 38.81842,0.52106 -0.0868,-14.589476 h 0.86843 l 0.0868,19.713156 -45.50526,-0.43421 0.0868,-1.38947 0.78158,-0.0868 0.0868,0.69473 43.59473,0.34737 v -3.73421 l -44.02894,-0.26053 v 0.6079 h -0.78158 l 0.0868,-0.78158 -5.03684,-0.17368"
         id="path13" /><path
         style="fill:#757575;fill-opacity:1;stroke-width:0.264583"
         d="m 100.12894,109.9421 -2.171047,-0.17368 0.173683,-8.16316 -27.094735,-0.26053 -0.173686,7.72895 h -1.302631 l 0.08684,0.78158 1.302631,-0.0868 0.08684,2.77895 -0.955263,-0.0868 0.173683,5.64474 h 0.694738 l 0.173683,-4.16842 h 3.73421 v -0.69474 l -3.213158,-0.0868 0.08684,-11.02895 8.336841,0.17369 0.173683,10.9421 -2.08421,-0.17368 -0.08684,0.95526 5.036841,-0.0868 v -0.86842 l -2.08421,0.0868 -0.08684,-10.85526 7.902633,0.0868 -0.08684,10.85526 -2.431579,-0.0868 v 1.04211 l 5.123685,-0.0869 c 0,0 0.173683,-1.0421 -0.173686,-1.0421 -0.347366,0 -1.823683,0.0868 -1.823683,0.0868 l 0.08684,-10.76842 7.728947,0.17368 0.08684,11.02895 -2.952631,-0.0868 v 0.95526 h 3.560527 l -0.08684,4.16842 0.955262,-0.17368 -0.260527,-5.81842 -0.607893,0.0868 v -1.73684 h 2.257892"
         id="path14" /><path
         style="fill:#757575;fill-opacity:1;stroke-width:0.264583"
         d="m 96.655262,166.47631 3.126314,-3.12631 0.694734,-0.0868 v -0.78157 l -1.215786,0.17368 -0.607894,0.69474 v -13.98158 l -26.747369,-0.0868 v -11.81052 l 26.313156,0.0868 v -9.46579 l 2.344733,-0.0868 v -0.78158 h -2.518416 l 0.173683,-1.21579 h 0.347369 l 0.173686,-4.3421 -0.868421,0.0868 -0.173686,3.47368 -3.299999,-0.0868 0.08684,0.95526 h 2.778948 V 136.95 l -7.642106,-0.17369 -0.173683,-10.85526 h 1.910527 l -0.08684,-1.04211 -4.776314,-0.0868 v 1.21579 h 2.084211 v 10.59474 l -7.728948,-0.0868 0.173683,-10.68158 2.344738,0.0868 0.08684,-1.12895 -5.471051,0.17369 v 1.0421 h 1.997368 l -0.08684,10.59474 -7.642106,-0.26053 v -10.50789 l 2.952631,-0.0868 v -1.04211 l -3.994737,0.17368 -0.173683,-3.73421 H 70.16842 l 0.08684,4.86316 h 1.042107 l -0.347369,30.56842 1.042104,-0.26052 V 150.15 l 26.052631,0.26052 v 13.28684 l -2.344737,2.69211"
         id="path15" /><path
         style="fill:#757575;fill-opacity:1;stroke-width:0.264583"
         d="m 7.49161,124.71689 24.931095,-0.0614 0.122815,-5.40379 h 0.73688 l -0.245628,13.32525 -0.736878,-0.12282 0.0614,-4.42128 -25.0539078,-0.0614"
         id="path16" /><path
         style="fill:#757575;fill-opacity:1;stroke-width:0.264583"
         d="m 7.2459836,139.02463 25.0539104,-0.0614 0.122811,-3.19315 0.736881,0.0614 -0.184222,7.00035 1.350947,-0.12281 -0.06141,0.79829 -27.5101736,-0.12282"
         id="path17" /><path
         style="fill:#757575;fill-opacity:1;stroke-width:0.264583"
         d="m 64.845411,156.34131 h -0.736878 l 0.06141,-12.58837 -26.773296,-0.12281 0.122812,-0.9211 h 0.675473 l 0.245629,-4.11424 h 0.736878 l -0.06141,1.04391 4.912532,0.0614 0.184221,-5.15816 h 0.552659 l 0.06141,5.15816 2.886112,-0.12282 0.184219,-4.42127 -0.859692,0.0614 v -0.73688 l 0.921099,0.0614 v -4.29847 l -8.658336,-0.0614 -0.184221,4.78971 h -0.798285 l 0.184218,-10.56194 10.254909,0.24563 -0.0614,2.02642 2.456264,-0.0614 -0.122814,-1.96501 h 13.939308 l 0.06141,10.1935 -0.859692,-0.12281 0.122812,-4.54409 -7.798644,-0.12282 v 1.04392 l -0.736878,0.0614 -0.06141,-1.04391 -6.938952,0.0614 -0.122812,4.17565 h 0.675474 l -0.122815,0.85969 -0.552659,-0.12281 0.122812,4.54409 2.886112,-0.0614 0.06141,-4.35987 h -0.675473 l 0.122814,-0.85969 2.087827,0.12281 -0.122814,0.79829 h -0.675473 l 0.184218,4.29846 3.008927,0.12282 0.06141,-4.29847 -0.798288,-0.12281 0.06141,-0.8597 0.614067,0.0614 0.06141,-0.9211 0.859692,0.18422 -0.122812,6.07926 7.737237,-0.12281 v -1.53517 l 0.798285,0.0614"
         id="path18" /><path
         style="fill:#757575;fill-opacity:1;stroke-width:0.264583"
         d="M 108.11842,175.07368 107.85789,173.25 h -2.17105 l -0.17369,-9.81316 h -1.91052 v -0.95526 h 1.91052 l -0.0868,-34.47632 -2.08421,-0.0868 0.17369,-0.95526 1.82368,-0.0868 -0.0868,-5.21052 h 0.69473 l 0.17369,9.46579 5.29737,-0.0869 -0.0868,0.78158 h -5.38422 l 0.52106,40.64211 2.51842,-0.26053 L 108.9,174.9"
         id="path19" /><path
         style="fill:#757575;fill-opacity:1;stroke-width:0.264583"
         d="m 114.37105,131.13158 3.99474,-0.0869 0.26052,-1.82368 0.78158,-0.0868 v 0.69473 l 1.47632,-0.26052 -0.0868,-3.47369 -1.56316,0.0868 -0.0868,0.60789 -0.78158,-0.0868 0.0868,-1.56316 4.3421,0.0868 -0.0868,1.04211 -0.95526,-0.0868 v 3.73421 l 4.16842,-0.0868 0.17368,-3.56052 h -1.12894 l 0.17368,-0.86842 39.16579,0.17368 c 0,0 0.17368,8.77105 0,9.20526 -0.17368,0.43421 -0.95526,-0.17368 -0.95526,-0.17368 l -0.0868,-3.64737 -43.9421,-0.34737 -0.17368,1.65 L 114.37105,132"
         id="path20" /><path
         style="fill:#757575;fill-opacity:1;stroke-width:0.264583"
         d="m 163.46448,138.10353 0.12281,35.37023 0.9211,0.0614 -0.36844,-32.79115 1.53516,-0.0614 -0.18421,-0.73688 -1.35095,-0.18422 0.12281,-1.78079"
         id="path21" /><path
         style="fill:#757575;fill-opacity:1;stroke-width:0.264583"
         d="m 170.09639,127.84863 0.24563,12.0971 -1.53517,0.0614 v 0.67547 h 1.10532 l 0.24563,11.48304 h 0.85969 l -0.12281,-9.14959 2.21064,-0.0614 v -0.67547 l -2.14923,0.0614 -0.24563,-14.43056"
         id="path22" /><path
         style="fill:#757575;fill-opacity:1;stroke-width:0.264583"
         d="m 168.86826,89.223849 4.78972,0.0614 -0.0614,0.982507 h -2.14923 l 0.12281,23.887184 -1.04391,0.0614 -0.0614,-23.948594 -1.65798,-0.122812"
         id="path23" /><path
         style="fill:#757575;fill-opacity:1;stroke-width:0.264583"
         d="m 176.17565,142.27919 h 1.22813 l 0.24563,-3.37737 0.61407,0.0614 v 3.43877 l 25.11531,-0.0614 -0.0614,0.61407 h -27.20315"
         id="path24" /><path
         style="fill:#757575;fill-opacity:1;stroke-width:0.264583"
         d="m 177.46519,122.62906 0.18422,13.14102 0.55266,-0.12281 0.0614,-5.15816 25.17672,0.24563 -0.24563,-0.98251 -21.18529,0.12281 0.0614,-0.9825 7.61442,0.0614 0.0614,-2.14923 3.86862,-0.0614 v -0.67547 h -3.6844 l -0.18422,-3.13174 -0.73688,0.0614 -0.0614,3.07033 h -0.36844 l -0.0614,0.55266 h 0.55266 l -0.0614,1.53517 -3.25455,0.0614 0.12281,-2.14923 -0.73688,0.0614 -0.0614,2.08782 -3.13174,-0.0614 -0.0614,-2.21064 h -0.73688 l 0.18422,3.99143 -3.07033,-0.0614 -0.0614,-7.12317"
         id="path25" /><path
         style="fill:#757575;fill-opacity:1;stroke-width:0.264583"
         d="m 177.588,109.67226 -0.12281,9.88647 0.73688,-0.12281 0.12281,-3.19315 10.62335,0.18422 v 3.07033 h 0.55266 l 0.0614,-3.13174 3.99143,-0.12281 -0.18422,-0.73688 h -6.87755 v -1.53517 l 17.25527,0.12282 -0.36844,-0.73688 -25.11531,-0.0614 0.0614,-3.74581"
         id="path26" /><path
         style="fill:#757575;fill-opacity:1;stroke-width:0.264583"
         d="m 203.19457,99.785791 -19.58872,-0.184222 0.12282,-10.132094 -7.18458,-0.122814 0.0614,0.798287 h 0.9825 l -0.0614,15.965722 0.9211,-0.0614 -0.12282,-3.6844 24.86969,0.30703"
         id="path27" /><path
         style="fill:#757575;fill-opacity:1;stroke-width:0.264583"
         d="m 196.86969,126.06783 h 6.87754 l -0.18422,0.79829 h -6.81614"
         id="path28" /><path
         style="fill:#757575;fill-opacity:1;stroke-width:0.264583"
         d="m 196.56265,115.69011 -0.0614,0.55266 6.57051,0.0614 v -0.55265"
         id="path29" /></g><g
       id="g45"
       style="display:inline;fill:#ffffff;fill-opacity:1"
       inkscape:label="hollow walls"
       transform="matrix(1.1633158,0,0,1.1633158,-11.362886,-70.176991)"><path
         style="display:inline;fill:#ffffff;fill-opacity:1;stroke-width:0.264583"
         d="M 7.4302034,125.51517 H 32.238487 l -0.06141,1.59658 -25.2381288,-0.0614"
         id="path30"
         transform="matrix(0.89255862,0,0,0.89255862,6.2999346,18.735539)" /><path
         style="display:inline;fill:#ffffff;fill-opacity:1;stroke-width:0.264583"
         d="m 7.0003569,139.88433 25.1153151,-0.12282 -0.06141,2.88612 -25.2995346,-0.18423"
         id="path31"
         transform="matrix(0.89255862,0,0,0.89255862,6.2999346,18.735539)" /><path
         style="fill:#ffffff;fill-opacity:1;stroke-width:0.236156"
         d="m 41.651756,133.94411 -0.05481,-3.17892 7.234792,0.0548 -0.05481,1.47984 3.836633,0.0548 -0.05481,-1.58946 10.852187,0.0548 0.05481,3.34335 z"
         id="path32" /><path
         style="fill:#ffffff;fill-opacity:1;stroke-width:0.236156"
         d="m 42.254656,117.61102 v 2.95969 l 21.320711,0.0548 v -2.85007"
         id="path33" /><path
         style="fill:#ffffff;fill-opacity:1;stroke-width:0.236156"
         d="m 41.322902,144.08378 -0.05481,2.08274 22.088037,0.0548 -0.05481,-2.13755"
         id="path34" /><path
         style="fill:#ffffff;fill-opacity:1;stroke-width:0.236156"
         d="m 119.50573,131.51501 v 3.06172 l 32.43863,0.0387 0.0775,-3.13922"
         id="path35" /><path
         style="fill:#ffffff;fill-opacity:1;stroke-width:0.236156"
         d="m 112.80096,117.21411 -0.0388,-3.8562 4.04998,0.0775 v 3.81745"
         id="path36" /><path
         style="fill:#ffffff;fill-opacity:1;stroke-width:0.236156"
         d="m 165.49275,120.57071 0.0274,1.2058 h 6.46747 l 0.13702,-1.15099"
         id="path37" /><path
         style="fill:#ffffff;fill-opacity:1;stroke-width:0.236156"
         d="m 165.60237,109.63631 -0.0822,-10.386312 3.94625,-0.05481 -0.0274,8.824252 18.00476,0.10962 0.0274,1.72649 z"
         id="path38"
         sodipodi:nodetypes="ccccccc" /></g><g
       id="layer6"
       inkscape:label="outer"
       style="display:inline"
       transform="matrix(1.0383275,0,0,1.0383275,-4.0340729,-48.381643)"><path
         style="display:inline;fill:#00004c;fill-opacity:1;stroke-width:0.264583"
         d="m 5.9052631,63.915787 54.3631579,1.389475 2.778945,-2.778948 11.463157,12.157895 10.073685,-13.026316 3.3,3.994738 -1.21579,1.042103 -2.08421,-2.08421 -9.726316,12.678947 -11.63684,-12.331578 -2.431579,2.08421 L 8.1631577,65.652631 7.642105,172.46842 l 53.66842,0.34736 3.126316,3.47369 10.247368,-11.11579 h 21.536842 l 10.247369,11.63684 3.12631,-3.99474 93.44211,0.17369 L 202.51578,69.126313 108.37894,68.257893 105.6,64.78421 94.310524,76.942102 l -2.952631,-3.994734 1.563156,-0.868424 1.563158,2.257896 11.289473,-12.331578 3.3,4.342104 95.52632,1.215789 0.34736,107.163155 -94.13684,-0.34737 -4.3421,4.68948 -11.463158,-11.63684 -19.626315,-0.17369 -11.46316,11.28947 -3.821052,-4.16842 L 5.5578946,174.03157 5.9052631,65.999999"
         id="path1" /><path
         style="display:inline;fill:#00004c;fill-opacity:1;stroke-width:0.267207"
         d="m 86.460549,66.392592 5.576164,7.448893 1.332082,-1.179407 -5.793013,-7.386821"
         id="path2" /></g></g><g
     inkscape:groupmode="layer"
     id="layer3"
     inkscape:label="Rooms"
     style="display:inline"
     transform="matrix(1.0114812,0,0,1,-0.03178661,0)"><path
       style="fill:#e7e7e7;fill-opacity:1;stroke-width:0.27316"
       d="m 4.7421763,101.1998 -0.378219,29.07465 56.2285327,0.12752 0.378217,-28.69209"
       id="0801"
       inkscape:label="0801" /><path
       style="fill:#e7e7e7;fill-opacity:1;stroke-width:0.27316"
       d="m 97.657934,85.132219 -0.126072,9.9466 -26.853537,-0.12752 -0.126074,10.839231 27.483902,0.12752 0.126074,13.89973 h 5.547213 l -0.25215,-34.685561"
       id="0812"
       inkscape:label="0812" /><path
       style="display:inline;fill:#e7e7e7;fill-opacity:1;stroke-width:0.27316"
       d="m 4.8682492,71.360019 v 9.18148 l 23.5756408,0.12751 0.378219,-9.18147"
       id="0802"
       inkscape:label="0802" /><path
       style="display:inline;fill:#e7e7e7;fill-opacity:1;stroke-width:0.27316"
       d="m 4.9943221,56.057576 v 9.181463 l 23.5756419,0.38256 0.12607,-9.30899"
       id="0803"
       inkscape:label="0803" /><path
       style="fill:#e7e7e7;fill-opacity:1;stroke-width:0.27316"
       d="M 4.8682492,20.351857 4.7421763,53.762204 28.44389,53.889726 28.94818,20.989458"
       id="path40"
       inkscape:label="0803" /><path
       style="fill:#e7e7e7;fill-opacity:1;stroke-width:0.27316"
       d="M 37.899359,21.372021 37.647214,54.527327 61.222855,54.399806 61.348927,23.412347 58.07103,23.539869 57.944959,22.009622"
       id="path41"
       inkscape:label="0803" /><path
       style="display:inline;fill:#e7e7e7;fill-opacity:1;stroke-width:0.27316"
       d="m 105.72661,89.085349 0.37822,41.061581 3.02575,-0.12752 v 0.51008 l 54.21136,0.12753 -0.25215,-42.209261 -43.7473,-0.76513 -0.12608,1.65777"
       id="0811"
       inkscape:label="0811" /><path
       style="display:inline;fill:#e7e7e7;fill-opacity:1;stroke-width:0.27316"
       d="m 105.72661,65.239039 0.12607,-41.316609 2.89967,-0.127521 0.25215,-0.765124 53.32886,0.382562 0.50428,42.719342 -38.2001,-0.63761 v -5.10081 h -7.94259 l 0.37822,5.48338"
       id="0806"
       inkscape:label="0806" /><path
       style="display:inline;fill:#e7e7e7;fill-opacity:1;stroke-width:0.27316"
       d="m 165.33336,23.574453 -0.26745,20.288374 20.14723,-0.180343 -0.0891,10.910637 18.27514,0.27051 V 23.664624"
       id="0807"
       inkscape:label="0807" /><path
       style="display:inline;fill:#e7e7e7;fill-opacity:1;stroke-width:0.27316"
       d="m 179.68603,87.956219 0.0892,10.7303 23.89141,0.27051 0.0892,-11.09097"
       id="0809"
       inkscape:label="0809" /><path
       style="display:inline;fill:#e7e7e7;fill-opacity:1;stroke-width:0.27316"
       d="m 172.01938,100.76044 h 31.6472 l 0.1783,30.11696 -38.06579,-0.27051 -0.53488,-32.281061 h 4.72479 l 0.26744,12.173031 h 1.96124"
       id="0810"
       inkscape:label="0810" /><path
       style="display:inline;fill:#ffffff;fill-opacity:1;stroke-width:0.27316"
       d="m 70.391768,58.380279 -0.178294,10.27945 3.387588,-0.0901 -0.08915,1.98375 h -3.833323 v 10.36962 l 3.922469,-0.18035 v 2.52478 l -2.585264,-0.0901 v 9.46791 l 6.418586,0.0901 v -9.55807 l -1.693794,0.0901 -0.08914,-2.52477 h 6.596881 l -0.445735,2.34444 -2.050383,-0.0901 -0.08915,10.00894 6.686027,-0.0901 -0.08915,-10.0991 H 84.38785 l -0.178296,-2.1641 5.972854,0.0901 v 2.07392 l -1.515502,-0.0901 v 10.45978 h 6.686028 l -0.08914,-10.27945 h -2.941853 v -1.98374 l 3.56588,0.0901 0.178296,-10.00893 h -4.011618 l 0.267442,-1.89359 2.852703,-0.36068 0.178295,-10.00893 -6.775173,-0.45085 0.267439,10.45978 1.426354,0.36068 -0.08915,1.5329 -6.062,-0.0901 -0.08915,-1.71324 2.496117,-0.18034 v -10.09911 l -6.864323,-0.18033 0.178296,10.27944 h 2.228674 l -0.08915,2.07393 -6.507735,-0.27052 0.356589,-1.98375 h 1.782943 l 0.08914,-10.0991"
       id="elevator8"
       inkscape:label="elevator8" /><g
       id="pano_hall_8"
       class="panorama-point"
       transform="matrix(0.16242284,0,0,0.16428767,89.967139,28.108662)"
       style="display:inline"
       inkscape:label="pano_hall_8-1">
    <circle
   cx="500"
   cy="300"
   r="12"
   fill="#1d4ed8"
   id="circle1"
   style="fill:#03004c;fill-opacity:1" />
    <text
   x="500.03314"
   y="303.45728"
   text-anchor="middle"
   fill="#ffffff"
   font-size="9.75619px"
   id="text1"
   style="stroke-width:0.696871">360</text>
    </g><g
       id="pano_hall_82"
       class="panorama-point"
       transform="matrix(0.16242284,0,0,0.16428767,31.031212,27.419252)"
       style="display:inline"
       inkscape:label="pano_hall_8-2">
    <circle
   cx="500"
   cy="300"
   r="12"
   fill="#1d4ed8"
   id="circle1-2"
   style="fill:#03004c;fill-opacity:1" />
    <text
   x="500.03314"
   y="303.45728"
   text-anchor="middle"
   fill="#ffffff"
   font-size="9.75619px"
   id="text1-4"
   style="stroke-width:0.696871">360</text>
    </g><g
       id="pano_hall_83"
       class="panorama-point"
       transform="matrix(0.16242284,0,0,0.16428767,-18.576069,26.364566)"
       style="display:inline"
       inkscape:label="pano_hall_8-3">
    <circle
   cx="500"
   cy="300"
   r="12"
   fill="#1d4ed8"
   id="circle1-1"
   style="fill:#03004c;fill-opacity:1" />
    <text
   x="500.03314"
   y="303.45728"
   text-anchor="middle"
   fill="#ffffff"
   font-size="9.75619px"
   id="text1-5"
   style="stroke-width:0.696871">360</text>
    </g></g></svg>
